<mxfile host="65bd71144e" pages="2">
    <diagram id="nSUDRHu6-391Zihb9JcF" name="software">
        <mxGraphModel dx="789" dy="582" grid="1" gridSize="10" guides="1" tooltips="1" connect="1" arrows="1" fold="1" page="1" pageScale="1" pageWidth="850" pageHeight="1100" math="0" shadow="0">
            <root>
                <mxCell id="0"/>
                <mxCell id="1" parent="0"/>
                <mxCell id="Mujl-81metIkKJXt9XZx-9" value="" style="rounded=1;whiteSpace=wrap;html=1;fillColor=#1ba1e2;strokeColor=#006EAF;verticalAlign=bottom;fontColor=#ffffff;" parent="1" vertex="1">
                    <mxGeometry x="20.659999999999997" y="550" width="222.89" height="200" as="geometry"/>
                </mxCell>
                <mxCell id="d6vL6DnrSCsX0hzZlt4e-58" value="" style="rounded=1;whiteSpace=wrap;html=1;fillColor=#d0cee2;strokeColor=#56517e;verticalAlign=bottom;fontSize=12;" parent="1" vertex="1">
                    <mxGeometry x="60" y="190" width="260" height="140" as="geometry"/>
                </mxCell>
                <mxCell id="d6vL6DnrSCsX0hzZlt4e-56" value="" style="rounded=1;whiteSpace=wrap;html=1;fillColor=#d5e8d4;strokeColor=#82b366;fontSize=12;" parent="1" vertex="1">
                    <mxGeometry x="360" y="205" width="220" height="110" as="geometry"/>
                </mxCell>
                <mxCell id="d6vL6DnrSCsX0hzZlt4e-59" style="edgeStyle=orthogonalEdgeStyle;rounded=0;orthogonalLoop=1;jettySize=auto;html=1;entryX=0.5;entryY=0;entryDx=0;entryDy=0;fontSize=12;" parent="1" source="d6vL6DnrSCsX0hzZlt4e-51" target="d6vL6DnrSCsX0hzZlt4e-58" edge="1">
                    <mxGeometry relative="1" as="geometry"/>
                </mxCell>
                <mxCell id="d6vL6DnrSCsX0hzZlt4e-60" style="edgeStyle=orthogonalEdgeStyle;rounded=0;orthogonalLoop=1;jettySize=auto;html=1;fontSize=12;" parent="1" source="d6vL6DnrSCsX0hzZlt4e-51" target="d6vL6DnrSCsX0hzZlt4e-56" edge="1">
                    <mxGeometry relative="1" as="geometry"/>
                </mxCell>
                <mxCell id="d6vL6DnrSCsX0hzZlt4e-51" value="JDK 1.8" style="outlineConnect=0;dashed=0;verticalLabelPosition=bottom;verticalAlign=top;align=center;html=1;shape=mxgraph.aws3.android;fillColor=#EE472A;gradientColor=none;fontSize=12;" parent="1" vertex="1">
                    <mxGeometry x="301.5" y="20" width="73.5" height="84" as="geometry"/>
                </mxCell>
                <mxCell id="d6vL6DnrSCsX0hzZlt4e-52" value="" style="shape=image;verticalLabelPosition=bottom;labelBackgroundColor=#ffffff;verticalAlign=top;aspect=fixed;imageAspect=0;image=data:image/png,iVBORw0KGgoAAAANSUhEUgAAANgAAADpCAMAAABx2AnXAAAA5FBMVEX///8sIlX3lB49L3UuJFk1KWVDNIA/MXoNAEff3uWSjqQYB0oqIFQtI1Y2KmgvJFuIhJzq6fAgEVEsHmKHgaE7LnJGNoYkGFAUAElCM34tG2v3jwDCwM3LydRtaIX08/YbDEu2s8IYDEbW1N0XAEwgE04lGlE/N2P96dT4+PoAAEOtqrpPSG+fm68KAEVnYYH7zqL+8+Z9eJP/+vQ4L17817BKQmz4oDj6wov6uHb94cb4pElaVHc8M2H5q1v4oD76v4P83Lz6tm/3mCcAAD75rVP6vHP2igD5sWH+7d77ypn95ctA1vd5AAAS70lEQVR4nO1dC3uiutZWa1uQtIr7dMMcUfBQsFbRFqnTTm2nlz3fTNv//3++XEACJOAF1Lr7PmefZ5cdSV6ysrJWsrJSKhWHyfXH89Xt08uv+1+//u/musCaNofr5/c/31u/W79/tyqP7x+TbbcnF1zf3P1stVqVCvznfl9ITT5u7zEpROvxiha/viyaWtep1WoN163VnEFXM2W9v7WmLoOLp5+EFGT1/f1t/lw3B43x1FMMVTIMi8AwVNWwH4adRtfUt9jmbFxfBawgrZeP4LGsNYYnhmTZAJRBOQoAgK1YquXNau1dJXfxErCCtJ4CERSdoUU4pQLYlqTMBvJWGTDx4/73nFbl1lcXouONDDudEk1OupwOdqvfIK1KSIv0Vr87GxkZHZWALZ132jujTi4eg86CvO4ILdnxVGVJVgSKsCPddh2OrUrr1wV+JjfA0p0VAqies31qV5WQVuUGP5Ib9hq0MDXDc7YrkBc/KSl8wVLYd9bprTk1yetukdctRatFukvzpPVpYWrqUNwSrTe6u+6xitc7l/nQQrAva1uRx5uQVqV1ix91m1ZutMpIHnvtzfN6+h3yqjyjJ7qr5tddBPZ5bcO0rn9RYvgTW7tmz8iZFoI626iddfFK8XrEw8tZ3HhaCkp1g+L4g5LC1gt+lL8YBgCGsyleEbXxhJ7o0yLEMGCmupvhdUWpDaIORW81u3BRqONN6P0kL7NezPAKYQ2LNx6vEtOXZhfNCzKbFq0ck9OyZhXPCyrHh2KZPdO87jCvnGzDTGa9Ipld0Lwe0RNT2AwvyGxa3Di7puavync0L4vnm+KFxllRunHyk56YkfclVzcxvubMxgURe6EF8Qd8oA+Lnb/ikIqZqd/pCewdPekUaG8woRZhXX3Q/fUHPampG+ZVBiMtd16T79QAe0UDTNs4L8jMyn294I7uMORYysrmFGIIZZgzr+TMPN2kQgwhNXLlNXmlBRHNYJsfYARAzXWYPcUF0dwSL8jMy9ECSZpSw+0IIoKR42x2Hzc5HGlrvKAw5rYKkvBVxKydvEJh9/IiRmuOFtIcbq4Lo0sjLwMk4jRfwQftwpakFoSQi/6Y0M4KVvWzzdq+SVi56I9Eh2nClnnBaToHyyo5N29R1QfIo8siKhF5K+3td1gZKOt3GT2HVdActvURhmCtbTJG3DC0Ti9ebpsUAjhZd9Eqsh6AggK2PIcFWHcuiyxM3cMHurXlOcyHPVxvzeoqrjq6W7QSaaxrMf6Km7+z7et6gvU0/lsrJonijkgi8svWkcWE1eFsesWNj7VcaVoSf2NJHEm7gss1ZHFCS+JP+ECv7RJWJ/acDFLZD0QWEz+yy38aRFznbTcmR1zTQ+zXtluTI/Z2iN3Gl0n3BRF76i27/KdBZFEAPRB3DavxSugO/XIk7BZWI/YRDwbj7kScFA1OvdZqbvRzwhfjECucF4cZkMyViCWU4oBj2m+L2KoGfmK5o8FZ7qgWD3bFq8VoThLec4e98HayNWKrLcJd03ECFbxmz14WOKkXD7YsKp2ViNHTGI6c6qkGE83iwa5YmK2yPHAR8TLxhnpj57DKftJFfCFnB7HSes5nILYSIsQet92aHPFF7LPh30Fsb5UHPtEn7xzMVfT9G21RYcvDG/2PhU1YHsyK/zdaKWT9OhEuMLMBA+X6YfGosmoGykpx3ZPEtvqYbd1XN0CMbQSvuEf2h+KFF6k4288nGyDGcVtW25eIRF+iOHve5tjh6SH83ylqwGn0X6g/qGfJchk/OOUQk1Y7BR7Z9UPntwec/efD06JR5xBbbR/6R3yFmxeQvi1iwFhtYfEiHrsiX1ps/FU0OPWqq4X3JfYz+y4H/ykanHpXjTuiTx9V9iO9FEFi/W1fkFCL+4IL+mDV3bZbkydo7fG67cbkicRBgn3Bv2KQVfApv217lhGswYx2ySrwb91Tz5lQ//pvUfiLU6Wwzhm5RGiOazE9PuhtHpwVhGqZXaW0TvDsj/hubZt7Av+0IF6nnPqAuk6E+iQeOND3eMSqxXTZAae6sj1bgxfD2eTtasIuOygCHBezXFYHaxFLhN2b/JNIRfA641UG6msG3idWdPinaevHufM65rjOOZxuSUQF82IiIE7zZnbMFcSysVokRIjIiQLkbZZsfhz3Qb7MjrmCuK7qQLiLq48aP5C7fpwnDo55ETnlsrT+aWg69B4nT9Cb/C47/JYnM+4AK9vTtXmVSn/ifnQt5RTIaX7MvvEHWFnNI61kYrFKr6ecljjLi9kRz+Qo53Zg+DHeZanHu8+OCudVHuVzxDuxtamnZobIhVkqr9U2WRh4idv43dSD0GdH39ZFKq/yWuYvjUio6Xf0hLOh5ON0XWZHKXoDqvr80mS+x5cIxBSVD3H499Fa4Ov5MtIc+eWnmiQC4Zz0fB7VNVj9/S311eX8kkOUYg4nzoGZlZLqbNVO+5tvR2EY+eaWSRhWclYihcMViaUOL5QNKN9EaRFhxCEEKVb+vNOWwxH8J6O7ykBZ16qPI5nmyM08X1s/XpJainXoQ1jPb2YhkQ+ov0Dmt8NvudIqJvsbLYwkV9/JAidsF+61g2xaZSUPoz6B5DTNX4ujcbLAWDvKGlsY9kkxuSOfEzo/W4EQ1M+OUlkt0FlldJ1GUYniIwYITkSYMU/T3E4PWOSODk45MfVJXs3iklcnFEiptkzWkmr99OzgGJqCR9CYPD44O+SE07N5WfmnIAxBu2YVvCvtbigfC8jFaeZick8xe8WHABubYSYUfMfE5DvNDG9yNkYb4PVP4XdnTF4TzGqF598CwgaS3jP6zCk4u7NtbySZf3ScYWbdHK5q4cN62NBFJxNaN75i3WhWi8vpZGzuWokJ7Z2RK0DkWUG5dIDgbvL2lvf4Hkyp7xaSbty+zN9PScVzfHMaDrTz3MURGCd5+5WZuKaUo3+BkDzMWe8DdaNiGCCxDAL1fjPPTjO8Iq3DFDzT19KQrBjiWM0rb5VyvtI5xVxw/UKLI4nU7PZyma2BMNv46KLxXEl0mu4oa0/XQO1t8141hAnlorW+k5Gm16S1qAH1ZLADVzO+PYYhcq0/JKgRUlNXTSVsC/UNT11cfITGY6v1RKK9+4OptHyaOAAsabYlVcjEj3vqPtd3P5C97XrqMtwgK7VX29bFfjx8/AmpBZeflnQNcjNS4kIoVoohTd3dufWUwtvta0jtLojS19u1maIaabcZAFsx1PrYWelY4kYwef4T3pv8eDM/WqFrTqcnCaqBrhkO707GVyYbqmBNXWdnL00OcH3z2Aquun59obLF9WWz67izab0Jqagq/EdSvOm44WjirnMKMHm+qxByrdbr3Y/Ef++TQOXPQieKt+e7n4hdq/W79etqn07FQEwunt9f7n++VhC525u3fTqPADG5vvi4ubl9erp73zNmX/jCF77whT2E3sYI7KWPuyeIuz3IEqqNbIj5btbNb2xX7YFNhbMRhDn2yQ0ie0Os/EXs8+CL2GfDv4bY63eI1/0jtj/4IvbZ8EXss2GHiYntruM4A81MX6rtw3IDWLDbjixRL0VMN3FVbX5EkWxqqJJBVzNl7paFTgrBlvCr0jqeZUiGYUhSszzj7pf2u0E5WNCqzpz5PniMmEluxAlaPsB/OeS13RkgVRnWlFmT6fYU+H5Si6F4sxpjl0l2ZqAp+e95cJkb8n1HUZX5ZggAtnReY1UoNySqHNoGMoSqI7OIdS9Rs0ZBdWOU8lrCtwNrdfgOMK+pmUhhofUElGFjXgmsxlLPx9FeMcejcPsNFrFG06SwaPVkHIPkJcs5rG1KIMyYxLB71gyI4ezroAeJuZcg/vuIQOqdETNeZERvT+uNy8S+m33ZiXUGO8YLxHMwyLMwIJ3qtbI9XoZYx38JtQFveVRn6NP5IXKSBiUAHfEs9qiT5mERoxfp1XlViqQ2FUUNuiXGTPT8rBdQ/mAZpan6u5XLEOs3UAggsNRmtaqoQeSE7c37rD+z5pVIdrVah+0hIkcRM6t+n8IX4ZZIvlAq9CfqkGhDYCidQVuUZbHbqPqP6OsNRM+PlbLUoaOhcqbmdOBwWYbYDB9dtRQXvkCX204QyhPeE++QwHDbr0SXoXZ0xlX4sUNipmL7hXq1rolaMpj54U5KmLLVP4tuN51Qd+sOiWUDxvxL6lPCCwgdWv3oWudcXZhY2UNJXAQ37J+Bf+AzuCe+T/62hlEdp7fd5jyYW/ds8tmHlKo0/XEyv+O77f89jM4oJhHH8NSxS4TaTp5ZkBvDhYmh8RANr/SPsgJBDH9VVhj5H/Ra8LuxRX4R06YkoDwI+u4/YPZW4ti0fI4rvPQb1r70BwNrJtQXJ5a83dM/F+nnsiDFztMsBI00JXl6gsieTT4zOXnDunGTXJAcdBk5r556/+1ixKzEVRD+sSaSfaSHWKZfF1EFrO+DQE5o4zP7/Qci0qxZGxcDTSyi7RHnKy1LDChJI4q0h+SLwTkaUm8u6apUv0Qh4uGCPwvpFnYOGnJpkDQIm8V823LEWJeSkBxDAFsldiYxch2JwDSgiOpt9oN/49zGM52LhX9JrZAaw7UQMWauWNJWnB+3niWKskWNyDiIJkTqAzcYPLDfgdNQAXQInvwA1NN4LUSM3eckubKB0gjgG8KByjf6Sb5iiR3918d9bwxKZook+u/AZwhrFk+MliTGfoV5PtdTJKcXYCpf6j1sSSyVsMpQXP+6YF7y5/a8aWR4Z1yztAgxdlU6zr1mI6PBJFoKCGwvxFfP3LtqxzaRU9ITaruvM9A3sSmHcgpNiYZNjydchFiT3Vw8yEAVCaB/Wz2whF6NET4mk28wYzVY10su1hlTvzbgVVlXElXJUWf4kckXBXZ67N0itmKVPXh81ujDhWnYIDdlVuuKkVpFIqonnCZjSx/0SrPA3eMkTvTHqQyIjlmfmMcmRnLOn5vkd6EbghzM5tTVwp4jUsRtMfnpQ2m4QAAo7DERzy4g4+j4oo4mAw2L+qnmRb1e6Jo8NIJR0F7k4NODP3ayiS0wPedBzFdOek2SQIyb5R+d0BYgBgJiQE3DPwOf2KZ6DFEb9KADSQcUA6MqUsSU1CYbRBSBlH5fpV4SyRjLyFez0BhjE3NjxCBkrTG1JSpaGlwiZkQUrYacfsUmsWVGWccFfa1YX5/YSYpWTKbml9u12YkULNrgycts4g7Lui3OVRJfiolelqGzILGyxZ4KyTzGzHMpax3bX2tBqZuIHssa7iUH/8TIPHZBejYPy4P5Cv0BpAzAkugSjw2NBb+onRFWTNqSnXWMDO6MC0UWIWYwXyFi+bL5zXBCX9T/xhlCJmPLLJO/r4t4XkBQaBHrnuluDHyNwH+379gM5t84K48T0fccJyCEjD8p16YmWIQYYN4wm21jE+qov0nmF6BkHK0gSQVBZspCbDVnyOxijiZDFkXstfA0JgZxCPFYIFmYs3JWy8ZCxfwlhPTchouteTBS35BZLFWFE2L4qxCvFKQuZEE0SDErS+OT78QzYjEWW6VKZjlrkyWP1JtzKL9ZJ+uCrKVHGsRwhx+SM3x0vy814gAqQ9aH6i9BDMSHEpn9/alJ5Pi8RHmQlwUqkpemqk0qGJBits16pVzzvKBhZJa0hokptj/oLEwMIAMj0jVB6i6ygGv+M+syPl0togr8nJzsBAvtTrDd1CFr10AaxzpN7o4VY567VibrlGXbcqKen+MJi29KnKBdQ3qts93zl+XIxzFVW/IaMaHUXTWiCYIEjwqoxT6CWOtJynyPKNi3UVTojOPt3r5sQhNUQlZaaNKbvpcEDKmjYbe2L2q1qWoEd7cttNuC5UjyHNzvsjbzvcpAfaO1TOh/2eOBv/HclzXXIA20A+HxRyVuyrhr6qigLrYHnSpsDAgnr/4scOyAIYyketVujgToNJTp7kcNt4JNKUUdnder8P9VCw3RpTb+8I4CMEbWQ68uqL6BCx2M0pwYrkESRs3qw4NnjcLdunAQaEqw52lLgtDEbREkf/+XmpVdOgECiPh4dFZe07MixYJyS2386UMr/nso3vMdeTVaQ1hGiaSYMcNtz3Js4zOSDF/jnKW3jYjukTsCY3cYqEvtQeuzeB4Jozcf3eY/7LO4sI6o0uo3zpkloTSd0GpXd9BGfaQELKLOnJgOhIMiUgwAS6j6CxIavqHsMowaQH8KDA/aaVKH24F17oYqoN9FZ3GV+MKA0EsafabblKKHdoENG9PRYgqlr7meoEqWAoGOhao9d8BynszGAzpKiktJgvoQLiGZLrp92p0vu0T/pJcG5Jr/DksSbDdWS990Og9qUIclqULV1ZiWoezMrLAtqmANa3FWPkRtUHM7HbfhdFNCZlCxRgcWSw2siSO25iF2HVhTY8A5/Sy3u04DNaU20NKWaVGAD24LKredI8epizmfGV/EPhu+iH02fBH7bPgi9tnwReyzYX+JofBlew+JuVME5upd/vh/459K4earoL8AAAAASUVORK5CYII=;" parent="1" vertex="1">
                    <mxGeometry x="85.76" y="210" width="92.7" height="100" as="geometry"/>
                </mxCell>
                <mxCell id="d6vL6DnrSCsX0hzZlt4e-53" value="Spring Tool Suite" style="shape=image;verticalLabelPosition=bottom;labelBackgroundColor=#ffffff;verticalAlign=top;aspect=fixed;imageAspect=0;image=data:image/jpeg,/9j/4AAQSkZJRgABAQAAAQABAAD/2wCEAAkGBw8SEBAQEA8QFRAXFRUXFxYYFhUVFRcVGxUXFhYVFxcYHyggGBolGxUVIjEhJSkrMC4uFx8zODMsNygtLisBCgoKDg0OGxAQGy0lICUtLS0tLSstLS0tKy0tLS0tLS0tKy0tLS0tLS0tLS0tLS0tLS0tLS0tLS0tLS0tLS0tLf/AABEIAOEA4QMBIgACEQEDEQH/xAAcAAEAAQUBAQAAAAAAAAAAAAAABgECBAUHAwj/xABDEAACAQICBgcEBggFBQAAAAAAAQIDEQQhBQYSMUFRIjJhcYGRoQcTUrFicoLBwtEUIzNCorLh8BVDU1SSY3OTs/H/xAAaAQEAAwEBAQAAAAAAAAAAAAAAAgMEAQUG/8QAMREAAgECBAIIBgMBAQAAAAAAAAECAxEEEiExQfATMlFhcYGRsRQiUqHR4QVCwSMV/9oADAMBAAIRAxEAPwDuIAAAAAAAAABotZdYY4OMP1bnOe1sq9lla7b+0uBGUlFXZyUlFXZvTVaR0/hKD2ateKl8KvJrvUU7eJzrSmtOLr3TqbEPhheK8XvfnbsNGZJ4v6V6mSeK+lep3KnUUkpRacWk01mmnmmj0IX7PNL7dOWGm+lDOHbC+a+y35NciaGqnNTipI1QmpxuiKe0PH1KWGgqc5QlOok3FtPZUZNpNZrPZOePS2K/3FX/AJz/ADJd7Uq2eFh2VJP+BL7yBtmLESfSOzMGIm+kdmZb0tiv9xV/8k/zJ/7N8fUq0K0alSc3Cas5NyajKO67ztdM5k2Tj2V1bVcTDnCEv+MpL8Z2hJ9ItRQk+kV2dHPKrVjGMpyaUYptt5JJK7b7LHqQT2maa2KccJB9Op0p9lNPJfaa8ovmbZyyxubqk1CLkyQ6L1nwWIlsUq8du9lGScJP6qklteBuj54ZvdEa4Y3DWUavvKfwTvJW7JdaPnbsKIYj6jLDGfWvQ7UCPap6zQx0ajVOUJw2dqLe0ulezjLj1XwW4kJoTTV0a4yUldAAHSQAAAAAAAAAAAAAAABotZdYIYWFlaVaS6EPxS5R+fm1rdXdcYVmqWI2adV9WSyhLks+q+/J+hW6sFLK3qVurFSyt6kvIn7RcJtYWNVLOnNX+rK0X67HkSwwtLYT31CrS4zhJLsdui/B2O1I5ouJ2pHNFo4s2WthstbPJR5RlaOx06FanWh1oO9ua3OL7GrrxOzaPxUK1KFWm7wnFNfk+1bvA4c2Z2E07i6VP3NKvOFO7dlbe99pWuvBmihV6PR7F1Gt0d77G99pta+MhHhGlHzcpt+myQ9s9K9ec5OVSc5ye+UpOT83meTZCcs0myqpLNJsNkp9mlbZx1vipzj6xl+FkTbK0q84SUoTlGS3Si3GS4ZNZolB2kmchLLJM71jcXClTnVqO0IRcm+xK+XN9hwzS2kZ4ivUrz605XtyW6MV3JJeB64nT2LqUnRqYipOk2m4y6V7O6vJ9Lf2msbLalTPsW16/SWS2KtlrZRsok20oq8nklzbySKzMdd9mOC2MD7xrOrOUvsp7EfDot/aJgYmjMIqNGlRW6EIw77JK5lm+Kskj2accsVEA57rZ7Q40pOjg9ipNPpVH0qa+jFJrbfbu7+G71O1sp46Gy7QxMV04cGt23C++PZvTyfBsppuxFVoOWRPUk4AJFoAAAAAAAAANFrLrBDCQ4SrSXQh+KXKPz82t6c89oOiJxqfpcbunLZjP6DS2V9l2Xj3lVaUowbiV1pSjBuJFMViZ1ZyqVJOU5O7b/vJdh4MoyjZ5Vjy3qSvVrXCdG1PEOU6O5S3zgvxR7N64cie1tK4eFFV5VoKi1dS3p9itm32LM4q2Ucna13ZXy4Z7/kvI008RKKtuXwxEoqz1MnSlanOvWnSTVOU3KKeTs3fd4mK2UbLGyncoerLmyxsNlrZ2xwq2WNlGyjZI4VbLWy1stbJWIlzZY2UbKNnQVbMzQeJpU8Vh6tZSdKFSMpWV3k7rLj0kvC5r2yjZNBOzufQEdNYZ0HiVWp+4Su53yXY+Klw2d98rHLNcdeKuK2qNDap4bc+E6q+l8Mfo8ePJRBydrXdr3twurpO3PN+ZY2WyqOSsX1cVKastA2emExdSlUhVpTcKkXeMlvT+9cGnk07Hg2WtkUjIdy1L1up46nsytDExXThwkr295DnHs3pu3JuVHCNUMPOnJYpNxmv2b+cu57u6/M7LoXSccRSU1ZSWUo8n+T4E6eIjKbhxXL9D1sNWc4/Nv7myABoNQAAAANNp7WCjhNhVFOUp3sopN2W9u7XM5KSirs5KSirs3J416MZxlCcVKEk009zT3o1OC1rwNXdXjB8p9D1eT8GbqMk0mmmnxWaCaltqE1LbU5FrPoWWErbObpSu6cua4xf0l+TNM2dg1pw9CeFq/pDtTitra/ejJdVx7bu1uN7cTjdzzq1NQlps/sedXpqEtCrZRso2WNlSKCrZRso2WNkjhVstbDZa2dFyrZY2GyxskkcKtlGw2WNkjgbLWw2UbOnA2WNlGyjZI5cNlrZRssbJJEA2Z2h9HOtOzv7tZyf4V2s8tG4CdaezHKK60uCX3vsJphMNCnBQgrRXm3xb7TPiMR0ayrf254E6dPNvse0YpJJKySslyXIz9C6Rlh6qmr7LymucfzW9f1MEHmRk4tSW6NabTujqtOopJSi04tJp8GnmmehFtTNI7UZYeTzj0ofVvmvBv17CUn0NGqqkFJHowlmjcAAtJA5BrTpL9IxVSad4RexD6sb5+L2n4nRNb9I/o+EqSTtOXQh9aXHwW0/A5CYsXPaPmY8VPaPmVbPXCY6tSd6VWpD6smk+9LJ+JjtlGzIu0xm00nrBisRTjSrVdqMXfcotu1ltWte2fmapsNljZJty3Dk27sNlGw2WNnSIbKNhssbJI4VbLGyrZY2dSOBso2GyxskA2UbDZa2SSOFGy1so2WtkiIbLWyjZ6YbDVKj2acHJ9m5d73IlsrsieTZn6K0ROs1J3jT+Li+yPPv3G30dq7GNpVmpS+FdVd/xfI3yRiq4xLSn68/6WxpfUeWGw8KcVCCtFf3d82eoB57d9WaAAAD3wOLdKrCrHfF3tzW5rxV0dOpVFKMZRd4tJp801dM5UTrU7GbeH2HvpvZ+y84/evA9H+PqWk4duvPl7GnDy1ym/AB6xrMTSOApV6bp1oqUHw3NPg01mmc907qRWpXnhm6tP4f8xeG6fhn2HTQV1KUZ7ldSlGe5wOV02nk1k1xT5MsbOx6c1aw2KTc47NXhUjlLsvwku/wschx9BU6tWkpbWxOUNq1r7LavbO24xVKTgefVpOnueLZa2UbLWyBSGyjYbLGzpwNlrYbKNkjhRso2UbPejgqs+rTk1z3LzZ12WrYMZso2bWnoGq+tKEfNsyYavQ/eqSfckvncreIpridyMjzZY2SynoPDrfGT75P7rGXTwFGPVpU/JN+bIPFw4Jjo2QqnSnPqRlLuTfyM7D6BxEt6UF9J5+SuS9ArljJPqq33/X2JKkuJpcLq7SjnNub5dWPks/U29OnGKUYxSXJKy9C8GadSU+s7liilsAAQOgAsc80uLTfgrX+aALwAADf6l4jZxDhwmmvtR6S9No0BlaIrbGIoz5TV+5uz9Gy2hPJUi+/9EoO0kzp4APo7Hp2NJita8BTbjLEwum01FSnmt66KZrcR7QcDHqqvP6sLfztHLGyjZg+Jnwsec8XPhY6HiPaVBfs8LN/Wmo/JM53VqOTcnvbbfe3dlrZRshKcpblFSrKfWDZa2GyxsiVhstbDZRskcDZm4HRk6mb6MOb49y4mVonRe1apUWX7sefa+zsN6Zq2Iyu0ScY33MPC6OpU90by+J5v+ngZgBjcnJ3ZalYAA4AAAAAAAAAAAAAYGAq+8nVqLqpqnHtUc5SXfJ/wo8NYdIe7p7EP2s8lbelub+5f0M3R+GVKlCnyWffvb82yzLlp5nx0XhxfPeRveVlwMkAFZIBsA4wdJ/xSAIN+nlT2f8A0DX8QQVstbJpjPZzilKXuqtGULu205Rlbhe0Wr+Jq8RqTpKO7DqS5xnT+TafoRdKa4GJ0qi3TI82WNmyxGgMdDrYSv4U5SXnFNGqbFmtypprdFzZY2UbKNg4VbM3Q+C95O8l0I7+18Ea5sl2jcN7unGPHe+97/y8CqvUyR03fLJQV2ZQAPOLgAAAAAAAAAAAAAAAeGNxUaUJVJvJebfBLtL61WMIuUmlFK7ZDNKY+eJqJRT2b2hHteV32v0L6FF1Jd3ErqVMq7zO0LCWIxMq9TdHPsv+7Fd2/wD+kpMXRmCVGlGmt++T5ye9/wB8jKI16inK62Wi8DsI5VruAAVEwAUZx7Ay/wBDYJl/goPT+AfYafh2b0AjmsOt+Ewl4yl7yt/pwza+u90PHPsZ6jaSuzTKSirskLdu4+f9MQhHEV405RlTVSpsuLTTjtPZaa35WNjrFrXisXeM5bFH/ShdR+098/HLsRoGzLVmp7HnYiuqllHhxKtlrYbLWyFjKZejaW3Wpx4Xu+5Z/cS8i+rivWb5Qb9UvvJQefin86XcW09gADMWAAAAAAAAAAAAA88RXhCLnOSUVx/vezw0jpGnRjebze6K3v8AJdpDdJaRqVpXm8luity/N9pooYeVTXZFc6ij4ntpjS0q7tmqa3R++Xb8jbasaM2V7+aza6C5L4u9/LvMDV/RHvX7ya/VJ7vifLu5+RMC/E1Ywj0VPz59+bV04OTzyAAMBoAAAB76Po7dWlD4ppeDkr+h4G61RobeKi+EIyl+FfzehOlHNOMe8lBXkkT8AH02Y9O5Gdf62Ihgak6E3Fpx23HKXu27S2Ws1m458rnGGz6HxWHjUhOnNXhOLjJc4tWa8mfP+lcFKhXq0J9anNxvzX7svFWfiZK61TPOxkXmUvLnngYrZRsNnm2VJGIubPNsNljZIjc3OrEv10vqP+aJKCHav1dnEQ+kpR9Lr1SJiebi1apfuRfS6oABmLAAAAAAADzrVowV5yjFc20vmaXHay043VKLm+byj+bJ06U6nVVyMpKO5vZzSTbaSW9vJLxI9pPWRK8aGb+N7l3Lj/e80OO0hVrP9ZK64RWUV4GMb6WCS1nr3cP2Z51m9EX1aspScpSbk97e82ehNDus9ud1SXnLsXZ2mRobQDlapWTUOEdzl38l6kpjFJJJJJZJLJJDEYpRWWG/b2c89ynSvrIpCCilGKSSVkluSLwDzTUAAAAAACZakYTZpTqtZzlZfVj/AFb8iH0qcpyjCKvKTSXe3ZHTsFhlTpwpx3Ril3834vM3/wAfTvNz7Pd/q5ow8byv2GSAD2DYDnXtH1VxFetTxGFpbcpR2KkU4xd11J9Jq+TafdE6KDkoqSsyupTVSOVnJMB7MsZOzrVqVJclepLxSsvVkn0d7NsBTs6vvaz+lJxj/wAYWy7G2TQEVTiiEcNSjwv482+xDtbdT8PVwcoYejSpVad5wcYxgm0ulGT5SS3vik+BxPaOm+1HW3rYChL/AL0l/wCtP+by5o5g2Qna+h52MlBztHhvz3HpTquMoyW+LTXencn9CqpxjOO6STXcznTZutD6d9zTdOcZSSd42tlfenfhfPxZixVFzinHdFFKaT1JcCLVtaaj6lKC725fKxg1tO4mX+Zsr6KS9d/qZY4Oo97IudaKJu3bN5Iwa+mMNDfVi3yj0n/CQerWnLrylLvbfzLC+OBX9n/nPoVuu+CJTiNaYL9nTk+2TUV5K5q8TrBiZ7pKC+ireruzVA0Qw1KOy9dSt1ZPiVqTcneTbfNtt+bKGXgtHVqvUg2vieUfN/cb7AatQjZ1pbb+FXUfPe/Q7Urwp6N+SEacpbEewWBqVXanFvm90V3slWitBU6VpS6dTn+6u5fe/Q2lOnGKUYpKK3JKyLzz62KnPRaI0QpKOr3AAMpaAAAAAAAD2weGnVqRpwXSk7diXFvsSzCV3ZA32pmj9qbryXRhlHtk1m/BP17CamNgcLGlThTh1Yq3e+Lfa3dmSfQYej0UFH18edD0acMkbAAF5MAAAEQ1/wBalgqOxTa/Sqiewt+xHc6jXZwvvfYmS85j7UdUqtSUsfQ2p2ilVp72oxVlOHZbevHmRle2hTiHNU24bnLpzbbbbbbbbbu23m23xZa2UuCk8G4APajhak+pTnLui36h6as4eINpQ1fxMt8Ix+tJfJXZscPqsv8AMqvuirerv8imWIpR3fpqWKnJ8CNHrh8LUqO1OEpdyy8XuRNMPoXDQ3U03zl0vR5GwStktxnnjl/Vev6/JYqHayJYXVmrLOpKMFy60vTL1Nzg9BYenns7cucs/Td6G0Blniak936afsujTiuAABQTAAAAAAAAAAAABO9WdEe5h7ya/WzWf0Y/D38X/QwdV9B2tXrRz3wi+H0mufJePdLD1cFhsv8A0lvw/JroUrfMwAD0jSAAAAAAAAAct171FgpPGYenJ0s3WowspL/qU8t3Fx8uzQYLRGDlFThHbi9zcpPzV953E1eO0HhqqknSjGTd9uMVGV+ba3+JlxFCU1eErPs4MyVMJFyzRsczo4KjDq0qS7oq/me5stLaFrYd3ktqnwmt3iv3Wa08ScZRlaW/eZsrjowACIAAAAAAAAAAAAAAAAB74LB1a0tilByfHku1vgEm3ZBangkS3V/Vu1q2IWe+MHw5OXb2cPlsNC6Ap0LTladXnwj9Vff8jeHq4bBZfmqb9nZ49prpULayAAPSNIAAAAAAAAAAAAAABbJJppq6I7pTVWnPpUX7uXw74P74+HkSQFdSlGorSVyMoKSszmGO0bWov9bTaXxb0/tLIxTq7SeRqMbq5hamew4S5xuv4d3oedV/j3vB+T/Jmlh3/VnPwSXE6n1V+zqwkuUk4v0un6Grr6CxcN9Cb+raX8t2Y5YerHeL9/bT7lLpyW6NcD0qYepHrQlHvi18zxuUvTcgXAtuuZfCEpdWLfcm/kcugUBnUND4qfVoT8eivOVjZYbVLES68oQXftPyWXqXRoVZbRfPjYkoSeyI+emGw9SpLZpwlKXJK/nyJpgtU8PCzqOVR9vRj5LPzbN5QoQgtmEYxjySSXoa6f8AHzfXdvDV/gujh3xdiKaM1RbtLESsvgi8/GXDw8yUYXDU6cVCnFRjyXzfN9pkA9GlQhS6q/PryjTCnGGwABcTAAAAAAAAAAAAAAAAAAAAAAAAAAOoAx8SATlsdZjU96NigCMBEAA4zgABwAAAAAAAAAAAAAAAH//Z;" parent="1" vertex="1">
                    <mxGeometry x="220" y="210" width="65" height="65" as="geometry"/>
                </mxCell>
                <mxCell id="d6vL6DnrSCsX0hzZlt4e-54" value="" style="shape=image;verticalLabelPosition=bottom;labelBackgroundColor=#ffffff;verticalAlign=top;aspect=fixed;imageAspect=0;image=data:image/jpeg,/9j/4AAQSkZJRgABAQAAAQABAAD/2wCEAAkGBxAPEBANEBAPDhEQFhAPEBAQDg8QEBkQFxEWGBYWExYYHSggGhonGxYTITMhMSkrOi4vFx81ODMsNyg5LysBCgoKDg0OGxAQGjUiICYtLS84OC0tLy0uMCsvLi4tLy0vLy0tLS0vLy0tLS0tLTItLS0tMC0tLS0rLTctLS0vMv/AABEIAOEA4QMBIgACEQEDEQH/xAAcAAEAAgMBAQEAAAAAAAAAAAAABgcBBAUCAwj/xAA/EAACAQEFBQQHBgUDBQAAAAAAAQIDBAYRITEFEkFRYTRxsbITImKBg5HBMjNCUnKhByOC8PEUU9EkY3PC0v/EABoBAQACAwEAAAAAAAAAAAAAAAAEBQIDBgH/xAA0EQABAgMEBwcEAgMAAAAAAAAAAQIDBBESIXHRBSIxUWGRsTNBgaHB4fAyNHLxI0ITQ1L/2gAMAwEAAhEDEQA/ALxAAAAAAAAAAAAAAAAAAAAAAAAAAAAAAAAAAAAAAAAAAAAAAAAAAAAAAAAAAAAAAAAAAAAAAAABqWi30ab3Z1YQeu65JSw7tT6UbRCcd+E4zjzjJNfNHtlaVoYo5qrSt59wAeGQAAAAAAAAAAAAAAAAAAAAAAAAAAAAAAAAAAAAIJfa+is6lZrNJSrZxqVFnGnzS5y8O/TUvtfjDestjlnnGrXi9Ocab5+18uarYtJSRrrxE8M8ufGnntI2f44W3vXLP4mZ1Zbzqb0nNvec3JuTb1berZLNkbQqwjCtTnKnNpYuLwx71ph0ZEJkk2X9zT7vqy3uVKLsKB11FS5fMney75aRtMMP+5D/ANo/8fIlFjtlOtHfpzjOPOL0fJrVPoVMfWz1505KdOUqcl+JNp93VdCBG0dDfezVXy9vC7gWMvpeKy6IlpOS5L43rvLeBCNl3yccI2iG8uNSOCfvjx92HcSuw7QpV471KcZrjg/WX6k80VMaXiQvqS7f3fMS9l5yDH+hb93fyyqnE3AAaSSAAAAAAAAAAAAAAAAAAAAAAAAAD4160acZVJyUIxTlKUmlFJattgHuUkk22klm23gkupV99r6urvWSyyap5xqVVk584w5Q68e7XSvpfOVrcrPQ3oWZZN5qdTrLlHlH3vkoeXEpJWdeJt3Z/PPZRT2kbX8cLZ3rvw4ce/DbkGAWRTnmZJNlfc0+76sjUiSbK+5p931Zkh4/YbgAMqGkHuz1505KpTk4TjpKLwf+Oh4B5QFo7Dt3+ooQrNJN4qSWm8nhl0evvOkRy4vZP65+ESRnMTDEZFc1NlTtJWIsSCxztqogABpJAAAAAAAAAAOPtC8Vks0vR1q8YT/KlObX6lFPD3nDvhe9UN6z2dqVbOM6iwcafRc5eH7FZzm5Nybcm2222223q2+LLKV0esVLcS5O7epUT2lEgusQ0RV767E4XUv8UoXzZLVTrQVSlONSD0lFpo+5SOw9u17HPfpy9V/bpyzUl15Pr/gtTYN4aNthjTe7NL16Un68evWPXweRpmpJ8C/a3fmb5LSEOYu2O3ZZbTtAAhlgADR2rtKlZaUq9aShCPzcuEYri3yPURVWiHiqiJVT6W6106NOVarNU4QWMpS0X/L6cSn74XtnbpOnDGFni/Vp8ZNaSqfRcP3NW9N5q1vnjLGnRg/5VJPJe1LnLD5cOvBLqUk0h67/AKunuUE7PrE1If09fb4pkGATyrMgwADzMkmy/uafd9Wc7YewrRbqnoqMcUsN+pLFU4L2nz6askNs2erJOVlUnU9FuR32t3F4Yt4cM28jxr227Fb6GUWG5ISPpdWnkp8wYBtIpkGAAWDcTsnxJ+WJJCN3D7J/XPwiSQ5qc7d+J2Uj9tDwQAAjEoAAAAAAHKvLaJ0rJaKlPHfjB4NZNY5OS7k2/cdU+dSmpJxklKMk4yTWKaawaa5GTVo5FVKmL0VzVRFpcUAZJXe+6MrK3aKCc6DzazcodJc1yfz5uJYnVQ4rYrbbVqnzacTGl3wHWHpRfmzgej62a0TpTjVpylGaeMZReDTPhiMTM1JdeWjde+kLRu0LQ1SraRnpCb4fpl00fDXAmZ+e8SXbAvvWs0HSqxdohFP0bct2SeHqxcnjiscunuwKia0d/aDyyL+S0t/SPzzzQsLbu2qNipOtWlhwhBZznLlFf3gUveK8Fa31fS1XhFYqlTT9SEenNvjLj3YJau2tsV7ZWlVtEsZaKKyhGPCMFwXj1NFM3SsokHWW93TA1Tk46MtltzeuORkDEEwrwAe6NOU5KEIynKTSjGKcpN8klm2AeCXXRuTVtm7Wrb1Gz6p4YVJr2E9F7T92PCRXSuBGnu17Yoznk40MnCPWpwk+mnfwsMq5nSFNWFzyz5FzKaN/vF5Z5czU2fYKVnpxo0oRpwjpGPi3q31ZXN6u22jvj5EWiVZertto74eRGvRfauXh6oZaZREgsp/0nRTmAAvDnAAACwbh9l+JPyxJKRq4XZfiT8sSSnNTnbvxOxkft2YIAARiUAAAAAAAAAeJxTTTSaeTTWKw6lbXyue6W9arNFunnKpTWbjzlHnHpw7tLMBugR3QXWm/sjzMsyYZZf8Ao/PYLCvlcvHetVkjnnKpRitecoLn7Py5FenRwI7IzbTfdDk5mWfLvsv8Ny/PIAwDeRzzVpKWuvB8TRqQcHg/c+B0BJJrB5oxVtTYx6twOepGcT1Ws7jms1+6JLdC5da3YVam9Rs3+4168+apJ+bTvwwNMR7YaWnrQlwoToq0h3nJ2JsavbanoaMN55b0nlTinxnLhx6vDJMuC611KFgjvL+ZXawnWks+6C/DHx4tnW2Zs2jZaao0YKnBcFq3zk9W+pulHMzjouqlzeuORfysiyDrLe7phmAAQycCrb1dttHfHyItIqy9fba/fDyIs9Fdq78fVCn012Lfy9FOUDALw50yDAALEuF2X4k/LEkpGrhdk+JPyxJKczOdu/E7CR+2ZggABGJQAAAAAAAAAAK5vzfr0e9ZLHLGecateLxUecab/Nzlw4Z6bYUF0V1lpqjRmQm2nG5fm+0bKpWazNTtGk55ONP6OfThx5Oqadrk23Uk5OTbc5NuW83i3JvXPifFvHPV6niSL6XgNgpRvPec5MzDph2ts3bvfidMGjQr7uTzj4G6njmTEWpXOYrTIMA9MTJNbqX2lQUaFpxnSWEYVEsZxXJ/mj+666EJBqjQWRW2XoboExEgOtMXJcfmB+gbPXhUjGpCUZwksYyi04tdGfYpO7t5a9hl6j36TeM6Um919Y/ll1+eJa2xNtUbbT9JSlmvt05YKcX7S+ujOfmZN8Ba7W78/mB1EnPMmEpsduy+Xd51gARCaCrL19tr98PIi0yq719tr98PIiz0V2rvx9UKjTXYt/L0U5QAL05wAAAsO4PZPiT8sSTEZuD2T4k/LEkxzE5278TsJH7dmCAAEYlAAAAAAAA4l8fSf6C1+ix3vRy013fx4f07xk1LSoh45aIqkIvzfvf3rHY5+pnGrXi85c403+X2uPDLN12eTJ0cGC2E2y39nLRo74zrTv0DJgzFNtJJttpJJYtt6JLizaaTw0Se6d0rXbFKpBKlRwlu1KuKjKa0UMM2scm9Fnq1gSS5/wDD3HdtFujh+KFm8HV/+fnxRZVOCilGKUUkkklgklokuRWzM+jVswr13/NpbS2jrSVi7N3f7fKlB26x1KFSVGrBwlB4Si/Fc11PgXXeW7lK3U8JepVin6Oqli10fOPQp/amzqtkqyo1o7s45rjGUeEovin/AHmiZKTbY6bnbsitnJF8utdrd/opqAwCYQTJsWC21bPUVWjOUJR0lHwa0a6M1geKiLcp6iqi1Qtu6t8adrwo1cKNfJYY+pN+y3o/Z+WPCWn53J5dS/cobtC2Nzjko1s5Tj+vjJdde/hTTWjqa0LlllyL+S0ojtSNt357sSzCqr2dttPfDyItCjVjOKnCUZxkk4yi04tPRprVFX3s7bae+HkRhortXfj6oZ6Z7Fv5einKB5BenOnoHkAFjXA7J8SfhEkxGbgdk+JPyxJMcxOdu/E6+S+3ZggABGJQAAAAAAAABV9+biYb1qsUMs5VaEVpzlTXL2flyK2xP0yRPa9wrFaajrNVaU5Pen6KajGUubjJNJ92GJZS0/YSzEv4lXNaPtrahXcO7EqDZOzK1rqqjQg6k3m8PsqPGUnol1+pb90bmUbAlVnhWtOGdRr1Y46qmnpy3tXnongdrY+x7PY6foqFNU46yeblJ85SebfgdI1TM46LqtuTqbpWRbC1nXu8kwAAIROBydv7Eo22l6KqsGsXTqJLfhLmunNcTrAya5WqjmrRUMXNRyWXJVCh9u7GrWKr6GqtcXCa+xOPOL8VwOaXztbZVK10nRrR3ovNNPCUZcJQfB/4eKKgvLd6tYZ7svXpyx3KiWEZLk+Uuh0EnOpGSy653XDI5qe0e6Brsvb0xzOMDAJxWmQYB6Du3avVXsMsI/zKLeM6Unl3xf4ZePHpu7Yt8LTXnaae9uVXCUVJYSXqpNNc8UyIzO1YPu4d31NSQWI9YiJeqU+cje6M90JIarci1TzNgAG00AAAFi/w/wCyP/yT8sSTkY/h92T4k/LEk5y859w/E6+S+3ZggABGJQAAAAAAAAAAAAAAAAAAAAANTaFip2inKjVgpwlk4vxT4PqbYPUVUWqHipVKKUtey69Wwz3ljUoSeFOphmvZnhpLro/2UeP0JarPCrCVKpGM4TW7KMlimipL43RnY269LenZm9dZQb0jPpyl7nnreyU//k1In1dffr156e0f/jrEh/Tu3e3TAiwPILMqTzM7Vg+7h3fU4szsWH7uHd9T0yXYbAMA9MTIMGYptpJNttJJLFtvRJcWeHhY/wDD7snxJ+WJJzj3Y2e7NZqdKX285z/VJ44e5YL3HYOUmXo+M5ybKnZSrFZBY121EQAA0G8AAAAAAAAAAAAAAAAAAAAAAAAHzqU1JOMkpRkmnFpNNPVNcUfQAFU31uY7PvWqzJyoZynTWLlDqucfDuzUIP0aVpfW5OG9a7JHLOVShFac5U1y9nhw5K6kp+tIcVb9+efMo57R3+yEmKZZciupnasH3cO76nEkd2w0pbsKaTlJ5KMU3JvkktWXJSrsPqEsWks28klm2+SRKNkXLrVcJV36CH5cpVGu7SPv+RM9l7EoWVfyqa3tHOXrTfv4dywRXzGkYMO5NZeGznlUnwNGRot7tVOO3lnQhOybm2irhKr/ANPH2ljNrpHh78O4meytgWazfdwxl/uS9afufD3YHXBTR5yLGuVaJuT13+N3Au5eRgwL2pVd63r7eAABFJgAAAAAAAAAAAAAAAAAAAAAAAAAAAAAAAABwrbdWxVZurOzw33m5Rxg2+LeDSb6m7s7ZVCzrCjSjDHV5yk++TxbXvOgDYsWIrbKuWmKmtsGG11tGpXfRK8wADWbAAAAAAAAAAAAAAAAAAAAAAAAAAAAAAAAAAAAAAAAAAAAAAAAAAAAAAAAAAAAAAAAAAAAAAAAAAAAAAAAAAAAAAAAAAAAAAAAAAAAAAD/2Q==;" parent="1" vertex="1">
                    <mxGeometry x="375" y="215" width="79.25" height="79.25" as="geometry"/>
                </mxCell>
                <mxCell id="d6vL6DnrSCsX0hzZlt4e-55" value="" style="shape=image;verticalLabelPosition=bottom;labelBackgroundColor=#ffffff;verticalAlign=top;aspect=fixed;imageAspect=0;image=data:image/jpeg,/9j/4AAQSkZJRgABAQAAAQABAAD/2wCEAAkGBxAQDxAPDw8SEA8WEA4PDxAQDw8QEBATFhYXFxYXGBcZHikhGRsmHhYWIjIjJiosLy8vGCA1OjUtOSkuLywBCgoKDg0OGxAQGy4mIR4wLi4uLi4uLi4uLiwuLi4uLi4uLC4uLi4uLi4uLi4uLi4uLi4vLi4uLi4uLi4uLi4uLv/AABEIAOEA4QMBIgACEQEDEQH/xAAcAAEAAgMBAQEAAAAAAAAAAAAAAQYCBQcDBAj/xABIEAACAQICBQYICgkDBQAAAAAAAQIDEQQFBhIhMXEHMkFRgbETFiJSYXKR0SM0VGNzdJKhssEXMzVCU4KTlPAUJaIVYsLh8f/EABsBAQACAwEBAAAAAAAAAAAAAAAEBQIDBgEH/8QAOREAAgECAgcFBwIFBQAAAAAAAAECAxEEIQUSMUFRgcE0YXGRsiIyUqGx0fBC4RMUFTOCBiNTwvH/2gAMAwEAAhEDEQA/AO4gAAAAAAAAAAAAAAAAAAwqVFFNyaSW9t2SKdpBpzTpXhhkqtTdrP8AVr3njaRvw+Fq4iWrTjf6Lxf53Zl0BQsh0+jK0MXFRe7wkFZPjHoLvh68KkVOnJSi9zi00E09hlisHWw0rVFz3PmewAPSMAAAAAAAAAAAAAAAAAAAAAAAAAAAAAAADXZrnFDDR1q1RRfRFWc5cEDKEJTkoxV29yNiV/PNK8Phbxv4Wp5kGnbi+gpOfabVq94UfgaW7Y7Ta9MujgiqylrbZbTVKpwOiwegW/axD/xXV9F5o3Gd6S4nFS8uerT/AHaULqK4+niacA1nSU6cKcdWCSS3IGwyjPMRhZa1KbSv5UG24vijWgHs4RnHVkrp7mdYyHTOhiLQqWo1ditJ2g36H0dpaUz8/FiyLS/EYa0W/CU/Mm5PVXo6jYqnE53GaCT9rDv/ABfR/fzOwA0+S6Q4fFJeDnadttOdlNe/sNwbU7nN1Kc6ctWas1uYAAMAAAAAAAAAAAAAAAAAAAAYuVtr2IAyPnxeKp0oOdWcYQW+UnZFZ0g01o0Lworw1XcmnelF+l32v0L2nPM2zmvip61Wbl1R3KPBGDqJbC4wehq1e0p+zHv2vwXV5Fwz/T616eEjfenVmtv8q/NlFxWJnUk51Jym3vlJts8ganJvadVhsHRwytTVu/e/F9FZdwABiSQYmRiegkgkAxIAAPTOnNxalFuMltTTaa7S6ZBp5OFoYpOpHd4RK9T3SKT/AJYf5wJmFw0qj1tiKXS9fDqH8OcVKW7u779N+9WO6ZbmVHEQU6NRTj6N69DXQfacGwONq0JqdKcoS64u1+PWXzR/T6MrU8YtSW5VYryX6y6OKJFXCSjnHP6nJunwL6DyoV4VIqcJKcXtUotNM9SIawAAAAAAAAAAAAAVbT/MatDDLwU3CUp6rkt+rqvYuo8bsrm7D0XWqxpR2ydj7M90lw2ETU5a9S2ynCzkvWe6K4nOs90rxOKvG/g6e7Ug5RUu3pNFKTbu223vb2tkGlzbOzweiqGGtK2tLi+i3fXvAAMCyAAAAIIPQSQBcysa3JXJBBFxYOSRJP8AlveO/uIJ2Fwev7U9n1KjSOlVR/26Xvb3w+787bySCQWuzI5q+s7vawADy5lY2WT55iMLK9KbUf3oPbCXYdFyHTXD4i0KvwFZ7LSfkSfol0dpygNmuWGVZ2tmzTXcIQc55Jbz9AgoXJlmNWoqtKpNzhBQ8GpbdXfsXoL6V2IoOhUdNu9uqv1IdCsqsFNb/vboAAaTaAAAAAACl8p3xan9J/4suhTOU34tT9d/hZjP3SdoztlPxOYkhAjnegAABFIxGluIhOcdSnZTml5PU7F3jvXE5PmX66r9JU7zZBJlLprEVaFODpyau3s5G88c8R5lP2DxyxHm0/YyNCND62a1p0aE4QlGn4RupezV7dBdf0E5h/Hw/wDzNmqjnf6pi/8AkZS/HKv5lP2MeONfzafsZutLeSvF5bhZYqtVoyhGVOFoa2teclFb+JQJKza7D2x49JYp/rZZfHHEebT9g8ca/wDDp+wrdON2l1nUcg5G8Ri8LQxMMVRjGrTjUUZU6jkk+uzPTH+oYn42VRaZV/4dP7yfHSt/Dp+1mpz7K5YTE1sNKSlKnUnTcoppPV6Uu01jN38xU4kb+JLiWlaaVv4UPay703eMX1xi/ajj6OvYfmQ9SHciXhqk531nw6myk7vMzAJJRvbSV2DBsNgtsNQ1Fd7Tk9I4515aq91fly+clPPxHCB0c5xyU8/EcIHRzndKdrny9KLHR3Zo8/UwACATQAAAAAAUzlN+LU/Xf4WXMpnKb8Wp+u/wsxn7pO0Z2un4nMkAgRzvQAABHeuJyfMv11X6Sp3nWI71xOT5n+uq/SVO820zn/8AUP8Aah4voWDQHTCplVedalShVlOn4K1RySSve+xH6f0RzWWNwGFxc4xhOrSjUlGN3GN+hXPxxR5y4n645Mf2Ll31WmbTlDjnKjyjV8SsVlk6FKNOGJ1VUjKeu/BTTWy1ttkcpk7tvtN9p5+08d9bxH4ivgHrh+fHifrbk1X+0YD6vTPyTh+fHifrfk1/Y+A+r0wD81co7/3TGfWav5FYLPyj/tTGfWK35FYAJR16gvIh6se5HIUdew/Mh6kO5E7B/q5dTdRV2ehDYbMGXuFofrfIptKY7WboweW98e77hkEgskigbL7yU8/EcIHRznHJRz8RwgdHOS0p2ufL0o6XR3Zo8/UwACvJoAAAAAAKZym/Fqfrv8LLmUzlN+LU/Xf4WYz90naM7XT8TmJJCNhgcucrSnsj1dLIdWrClHWkzu5SUVdnz4XCSqPZu6WbeGX01Gzjf0u1z6qcFFWSsjIpa+MnVeWSX5mQ51pSNZUypfutr0M4nmsbV6y6VWqr2SZ+gEcBzv4ziPrFf8TLDRlec5SjJ3yKXTU5SpRvxZ8+EoSnLyIuVtrsm+4/WfJnFrJsvTTTWGpppqzTOH8iOb4TC4ytPGVqVGDw+qnVaScta9tvSdujyg5MlZZjhkuhKpFIuDnD816eYaf/AFDHTcJKP+rr7XFpbZbNpGhmiGJzSv4HDpK0depOd9SnHbZyt1tWXadf5XNKssxOV1KWGxdCrWdbDyUacoubSqJyfsKlyT8o9HLdfC4qklh5zc/9RShepCX/AHpbZw6mtsep3AKbjtEMfhsSsPPC1XU1rLVpzlGW2ytJKzT/APp+pNDsunhcvwmHqc+nRpxn6Hbaj5qOnGVTh4VY/D6i3t1Iprse1FD5QeV/DwoVMPlk/C15pweJtalRT3uN+fO2xdC3vdZgce08xMauY4ucHeLxFe3ZK3emV0zqTbd37zAAlHXaHMh6kO5HIkdcocyHqQ7kW+iqalKV91upBx2IlShaO2W/u3noQGQdHFHOsgkA2GBfeSnn4jhA6Oc45KefiOEDo5yGlO1z5elHTaO7NHn6mAAQCaAAAAAACm8pUW8PTSV26mxfysuRWtNF8HD1n3GnET/h0pT4ImaPlq4qm+857gctUfKntl0LoRsRYHK1KsqktaTOtlJyd2CSLAwMSTgOdfGcR9PX/Ezv6OAZ18Zr/T1/xMttEe/Lw6lRpj+1HxPhjJrcZeGl19x5gvTnzOVRvY2YpkAAz8I+v7kRKTe8xAAAABKOt0OZD1IdyOSx6eB1uhzIepDuReaFWc+XUqNKvKPPoZmJJDOgRSskGJkZmJfeSnn4jhA6Oc45KefiOEDo5x+lO1z5elHTaO7NHn6mAAQCaAAAAAACt6Zfq4es+4shXNMV8HD1n3EXG9nn4MlYLtEPEpxlYysLHJXOruYMwPSZhY9TPUJy1YuXUmzgdan4TFTi3zqzTfrTtf7zuWcVNWmo9MpJdm9nB8bNqvUabTVSbTWxppux0uiaWrhnU+OT8o5L53KHS07uK4HcP0C0fl1T+jT9w/QLR+XVP6NP3HJfHTMPlmK/uag8dcw+WYn+5qFiU51r9AtH5dU/o0/cafS/kcpYHA4jFxxc5ulTc1B0oJS9F0c98dcw+WYn+5qHjjNKcbWpypVMVXnCStKM685RkuprpANLNWdjElsgAAAAyj08DrNDmQ9SHcjk0engdYocyH0cO5F9oPbPl/2KbS/6OfQ9CQQdAUpIAAL7yUc/EcIHRznHJRz8RwgdHOR0p2ufL0o6bR3Zo8/UwACvJoAAAAAAK7ph+rjxZYit6a3VGEkr2mrrptZ7vYacRRnWpSpwV3JWRtoVI06sZzdknmVQHlQqxl07elPeuw9ZLqOOqQlTm4TTTXHI6yE4zSlF3T3rYebZEUZ6hMY2MdayNlzRZ7WvUUV+6vvZT6uimGlKUn4S7bk/L6W7lixdXXnKXXJ24dB5H0nDYWNKjCk17qS57/nc5yvNVJOTNB4oYX5z7ZHijhfnPtlgsSl/jJkcLF7Yoqq2NoQyWb7vvsK+tD8L859oyWh+F+c7Jm+Fzb/KUvhRW1MdOeyyXdt8zQvQ/C/OfbMPFDC/OfbRYbmLZuhhaW+K8kRp4mp8TK/4o4X5z7aI8UcL859tFhIN6wlD4F5I0PEVfjfmV/xRwvXU+2jeRjZJdCSS7Nh6Cxvp06dK+pFK/A0TnOp77bsYgyIZuUrmtxsQDEyhBydkrsyyirsx25IvvJRz8RwgdHKHyZ4Nw8PKW96mz2l8OQ0lJSxU2tmX0R0+Ai4YeMX3/VgAEElgAAAAAA02lGGnUoJQi5NTUmlvtZ+83IM6c3CSktxjOOtFx4nKK+HTe1OMl0rY0Qq0oc/yo+clt7UdFzLJqNfa1qz6Jx39vWVHNMlq0LtrWh50dq7eomVaWFx8VGrHPdxXg9vLfvTI1KricHLWpvLfwfivtmfBCakrp3XoPDMaupSm/RqLt2fmRKhZ3g9WXfxRr84q1HFJw2LypNbU7bihh/pudLF03fWp3Tb2NJZ2a33eV1xzSRdPT0J4eWVp2yW1N93htz3bGzT2JCZJ28YpbDlKtepV993+nlsAAMjSDFkmLM4xuzyTsiWYgk3RVjTJ3IIJINhgSCCWEg2DHefThsFOo9isus3WDy2ENr2y9JrniIQyWb+XmZxoSnm8l8/I1eDyuU9stiN1hcHCGyK2m1y3K6td2hHyemT2RRbssyClRtKS8JU86S2LgirxWNSftu74L8tzZY0ML8KsuP59D49EMLOEakpxcVLV1b7L2v7yyAFJVqOpNye8tacFCKigADWZgAAAAAAAAAxavse1GQANBmmjdOpeVL4OfV+4/cVTHZfUpPVqQa9O9PgzpR5V6EKkXGcVKL6GiXRxk4ZSzXzI9TDRlnHJnIcXlUZbYeS/uNPWoTg7SVvT0M6hmejLV5UHdb3Bvb2PpK1icJvjONnuaasy0pV4yV4PkV9Sk4u0kU8k2+Myh7XD2GoqQcXZqzJsJKZEmnDaQQRcG9QNWsCCQbEamQCYRbdkrs2uCyiUts9i6jCdWMNvlvM4U5T2Gto0ZTdoq5uMHlCW2e19RtMPhFG0YR2+gsWWaNTnaVZ6kfN/ffuK+virK8nZcOPVk6jhs/ZV3+cjRYPBSm1ClBt9SRacr0YjG0q71n5i5q4vpN7hcJClHVpxUV974s+gqKuMlLKGS+f7FlTw0VnLMwp01FJRSSW5JWRmAQiUAAAAAAAAAAAAAAAAAAAAAD48dl9KsrTjt6JLZJdp9gPU2ndHjSasyk5lkFSleUPhIda5y4o0GJwUJqzW06qanMckpVrtLUn5yWx8UT6WN3VPMh1MLvh5HJMblU4bY7Ua1rrOiZhldWi7TjePRJbYs0eMyuFTatjLijiss81x3/uVlXDZ5ZP5fsVg+3B5ZOptasjb4PKIQ2vazdYHAVKr1acL9b3RXFntXFu2WS4/mw8p4ZXzzfD82mswmXwprYrs3mW5JVrWdtSHnS/JdJYMt0fp07SqfCT/AOK7Ok3ZUVcduh5/+9Szp4XfPyNfl2VUqC8lXl0zltf/AKNgAV8pOTu2TUlFWQABiegAAAAAAAAAAAAAAAAAAAAAAAAAAAAAGEoppppNPentTNFmWjsZXlR8l+a9z4dRYAZ06kqbvFmE4RmrMrOWaN28qu/5F+bLFRpRglGKUYrckrHoD2pVnUftMQpxgvZAANZmAAAAAAAAAAAAAAAAAAAAAAAAAAAAAAAAAAAAAAAAAAAAAAAAAAAAAAAAAAAAAAAf/9k=;" parent="1" vertex="1">
                    <mxGeometry x="485" y="214.25" width="80" height="80" as="geometry"/>
                </mxCell>
                <mxCell id="d6vL6DnrSCsX0hzZlt4e-63" style="edgeStyle=orthogonalEdgeStyle;rounded=0;orthogonalLoop=1;jettySize=auto;html=1;fontSize=12;startArrow=none;" parent="1" source="d6vL6DnrSCsX0hzZlt4e-64" target="d6vL6DnrSCsX0hzZlt4e-62" edge="1">
                    <mxGeometry relative="1" as="geometry"/>
                </mxCell>
                <mxCell id="d6vL6DnrSCsX0hzZlt4e-61" value="source code&lt;br&gt;(Welcome.java&quot;" style="sketch=0;aspect=fixed;pointerEvents=1;shadow=0;dashed=0;html=1;strokeColor=none;labelPosition=center;verticalLabelPosition=bottom;verticalAlign=top;align=center;fillColor=#00188D;shape=mxgraph.mscae.enterprise.code_file;fontSize=12;" parent="1" vertex="1">
                    <mxGeometry x="86" y="410" width="49" height="50" as="geometry"/>
                </mxCell>
                <mxCell id="d6vL6DnrSCsX0hzZlt4e-68" style="edgeStyle=orthogonalEdgeStyle;rounded=0;orthogonalLoop=1;jettySize=auto;html=1;fontSize=12;" parent="1" source="d6vL6DnrSCsX0hzZlt4e-62" target="d6vL6DnrSCsX0hzZlt4e-67" edge="1">
                    <mxGeometry relative="1" as="geometry"/>
                </mxCell>
                <mxCell id="d6vL6DnrSCsX0hzZlt4e-62" value="compile code&lt;br&gt;javac&lt;br&gt;(Welcome.class) / bytecode&lt;br&gt;" style="image;html=1;image=img/lib/clip_art/general/Gear_128x128.png;fontSize=12;" parent="1" vertex="1">
                    <mxGeometry x="320" y="395" width="80" height="80" as="geometry"/>
                </mxCell>
                <mxCell id="d6vL6DnrSCsX0hzZlt4e-64" value="javac" style="rounded=1;whiteSpace=wrap;html=1;fillColor=#b0e3e6;strokeColor=#0e8088;fontStyle=1;fontSize=12;" parent="1" vertex="1">
                    <mxGeometry x="170" y="415" width="130" height="40" as="geometry"/>
                </mxCell>
                <mxCell id="d6vL6DnrSCsX0hzZlt4e-65" value="" style="edgeStyle=orthogonalEdgeStyle;rounded=0;orthogonalLoop=1;jettySize=auto;html=1;fontSize=12;endArrow=none;" parent="1" source="d6vL6DnrSCsX0hzZlt4e-61" target="d6vL6DnrSCsX0hzZlt4e-64" edge="1">
                    <mxGeometry relative="1" as="geometry">
                        <mxPoint x="135" y="435" as="sourcePoint"/>
                        <mxPoint x="320" y="435" as="targetPoint"/>
                    </mxGeometry>
                </mxCell>
                <mxCell id="d6vL6DnrSCsX0hzZlt4e-66" value="java" style="rounded=1;whiteSpace=wrap;html=1;fillColor=#b0e3e6;strokeColor=#0e8088;fontStyle=1;fontSize=12;" parent="1" vertex="1">
                    <mxGeometry x="425" y="415" width="130" height="40" as="geometry"/>
                </mxCell>
                <mxCell id="d6vL6DnrSCsX0hzZlt4e-67" value="os native code&lt;br&gt;" style="outlineConnect=0;dashed=0;verticalLabelPosition=bottom;verticalAlign=top;align=center;html=1;shape=mxgraph.aws3.run_command;fillColor=#759C3E;gradientColor=none;fontSize=12;" parent="1" vertex="1">
                    <mxGeometry x="580" y="400" width="100" height="70" as="geometry"/>
                </mxCell>
                <mxCell id="Mujl-81metIkKJXt9XZx-1" value="Java SE" style="rounded=1;whiteSpace=wrap;html=1;fillColor=#e6d0de;strokeColor=#996185;verticalAlign=middle;align=center;fontStyle=1;gradientColor=#d5739d;" parent="1" vertex="1">
                    <mxGeometry x="100" y="580" width="100" height="50" as="geometry"/>
                </mxCell>
                <mxCell id="Mujl-81metIkKJXt9XZx-2" value="Java EE" style="rounded=1;whiteSpace=wrap;html=1;fillColor=#e6d0de;strokeColor=#996185;verticalAlign=middle;align=center;fontStyle=1;gradientColor=#d5739d;" parent="1" vertex="1">
                    <mxGeometry x="260" y="580" width="100" height="50" as="geometry"/>
                </mxCell>
                <mxCell id="Mujl-81metIkKJXt9XZx-3" value="Java ME" style="rounded=1;whiteSpace=wrap;html=1;fillColor=#e6d0de;strokeColor=#996185;verticalAlign=middle;align=center;fontStyle=1;gradientColor=#d5739d;" parent="1" vertex="1">
                    <mxGeometry x="440" y="580" width="100" height="50" as="geometry"/>
                </mxCell>
                <mxCell id="Mujl-81metIkKJXt9XZx-4" value="" style="html=1;verticalLabelPosition=bottom;align=center;labelBackgroundColor=#ffffff;verticalAlign=top;strokeWidth=2;strokeColor=#0080F0;shadow=0;dashed=0;shape=mxgraph.ios7.icons.calculator;" parent="1" vertex="1">
                    <mxGeometry x="109" y="640" width="82" height="60" as="geometry"/>
                </mxCell>
                <mxCell id="Mujl-81metIkKJXt9XZx-6" value="" style="dashed=0;outlineConnect=0;html=1;align=center;labelPosition=center;verticalLabelPosition=bottom;verticalAlign=top;shape=mxgraph.weblogos.chrome" parent="1" vertex="1">
                    <mxGeometry x="280" y="640" width="74.8" height="75.4" as="geometry"/>
                </mxCell>
                <mxCell id="Mujl-81metIkKJXt9XZx-7" value="" style="html=1;verticalLabelPosition=bottom;align=center;labelBackgroundColor=#ffffff;verticalAlign=top;strokeWidth=2;strokeColor=#0080F0;shadow=0;dashed=0;shape=mxgraph.ios7.icons.smartphone;" parent="1" vertex="1">
                    <mxGeometry x="467" y="646.5" width="43" height="47" as="geometry"/>
                </mxCell>
                <mxCell id="Mujl-81metIkKJXt9XZx-8" value="" style="shape=image;verticalLabelPosition=bottom;labelBackgroundColor=#ffffff;verticalAlign=top;aspect=fixed;imageAspect=0;image=data:image/png,iVBORw0KGgoAAAANSUhEUgAAAOEAAADhCAMAAAAJbSJIAAAAtFBMVEX///892oQAAAC5784u2H7n5+fMzMwJCQlqamo32YF9fX3AwMCtra25ubmFhYUSEhLt7e0sLCzm5uby8vKk68D0/fj5+fkoKChhYWH5/vs+Pj5RUVEzMzNG3Irs+/Mm2HrT09Pc3NyTk5PW9uNm4ZzK9NyU6biK57GKioofHx9nZ2chISFXV1dLS0uhoaGzs7NV3pJz46Os7sjg+evO9d9/5q2O6LSq7cVR3ZDB8tR0dHRDQ0P7adx9AAAJiklEQVR4nO2c6VrqMBCGW6hIZacsAi27KCKbLEf0/u/rtEmXpCvYhPTxmfcXNjDJl2VmkrZKEgAAAAAAAAAAAAAAAAAAAAAAAAAAAAAAAADch94d6hjeoY4oFrJ8anOu47iTdy+c64jkU5Fl5ZVvHUNDlVX5HlMljLkqy/LowLWOs9mLsnLhWkc0J0uhuufZwbORbCmccawijqMqc+7g3h514o5fDQmcrCmkfvFzNherAlkV5mmkoYwGscXLfntnDaFy4mX/ClqojxVeEauFloHK15clgAeRU8Roj/hOkau4YGdz5GL8FbkZg4vt68HObs7D9AzP0TwP27c0A69EHs2Y8+u8mzhjiezDfl4RGuw92iond4CcmMo57b0KHDFk1hGDcyC6hTZeL3u2Vg/YzYiNFA5cUiuc1e947z6vZJ8ct3rD40s+37L5zOePs9j594KGcCRq1+TngJfMZ1hZ+3D8PM1lVVVoVBNjv7hECP3iMfNTcEY9bvgb2561TjvDUiOHY8pWv+av+aE/1tiRQmhCSjE0UIPO5LXDv70xihZHyDR17s4XcsUNv3imu78C97nsROfebGENXaI4WmXeHbIz3ndmIVI49MgMa9iaq8r16lyVirHHIzlDf4eva2Ec0UZnZEaMy/6m0aNFjozFwfHNO1EHbBHYrTJn52/lYZTRHmczI/EJKc3BwDMtlTzZs5GhSOHQYiCOwMhOpLBpM1b4Je58LZTe5Svd8gugqqcsjeJhn9K/hKHI2dhYmPRaI/b6kMavbPjT2Z7tCiRQ5YVodSb5K1LP36PMRa/G9mnEUZ9sRUexyduBtQsNQVkI3Oi/yPwFmhL3wiQuOM9QB1XQVri34OZDAxJlPjdGEgTy9jGURAF3L3rzu40gYnRvicM7C7z7PagevzwmGxJFCLzrRO2dRAg0R/FuR+D3CxM+hcadggbj3fwtEpnfwwvlIkzgnW5GWQ8LiuMOJ/34MSWBErkfbbyKFWhOVM7eRuQitBVyfFDQZCh6BGXeD/KdMqCQa+DPx8xRFd24ZqLAtBR3/qoa3OZp3BxVdq2X2WVhpF+nyvzzOMu/xvQWv5ARM0eVFu7X4WtaiYadXx/mMbVxuqkxi2488WRPyqzce46tHS1RnXO5e9qLqZG42ddLlRKQAf0QM4hcDlFj3Az1AGGcO0qEejrhHC2Rh7PpxRz+Uu1KEzPpO78x6YXyj73CfzGrkHqpBD8M8zsU6k7MLOY0T2W+j2obMbXNqcd9Yr6ZBP046TFmvivM70rFri7qea9DinVIP/P8GZdgsH6eKMZ1y77HvNOdcRDn9/iVoMg6GW+j4vcUZIfOUkxS2tUkOGWDbUyMHUKyYWl3yJ6TTOoqtgn4LKnZiv2e5yX1GYeyRxO1HeO7bYVM31NYJLZbVb9eFyeDwe5Clefnxf6KnmL5bmfvqpYx2jxdbYllwBB/dhGGumMXMDKxtQ/C7oWyNFkKT1RmJzbZnKQyw5AYm1uIhNVbLL2MTlJ23vQlq0PI7DV2cXfTEhmxiRcJOalIGL27mt0hlNVzcvOTiTtLEA19uvBbEpN8kTB5pF/4HcM4WLwIHX9+IRoWR8NZTUoxLFLTNEdn/GGx0X/JtEKZwX/NyHBGYxF4Nfd2Ym6PZIL0zjSzWycMgzNFY6RkGQaPZF7y2Ub0OzUAAAAAAAAAANyXSdFCu/Vn4/fBoBJepCGLk7QNY0YhZ9G88VcT9KtyaNkDKiukbxojkMLHhxt/VUQqcqFlD7U/oLDez0UP/Z9Q2Hn+62MolZDAamjZ31AobfRat9oJLfojCiVtHOV//4rCaEDhvcm8wk6hYjK2Pmp1E5x+oY+WH3gomaWl4IpputdJhdav6qi4UBr7vlwpUJld3akhaJGpQm2KQ+9jf9uRvru63n1D15/Mj6upNPnuouJVkdZYeMbXl+8TUuF4qeuN9YM0fl55sa5TGqxw8NOfiFzz0fxqd0xYxF9amRZZKizghiIGGsqknlAB+vg2fnRLayXvV50n71e5zcRTiMR261symk8+iC/b1i2o3JO2qLFTOCUrz9XWPoVrqtitsdmgrq9rtML+JkcorORo9HqIQk2nvvO9ZKWwnAuBUEizstvW0YNlpMLVklC4DXxzXQ8o7PTDGsJAYdPp1mmpNHWa5Vf4USmV7bIN/lnVLilWSpXnEIUu5oWJPc2XT5WN8911QOFbmEUWCrGxpb3AtssQhfoY/TVFf/SR5xvjkm/sBrXvMIWNsllq2cXDreMqOlOypzwVBdqi07npFeKmNlz3NqkFFToe9N36ozb2+mXqmnkLKmw4aw0vQt2NEuTfngq/xSorhVW/nW1A4cYpwjsBayiayKmviUCmBxSOnSJkpUaEiKprx1PYRJNn4Fm0F3p6hShQfJBXGj6F3bpb5Las4rXRpuJX+OyUaESX2VeQmndKYYTF9ApxWKUOSqY+hQOvyG0F+g61cUWtJhW6TcNnMdSJEhrENaUQWXykLLKJh77WuJcIhUTvuwqffdJNfnwKXUll30QwQbESxUS3+qIr2qXPS+HYp5DYgbsK19Q8RKxphV03wZu6clzQgl5OSIU/7sR1+RGp8COwev1j2HC3GWjAGpTCbXAMQyyyGUMcjKkz2e0VClECWaMsdaMUYg9M5exoWPsaqRBZXAYsMvClK58ISRpcoXAbaDWxt/ApxL6UdGZa3x0wV2GFXrxS6PT6FTjnJ+YQTgESFOLayY4pRirsoEWrE7ETj+qGUog3MAGLDBTivit6FwbXKMRrhAhfuNGhCvFCJMw0u94M8FT0fYKwRQYKcQ/nvu2cqo4FJirEG5La1i6w9yfhCju40Dk0tPPwJ88iUmHvP3wWWWTe9tZttZk8NCcbZ3ORpLBj98R7ofnQLDjb23CFTmv16WQyKTgpteZTqIVaZLI/fHeMNYitfpJCO1OxxpHYKEYolL5zASqExUK0RTZ7/AFdt36VQmeduOIeYxQGJVZIi4VQizq7UwytShouvXsK32MUSgWyqz8qsQql6SNZh73h9CmUSpTFMcuztoprel3Arg8rrPoUPpMKpbo3MtOOhgIr8o9169PSd/Q4cRdDrjb1DhTpqE5ZlJid0yAK0+JP/3s6tj6XyuWybXhrfhx73+pUzL+JptfL1Y/+oLq1Wtw0i8rYXVoft4HbLQ/l6nPfrIPcIUma9SsiGtsWkaGmryw1nfBbQIk/Y17H79oBAAAAAAAAAAAAAAAAAAAAAAAAAAAAAAAAAAAAAJngPwc7w94LEtaDAAAAAElFTkSuQmCC;" parent="1" vertex="1">
                    <mxGeometry x="530" y="635.4" width="64.6" height="64.6" as="geometry"/>
                </mxCell>
                <mxCell id="Mujl-81metIkKJXt9XZx-10" value="" style="sketch=0;aspect=fixed;html=1;points=[];align=center;image;fontSize=12;image=img/lib/mscae/VirtualMachineWindows.svg;" parent="1" vertex="1">
                    <mxGeometry x="86" y="820" width="97.83" height="90" as="geometry"/>
                </mxCell>
                <mxCell id="Mujl-81metIkKJXt9XZx-11" value="" style="sketch=0;aspect=fixed;html=1;points=[];align=center;image;fontSize=12;image=img/lib/mscae/VM_Linux_Non_Azure.svg;" parent="1" vertex="1">
                    <mxGeometry x="250" y="820" width="86.96" height="80" as="geometry"/>
                </mxCell>
                <mxCell id="Mujl-81metIkKJXt9XZx-12" value="" style="shape=image;verticalLabelPosition=bottom;labelBackgroundColor=#ffffff;verticalAlign=top;aspect=fixed;imageAspect=0;image=data:image/png,iVBORw0KGgoAAAANSUhEUgAAAPEAAADRCAMAAAAquaQNAAABBVBMVEX///9NZsyJodQAAABXbs0JCY/5+v09Wsl/mtGXo95FYMptgNNJY8ucr9qFntO2xOSmpqaNptsAAItSasxPaNA/SmI3SZHl5eXx8fE8PDwyQrAsOqpMWXVWZYWurq75+fm5ubnV1dXd3d3Ax+rLy8tYWFiVlZWHh4eosuO2vufl6PbCwsLv8fp0dHTY3PJHR0d7i9ZqfdI1NTXL0e4qKipoaGicnJxRUVElMKN9k8J1ibUTExOLmdqfquBWVlYiIiIzO04qOHBhcpZBVqxsf6cdJZx3iNVZZqFEWrMUGzY5S5cVGSExQIE7TrkLDx8dJkwpMEAdISwkMGAWHJgNEiQ0VMhbY3V4mLz7AAANX0lEQVR4nO2dC1faWhbHjYl0iJl70egFvMpDkJeiIOKjaK1Wmbm2tr3tzHz/jzLnleQ8QxIqcCD/1bUqJMr5nb3P3vs8gLW1VKlSpUqVKlWqVKlSpdJWh/NuwKxVMIvlebdhtro3TTM/70bMUkcmVH3ezZidGgjYXB2/rmPg1fHqgrlqPl1EwI15N2N2aiLgo3k3Y3Yig3jezZidyhh4hUquIQLOzbsZs1MFAV/NuxmzU3nVSg9Nq8tMfzOp/oWAd/8ZR5l58wLid05SYZ9e/209uv6xEMRGMu38QMBPWzGAtSbe+TcC/hgLWG/ivxDxTSxgnYl3XhDwQTwTa02MgD/HBNaYeOdLgrClNbGRJGzpTLzzkCRs6UyMTbwb28TaEic2sbbE2MT78U2sKzEJ1EI9vQWlN/HrNdBrVBNvPe4CPWlNvLcN9Kdg4j/ko3hrf3IVtvjEGxsS4q/yQL20xDufFIF6eYm/QbDvItiyEpN5saSiXlpinJokXEtL/FXFtaTEyri1vMQPiri1vMTIxI+rQ0ycWkqzHMR8lYmdWr72sQzEjg3FEH9WOvX6+s17oPBJ86ITCyLlR5x9F92Jvygj9bISf0uyLK8zMV4LeJ8YWDtikpuSm1g/4i/J1uU1Jp52GOtHPO0w1o7YUJeYy0mMA9ffUzi1dsRfEu426Uv8Y9rApR0xOvoRvumwZMRJdxS1JZ4+VGtGjKeKsQ+76Ez8acqpon7ELzg5SbSsxCgd/70rUeTCU0diqZbVxg8q4OjzR82If6iIFWub+hN/UxFHL0o0I375g9fLQ8wUrRexsSPqIeZsSjNiSR/8FW8YLwFx3LmF7sRkUyZG3ak98UvcSntRiSUHE+XEoctAsqcXlPh1e+N1JxLxg3oZaGv9QLLOu6DEGxsb29t/OpOhcU0ie7ME5JX5+2ISAxMj5ueJzo2Tk2DJra2bfUX5uZjE24gYMm9fvxpuGPFXMTmByfLjd+WkajGJ3z17zBD6ec9WUnPpGK4N3BwEuKa5z58mWExiY8e+9pkh9Mbz3qttyIY1tiNZB7l5OvjITDB2bzQZx0Cus7cRQEPq7Y2f13sA3HFQnwCB//D7cZ8eD/Z3P37mJ1QS3gUmhnq93qagCTdS8Fg1fTQ/H0jT8WITI+gNjpqTHHe0/1612LfoxED23vO2mlqC+/HgJmRtUwNiMKYB9fVP1qHlxN/3H9+vhy/lakGMtGM4r697188/g9G87Y3j3d39g8en9+tRFq71IfbsDTOz4zg2+kdnp0mouhLzlmcrkFUg/g8kjnMSRnvi2Fvo2hOjNfsYC3v6E4esCCwpMXrPZpzDP9oTf4LEcQ54aU+MV2+jA2tPvHor9Ku4C4OCdYyPUNCf+CVm6NKfOG7oWgji/9rTCK3fPv0WVQtBfJudRmgp/n+/R9YCEE+pY0h8P+9WzFL4Q0JX59O6ga4g8eW8WzFL5SDxxbxbMUvhD2VfoY9zXls7g8TNebdiliohI8+7FbMUjtaVeTdjlupC4uK8WzFLVZGRq/NuxiyFvlFihb5fwfs0+pVKUCO4aazbh7NPpZI5Ks27DTPWCn2hRKpUqVKlSpUqVapUqRZO+u9Kra112tlx37L6vbvaSdh9mVq2b9i27faztSTczfMi0YV6S+joCujs7KxYPEvwElF0cmehD9x0Xce2HbvfVrFksvBoq+saDjzs6mRDO0eqYXDoWbklVKVORsd+gSg6ubUNx2qdwuZnOrVbxzCclvTOgeE64wHsjk6tb1iWa7fjvlih3hgRGOWWUNPnvR/G/ftR1LZd1xpQT2TubMuwTmV3WkbNf1RzLMuya+JtE+URqVbcvB6pFBL88cnqOZZzyz3XsVzLFsxcsy23Q98FkI3YRoa6wEiK7+klX/Fqvg1vBrBJXDjTd4V+6NiWM2CeGTgJiYlfj+RXu/jq2+wlQGDjTnYFeKzBIoNO2ORu6rnJiM1QtyYX3yZMAwp3LL1yAl2W7guZQTu2IQ9xE2SaR/fKnc7jtyS+dQGWIsO0DTYujYGfC9FsnJS42VTmnqF51nwrr4bRVt1kUI9Yjt8dJzboAKFzamJ8iyJArN4EM81S442IMzC9uMrLwI0tt+c9qgGTO0JhcvJOGgQmCYZpU+HWFdMsI+LzJH85XNCn3RAbWTDfetH5zpXZeC2bJB+XYb3VVbj1ERjAb0QMso0UwlcLmNXqkwdoyEuqkiQqwG/bxllX2AQDvVF6K2JkYnmgxoJD10/BvQkOEUcFSIXdustfK8HKo/Em55IQT3g6hbHL6xPYP5b1a146jw5nyN36DH73uIq43jxHW+AV6Z8tl7qomDvvyq8jn3U60mtEcOx6fo9+NpKMWlF55M047x6zl7D5EbFwpLICS7VzVK/dizPNAupBb5Yi21KEJrOM0JYNYKeQ9AVjNXjwS5YCDvH4RU3jJkc59G3rl5IatFAEoR2C5j/Iim54QG8Ia7gC+mXJUQgUt4LkIxWsu7zYhQaB5fZDfyGiqjgRDyVufY6aKiEGHjHyDHshxrUh5S4FeeKDJdXEUITGLnHrHnrgbv4CK1dxRY3dukJfwSMcEzN9kaPNWhKi/AemmslLp169KONyjG7C0foUGdly3UH470RQlRwCFt3vEnMKxJfM0Dzko3yXG7moS/jTEHhYTkiwWUjskrIK4cNotzltWq4TA2C3LlNX7vG45olz7H157nJJ8HJ4qombfeMhGh6qQTx3qcGORzJ8wu5Nx3xMmo/PHlG2OCSDkSOucjbNsz1VEEuZqkh8imxsTxiUaLD7WbjmIQPm8TTMFdJcfG7yKrjQIJgccZGbdGBiP0F1Jcn7SEhQA0w8oWncXW0f2XKdKZhLHs2QCzGeJVliBEjPljHxIf2Iz795YV6GrReejj3iYMo0cNyA2e7FX7vF8ok5t656GYYlPqT5CA5l9KYsMK8d84toqOIKmSpiYd8PJslrJz2bZk605IOOleEfsFv75mt6lJxX84OStTH8OcJcusWMUJUEYvDUJmVnJ7yCUSnnV5BHjFv74YkjLufYuMSMYzQHU6yK0opm44FIDJjHgZ2NsLmXUpd+LsGn3MkgrPsRV6xAGDHEyKmPlff6SjaOiYCdfeTs5NcS1PAdGbs14e/6kHGIz6XDWFS0WF1T3VVzPTPbCUJ2M5g/XFGND2rhS6E0YVShicM7J9Cp3Hqc2srRnrn1zJxgbkERY7dGe27HQfjNhREXyGYdJi5QThKqaDXXHV1zcfLqEXFJd6KaQQGF5zkokA0DU+VMtasC+xcpYlSPfYjyqk6UuhotfKgmWAMytYg/krvUVO7KzzTUBE9NDByhWzikiFGojrQDGWnu1KfmTqJIvI/v1l0qm2C4BhqcVfZJkTh/Bni9/WXKxpGI8fx4wmozsqJ6uXPTihIMRA2pzXLs1iOYmoMlgBwdmgI1zRHqlCrVIYeRvbqDlufD0+mpEx6aTiMFA1FDugw+w25dNgXDc8R1v0CpU8Sox6Ite2L7hN6C/CBsubOfLHR9oGeIxK0rdOksI24GXUITR85OZO4b3tpesJY5GMgsGeFvyHRGL/WQaH1Er13m/HDmqVykfIAh5qeSaqEJfvhAdoLc1H8nMzXK6vGJi0xViHMNUxsLxIURPVgZ4qaf0CeqN2nNfUDxjKXOjbJ62EaOXOfMikXOpCsKpBJHXB4xobtOFyhofTDaPmSH3mSRCW28kGMBPWkBnbEjFOeiLhgvxFUyE314Ypi0qVWfY6Ykk8d1qSZsPCG398rmnjTtwv1Ylz8qMVkX7HEINBdgHBMT+91S4YYqS4yKzmjvq2aQRKEO8Y6C9FyZ83ZCt9yVumdNcilYiSO+oAHXPGLvUdXkLoeo7YSkW7xp4VUXt9IzLnCk27HTcZlzQuTWzGSAJeYXa/n3jiMfETYp5YIjVWWjPuMA0ODiPVnlwZkwVfkZPLQhszSHkSrkUYUjxmV1EMnqrEeEy3JVfn0HzReYFRCLRoahOsH8uMnH1obJFdFob9HfrSixgASY6jV27YioLH+HJjzPZRkSv4QLtQ6VrKGNHX4kg4lGgjWQihBpDvmjTDiWeUZmVzxLBBh3CLXuPWKQy+cKq59Y0tMOLXiyh3b3lmTIb7qxA3W+fkkKjosSFWvug7KznK+WvJrEbKB7SPpC8b1ehGjkaj5HfJ0c1qWyfDVketGDrsmWXic9w3K5M6a38Khtn5omwbObRtzMZNIa+kZoBC7ZYG4xr6AzHHk/D4ktu/518lvkKOcVOrtazlc+hL6Xvm2Dprtt32U7WfCEs8m78J0NNxZ9b0BewJ9gjUccTGvzgZNfmpzWvNKbCJqu7D3wY36V/7XQ9dxMFn5Lgd3Pttrt1q3ruK5jSZYKBi4MZuNaJ5M5bYGfjQRnJHKMZGuuVfaWHHL3woVPUsFdhHuMGhjlIc17NKkGy7T7tv95bY7dU5SebQsdn0efD+38qoM/0VRBq0PDSvDEZYkLznnv2PaoGanmPBm0bnvjcS/bDks3p62xazu2Mb77RUe7Yqg8uawq1I+Pq29wLHsZ3giTKlWqVKlSpUqVKlWqhdT/AefGd4XmgVFOAAAAAElFTkSuQmCC;" parent="1" vertex="1">
                    <mxGeometry x="383.16" y="805" width="126.84" height="110" as="geometry"/>
                </mxCell>
                <mxCell id="Mujl-81metIkKJXt9XZx-14" style="edgeStyle=orthogonalEdgeStyle;rounded=0;orthogonalLoop=1;jettySize=auto;html=1;" parent="1" source="Mujl-81metIkKJXt9XZx-13" target="Mujl-81metIkKJXt9XZx-10" edge="1">
                    <mxGeometry relative="1" as="geometry"/>
                </mxCell>
                <mxCell id="Mujl-81metIkKJXt9XZx-15" value="" style="edgeStyle=orthogonalEdgeStyle;rounded=0;orthogonalLoop=1;jettySize=auto;html=1;" parent="1" source="Mujl-81metIkKJXt9XZx-13" target="Mujl-81metIkKJXt9XZx-11" edge="1">
                    <mxGeometry relative="1" as="geometry"/>
                </mxCell>
                <mxCell id="Mujl-81metIkKJXt9XZx-18" style="edgeStyle=orthogonalEdgeStyle;rounded=0;orthogonalLoop=1;jettySize=auto;html=1;" parent="1" source="Mujl-81metIkKJXt9XZx-13" target="Mujl-81metIkKJXt9XZx-12" edge="1">
                    <mxGeometry relative="1" as="geometry"/>
                </mxCell>
                <mxCell id="Mujl-81metIkKJXt9XZx-13" value="" style="dashed=0;outlineConnect=0;html=1;align=center;labelPosition=center;verticalLabelPosition=bottom;verticalAlign=top;shape=mxgraph.weblogos.java" parent="1" vertex="1">
                    <mxGeometry x="262.48" y="950" width="62" height="65" as="geometry"/>
                </mxCell>
                <mxCell id="Mujl-81metIkKJXt9XZx-19" value="Platfform Independent" style="rounded=1;whiteSpace=wrap;html=1;fillColor=#e6d0de;strokeColor=#996185;verticalAlign=middle;align=center;fontStyle=1;gradientColor=#d5739d;" parent="1" vertex="1">
                    <mxGeometry x="475" y="950" width="100" height="50" as="geometry"/>
                </mxCell>
                <mxCell id="Mujl-81metIkKJXt9XZx-20" value="" style="shape=image;verticalLabelPosition=bottom;labelBackgroundColor=#ffffff;verticalAlign=top;aspect=fixed;imageAspect=0;image=data:image/jpeg,/9j/4AAQSkZJRgABAQAAAQABAAD/2wCEAAkGBwgHBgkIBwgKCgkLDRYPDQwMDRsUFRAWIB0iIiAdHx8kKDQsJCYxJx8fLT0tMTU3Ojo6Iys/RD84QzQ5OjcBCgoKDQwNGg8PGjclHyU3Nzc3Nzc3Nzc3Nzc3Nzc3Nzc3Nzc3Nzc3Nzc3Nzc3Nzc3Nzc3Nzc3Nzc3Nzc3Nzc3N//AABEIAIIAwwMBIgACEQEDEQH/xAAbAAACAgMBAAAAAAAAAAAAAAAFBgAEAgMHAf/EAEkQAAIBAwMBBQQFCAYHCQAAAAECAwAEEQUSITEGEyJBYRRRcYEyQpGhwQcVI1Kx0eHwJCUzcnOyNWKCg5Oi8RY0Q0RTVJKzwv/EABoBAAIDAQEAAAAAAAAAAAAAAAIDAQQFAAb/xAAxEQACAgEDAgQEBAcBAAAAAAAAAQIRAwQSIQUxEyJBUTJhcbEjQoHwFSQzNJHB4RT/2gAMAwEAAhEDEQA/AFGS3eNjHKjI/mGGDVeSDI56V1pYUuIgk8ccqnruGa57q8SS6rcx2kQRO9KRxr6ccfZVrcn3KO2hV1Fp/wBFGHPdRg7QPfWGn31zbXKGOVowzBSQxBUZ5ORRW5tirMki4dTggjBFV7LTWu76ONQuN67ssBxny99Vc6ioOT7DYysbzDpkCt7ZcO007MyywjoQMDqOQBx5ZOTW2C4skt41sLiSVz/aK8RU59/PUdaWtVaa81iRoVcwQN3RIBxn1PTr+yjHZ63aWZXYMdvOfIY8qz9JCaipOXf0HLkPRRhk3LNiTJ6+fSquratHpRjikK73BO8cgfxoneO8FjJ3IHfbMKT5t5Vz24029ix3kTsAMAgbh91X0G+OwyW+rW8p8M6ZPr1ojFcqfrDNIHdsM8fbWyGeeD+zldfTyodpKyHQVm9RWEl/HEDvZQB7zSZHrt3FgMA/3GrkN3HqoaLupWbHiVVJ+8VDQ1TQyxatZ3HgLI4PUZBFYT6NZXQL2xMLH9XlT8qA6XocsEpkuIJUA4RjyAPdTJaYjAAaoR1X3AN7pt3ZndLHvj/Xj5Hz91aIpAOac0lBFDr/AEO2u/HD+gm/WXofiKNTAljXoa9G7S6jpb4tpxJCDzFIcr/CnrSO0Wl9o0NpcRKk7qd0TgEPxzg+dcpuLe5snEd1Gc/UkH0Wr23mkjlR45GV1OVYdQffR9xVuLHPtFp8mhxyZDSWx4jkPOzPkxPr0J6+fI5DabIIbOMKJblnPLIowOOPPgYGPlTp2e1u27R2L2GoiM3O0hw3SUeeKXdbt27NnZHAWtyw2yZ6L7j6+Xr9uCWWamnJ8AygmuDxcNgEFWxnaRg1CtLgv5JL93U5djtHeNtCqPPHy+6mcKdg3Yzjyq7gz+LYicdoodsJCbyyhUHKBpCwAwBkCi2sXEb2qQkDfImUzjOR1oP2kkA11Y27vatt4twOec4x5eVVNR1GzeCNpJJpJFRDtUBVLAYwT5/xqlLPWaaGV5UVe7kblVuGHkUbA+Wa8oSdWuASAy49RUquHtO0XjyW1hNNAF3xDeVY43ADJAPkcUDguor2KSWd7aKFPFD3kQZ38wfSstQ1SdrGX2cvOFQA7lUB/POwHPlSg1/dd/b201tFCLhyVZUxj7yKzNU46qaePv27gq0FdSvoLuSNpoQ3ekL3p6494brxVbR44La+kupX2pEpWNtufEen4mr9pb297P7Pc5RT/ZkD6JX+FYXVkYYBCzqELF22ryx5C49w8/nR7fBjLS35nVfqDdvcWdHsY7PvE772u3v0JwR3eZFOOpOM8n+RVmwDWQ9lKruzkqeDn76q6ADJfRQMibRG4zySfTrTM9mrhQ6RnaMDw4xVnT6fNjm9ztP9/QbCSoT9W1G7TUJlSTaiEAIRlcYo33tuHMTyKrjGQ2V++g2rQr+crmONWCg4bPmceXpXur2epJqk8tldpgkYjkTgce/mr88ba4Oxz5dha4srS4UGaKNw3CtjOfgRQ677MwNnuHkjb3HkfZU7PLfPen26CGM7owpi+i3J8vsqx2luLqzv0MEgVe6BKsMjqar5JeFHdItYMXjT2ruLF/oV1BkqveKP1Dz9hq12VvItMnkivt0SSYKsykYPrV2PW5WXFzaq/vaM1YhvtNm8MjMufqypS1qIS9RstFlg7oK32t6ZbWxdLhJHwdqodxJ+VK1n2h8eLkbCT9Jen2UXk0fS7wbotoz5xMKFXvZeVATbyh/R+D91OVNFZ7kw7aagkoDIysD5g1cN9FGuZHVfiaR7Kwu7e8VLgzwxv1aLBFM9nY26bWFvvb9eY7jUMKLsszX8V4hiitnu1I5G3w/bStqVrqmm3QmFuZLU8mNW3Og9ffTmkq4OZRheoQcVT1MIWG5XVWHDgZPSpj3IyVXII065dXiubWXawIZXBxXSdM1C17UabJa3aJ7Sq4eM8bvUfzwa5ysYLltmSDklV/bVixlmt7hJ7SdEeE/S7weH489PjTWk0Votpm3Uuy8kWsCAl0jOO5YZ5UdQ3lnnHz44NGb0tDZTOreNI2YHGckCtuuPPrKxXSSrG6QqrIj7VZs5yGzgeX0semaq6lI8ekXCXaiOc27b42OG+j5A+lTpJxg5Rao7MraYna/I02vSxZ57lQCOCOAfszQh76zhtmVolM6Zxj6/z8unrRDtbcmTUopIkIKwBDg8n1pPuDJdXDCEBtvUjpVdr8ZyCStGsxznmPwqeQGHNSr6WEhUYQzADHeZ64+dSi59jrG86hae1yz33t6XKQoDCrR48LEAA+fTofd617cNYz6vBcQxPbTXKgrFtXDg/W44GeuB+2qnZfS9HursrNfNDfbswiRCUPqfu86Y7jsZNZxtLPKHuA3eiULjfj9Ujp8MGsdzx4HvuvsDsbNUDi1nCgIZHO3GQysvU+/npWrXr54tycsSQqbV43e8n3CrWka5aXbpb6jZ5mVgVkztLAeZJ88Vc1Q6FfWqgRqlwBuTJH6X34IPTigjqJz1aySjz2T/ANkVUaTKvZW3FvIgmlhdO7ZuDkr72zTZHEjoskTkKwyCGyKUdO0+K/mktmZo0MLf2Zx5j7R6Uw6Npx02HuTcSTZI+lgAdPKtfHgzYJpJ3F9/+EQdrgAasoXUroZ+seffVnU+NRmH+tWrVQG1K6/vtW3V+NSuP79aa7gR7s26KubkH3On7a363Cp121DKCNq8EZ8zWGgc3Dejx/tNWdaH9e2v90ftNVNSvujQ0fd/Rg6+0u1nvoozCqhonJK+E5yvP30vXmlzW80ybmKJjDAbuCPP76cpQPzlByP7KT9q1pVgLy8GNxITw+/wmpnhxzfK9QIajLjXldcCtoMQ/OULY6qaIa3rEVjqcsBkKuACFKcHjyI/GsNLTGqRcY+lxQntnx2iI4JKpxnnpVLSqsb+pe6g7yp/IMahLKNQt7Y7SkhBORyPF5GrbJEhkaZ1VUHJc4GK06igbU7I+WQPvqt2l0+NYY2DN4peFB4NXfDujM8SrN9zrlutsE0497K3mUICUJubm/u4yrzAKDnaFHBxjjimnsrotnPo++6gWRmc4bJBAGB5Va1jTtGs5IbZoHjPdKxkVuTnPv48upovJBUxVzyM5VfWFzISZJXlAOQHYnFV4p72ycOjOpHQ/wAa6gnZB9QgabSLpJUB2mOXCMTjPXofKgWsdnr3TBjULR4gTgMehNFtjLswbnDuBdN7UXEEo3iXd5PHgEfh91NNjrEGspHp9zCHWTjaVxgfAdPipHxpYTTmSYyW00Fuu095LMMhVPGQPM+lSXVILS3e20lJVMqnfcvxJJ55z9VfSkSW10x0ZblZq7Z2lhbXT+x3bs5ZlkjclsAepwQPQj4GgGnMJJvZ8v7Ow3yFEyeF+iD6nFZ61dQ3twXh2p4EVghyDgY4HXk1LNhbQbk8yS7MME9MYHwz8OtL7OwqLcMCNGC35wPJxsXgDPA+l5CvK0K91Oolh0+R42+iwHUfZXlRbO2oLdnZEnt9QRX2SSAHvHcBQg4KH45GKdNHvGAtUudRSa4VSiIHzhfJfU8Ug6ToV1fb1S0cwurGKNWwin3knGcfjW6PSI9M1JYrtmLKu893J4osAnrjGelZmoxwmmtwu2gvq9vPedp5LaBmcw8pGDxg9FHwyevuq5a6TNYzfpxCZCuVCHJT92aq6ZBNYXDX15dlLmbnAfcSD5EYyTTENC1C8eMhJYEblnmcK8jfAdB6VOFSgk4vdS4S9/dgNbuGbdBhlj1As6eDuW5BHXij+/LgDk56fMVV0vsza20jPfXhRI43kLo2NpXHUnNO+id1Pp9vcraLbvIMlduCPEOa1MWfLJ1mVMOEElwcvu7aafVLgRRSMe8bgKamuI6avdIwwRJyPca6BeP/AE65AAzvNJfaxoou0V80rogMvUkDnAq6p2xajR52cUm5kwCTvjwAPU1n2nZ4dRjk8SMIxjcMY5Pvqx2Dngn1S5EeS0MsCk+XLNRXt/Ze1alEe82t3CgZGQfEazeo51jxOXzRrdLgnmSfsxMe/uXkWQupZQQDt8jj91aI7qSN5nfDu4AB6Y4xVw6I+QTJFjPktYS6HcBj3ckbL6sRWL/FZLtM3pdO0svymjR8nUIc8nBzQLtwMdqAB+qh+6mzR9Lli1K1adkKMdrBSc/soR+VGwjsu16xQliDHGw3dQMmtLQZVPC3fqZPVIKOZV2oKXwHt1if9YfhU7TgCGHAGe96/KstR2Ld2IZwuSDn1wOKx7Ut/R4T7pvwNbMfQwp9mMfZtO70S3zwSpb7Saq9pNRjgu4I5rZZUNohz/tN5H4UT05O6021T9WFAfsFLHbQgajaZ/8AZJ/nkpGbsMwLkykl0iTs+Wv7qWxh/OBETqMkMY+hwDjgVf7PyCbQrqJr2TUII7lBFJK5kDKQ+MZz1wOKR+1LE9iFxz/XC4/4D/upk/J4+/s5cqRysluT81egh3DyKih2802GG1jktoY0Dkq6KgI6ZzjoOlJaWtxLKpn5OB4FbI55z8P310jtlH3ulxIxbb3w3BepGK51NcdwLiVJne2KskSs2WGdvTPOOOfhUTTc2BBeUDywwiaSRS6hWPQYA/6dK0JOveO5dgRkpgZ59SajXH6RvBmIZKq31j61riBeNk43ltwIbGKhL3GFwajcEZEjkHph8fjXlVfaLn6sxx5c/wAalRtRx0jtpprwwpdWt3IsEbYWIHwqSMDBxn7TQrSNQfUrlEuoUdkQgzgc4954+FDtPa7Euye5WQMNr2+4ssg69R4T785o1DYyaJos8kELy3cvARF3EHy6eVY0ovFjWOTuXZegt8lzW7+GyubOaKeKO5iyyuzAhAeACD59Tn3Uw6LqvtaQw/nOG5uBIvdSBlDbfrDAJ6e88nNJOl9jpL1pp9QZ2LEYLBlI9+eOtOXZHsfYWRS+Zt2xtyEtjkeZ9BU4Y421hhPldyG/kPOmor6om9Vb9FIQCM4I20x+Yx7/AMVrnNl2lMuprLYxMbePO5yM71yMj0zimK71/wBs0+VtNkSG4ThxP0XIyACPPw+XurUeswObSfKCx/Ca9blMD3s6QvMUDNsTq3oK592hls9YubrUr0WiYTf7PKxMkLHHVenTHB5o/dai2rJbJdQu3fKGkEJ5kOPfxtXBJOa59+UaFIO2epW9uqRQoyFVQYA8A6D7ajxPH5g+Doxtjd+SySA6rqK2u3uhPakBegyzU5ds+NTh/wAEf5jXPPyMSb7/AFA46yWmfjveuh9tP9JQ/wCCP8zVU6uv5R/Vfc1emf3K/UAMePmKyzWtzx8xWVePPS0Y2jSfnG2Qx4QPkPnqfdQX8rkmztpDhQc28XX4tRC0wNfhd2bjCoB03EsefkpoT+WLI7aQEH/ysX+Zq9h0xL/zqjzvU78UcnsbWazh7+FW7uYFTnBHhTgGsO2fZgPBbvY7mjNwu+Mn6KkHkGrlvzZLg4O8H/kjo9rvFoP8Qf8A6rYTaaMaSXmAGAowh46ClDt2/wDWFnwObJTn/eSU3D/rVPVNC0rWjbz3WrJayxw90Y+MjDsc/wDNUZFaOwtKRznXAJew2G6fnhCf+BJTB+TTjQtQXnCva9f7slHX7HaBPpR0661xzCLpblXhHi3BGXByDxhqs6ZoWkaBp89vpmoT3RnaLcJVxtCbsY4H61LinYeR2uAZ2pQS6dHCxURyygPuGfCOT+yku70yylS9nntYk/RgRMIhjdsJzx6c05dq4pJLGBYmIzKFYj9U5B+6lHWblb6CeSG4TaEc93t8SoPCPlxmq2ZtZuC/pYp4LYibY8He64H63Ar1VtwRtkiz6EmqqtuV/h+NbYgAOnlVi6K6Vssb1HCmMgf6v8KleZI6AVKDcM2IdInuPZYo5wIZdilkC7PLyHkMV7D3oc92+0DqxOMUuaO95LZSyFi0MICqSegGeB6Cr0GsSC0f2C3aZo2BaRYO9KZBAOCfU+VZWTTtzZQ5bHC01yWZEiWeOZIjtcp4ific1b1O5voLGF4ELuzKgULnAJIzj48fOub2hv8AWNUtxcXUkuwnrGVMa+e4AcDj1FNutQX1nvhtpbnvN3elJ4ywEfTg4z1xx1OeDSJ6PFjmku4XLMtO1XXE1mRLeO1ZpYziC68alM8jB4XpnBAo/fSSXHZ/bBpdqYP0n6SEd0m6RgCQDj4AjyHFVm1Sz9nFxN7PbXMke2WUsrMc9cqOR5ev2Ubte09pHp0ljqVyjPMga22RBgTwQfCPM468/CjhNS8rVKv3ySvmZR2uoabZhzaxXGqCNYVRDgBcg4Zz7s0odttBv9R1zUtQMMe1iCUjk3cqoUgHA586Zre+1B7S9l1J47q83hY0VFOCTjcPIDkDn3Uux6rdW9q5vG2d6qtLNJygJBJx68VayamUFFYQYumWfyRWFxZXk9xdR90lxJbiIMME7HbPHXzp97a/6Qt/8D8TXObLtbPa21tL3gdkKjc5zhjg5PmTzR211G51HfJdrKzhiBMykK/Thck9Mc+pqr1DPLJpWpL1NTpcr1KNz/R+YrPNYOfDXtea9D1JptLf+t7afeeX27fLOW5oH+Wc47aW3B5tI/8AO9MNr/3y1/xz+NAPy1Kw7V28wQMFsY/kd7816vpEm8Dv3PP9WX4q+g8wH+gqf5/s46YNfGLH/eD8aAQjbpw48h/9aUw9ocexDwsv6Qcn51t+xhv1FvOGx91TPhr36x9aw6gHp6UwQQ5AzWnvYnlMIeMyJ9JdwyM5x9uDWjVWvfZMaeYlcnxvKxARfMj1pGllR7y7SNHnzg97GwJZgMFvUe49TjypGbK4dkHCG4L9qL2W3N0iRow7yMRLuAJYg5yPMcmlF5LeHRxJAH9qaLu9pXOV5LN9u0VauJ2isEuJN8rRS92rb8AEZ+r92fSqFxqplnDOoVlhVF2qfCgU9PWqeSTlO2jRw5I48e0UbSKSWVo0KK+PrnHSsi0kbYdFHu8siie6B9i7W3LuckcZzzz7/jWqR8cup7xjgqeDz+wU/fYhS5KokfHT+ftr2oe7J4YAe6pXWM3F2ykIZAX71UAVVY+HA46CnDSJ1MMlsiyCVVHcs+X3secDB8uR60l2jx2kqqgEkzkd5IQSie/44pj9suJ9DRbWCE3FuXeaRGxI+3Oec8j4dapanFLJwkVKG63U6VJFczWYN1Ip7syzlnYKNxO3oOnu91U5zP2jjjg7+4iDvlgRkuf1mI4xx8uOuRSnpurRm4F3qTSSQkMrGQ8BgM7QucAckfKrMOuyey3M1sksTynZFMIxu2g/R9SM4z9/Sqr0sozuvYm6CuoQatcXFvYorXkZiKtLEA6hycElscYxj4ijFtoYs9ImuLiQTzwFVit0Y7wvVnz9vAHlzmlvQ7tn2QyF0tYkE6Cb9GDk5PiGSfFnpijpubvurOfTYpGaTAljS6DrK3IA6VE3tag0SqrkwXSrma5sLq3Ens8LcLKWLgA4IYE4YHrk889OledpdRsAZbNLIyX8iIyqcxpDlcBwRjOevU9fd0LaZd30EswuNGSzDRvJcNK2clfMDk+fTjqKG637Hqes3F1MWVwkI7wMQpaMYH1TkdPPzHNN3QglbZyZh+TaJbPU7231TErQCFgGHeYbOcD3HGBXQO0+9pLRmtzAWRsRE8gZ4z7jjypW7J27XepTFZjAwUO4iCkknAJzjr6+/NOXbZSk9mT0WNgWPxFDrpPJpJOvY0umutSn9fsLcittPhNZAcZyMfGq8t9bQ8y3MS/FhVU6vascQCWZvIRxE15+GlzT+GDPRyz4orzSQQt/DfWuf/Xzn7aCflnLf9qrRQDtNmhJ/wBt6M6Wuo3l/asmk3SQLJuaV1xjg+XWmztN2MsO0F5Hd3k8sbJCsfhwMAEnz+Nem6XgniwtZFXJgdSzQy5E4OygcppoPmMD/lQU1aqofTpiQDgBhmg99Z262piW8jwuNvmTgDjj4VfvtTt3tHiTcxZcdMCtW0ZVNti7sI61q72Iz9x3id9tJ2Z5xVDX7rfauiSyRAZDGNlyR7uv84pUjmnt7ueZppljuXV2ZVw+AQTg5xyAB5Y5piaYhwaHa9hSSxnSRcxtE4cMSAQRzkjkVyW+cWDoqSxpG0YfEZ3FTnIwx/n7KfpO0kEl/FjvFtdpWQFfQ+X2VzntTdh7yQQxStbByyd5nLZAz5ZpOWNhwTRRuLs948gYfpPpdPFk5P4/Cq0sjM0b5bxDhA3T+ciqsd2mGDwpJ556Y56V6l8YHBTGBnK45NJ2DUW4t0JZzGdrZbAGcL04/n3148bTRZiVSrKCwJ5+ytsTjbFL9Vo/CMDgnrWPeu+5iDtXw8dc+nvpfNhUUgWAANqf/kBUqzLc6gkjKkrKueFVhgfdUo6ZNoJ6RBZRWaPeNJmTO4FD3bqPpLkeZx1xjPXpWmGS2hklnjto2jY4EUj8AZzjd7+Kb5uzun61FG+mTPbyoMbCxKqvuIzx8qrQw6VocqxLeRXNzCcjeo2owGMk/POKzo6yEm6u/YTt9ytA2lxwo72kkN3lXfKbu7Y5x4SPQ9BxRL806FHG97e3czSNgkq/h6g4CihvaGy7++sriS68XdCQTJtjGcjJLepxj3Z6nNV+yl9a2MdxFdz478MuTgxH0wRnn9lDkhJ4/EhJ38iE+QjYQwT3crXCbbCIEST5IXacNkZ6evz60b0u6t7W47zS9Q9rgnZo9hPK5HRSMY6jj99UYtQcS/0vULd7Nhk2sKbt3ljGOTjzFV+0dhp9xdW0emRyzq+I27gbDCxIw237Qc0h3OSTbX2JbCd7rNlcPcR6gk7BIREZplGImB4GM+mM/urZarDe2NjaWUNzLbAkNiM+EMCSWOOAeMZ9Kq2fZ2zku54JGmv1iUpCXnLFVxy3PCHOelNWh6msE117PeCQw2UYHdRLGGAzzlep99MhgxSajuYS5Lul9kwY2u7F7m3BIAEshUyIOcEjyz8+nTpVnXdG0p5bc6rqbyqrMVEjbjz1Xjk/LGPWtyXAuMkEnBIIJ5HxrC5jjljMcqq8Z+qRkVqxxQ2qhse4Nkm7JaYha20oXBB4aVSQft5rU/baOGPbZadaQE9Aql/2AVVvuzkTO0lmwQn/AMOTJX5HqPvrCDQHC4mnRAeqxjP3n91H5hq2mq47YaxI42yvHnoAAn3dayh7UagzBbpPaHPQJu3j41fh0Wyj+lGZSPN2z93SrYijjAWONUUdAoAFEkyJNEs7trmPc8EkX+IBzVp9jIQfMYqsDXrNRCgPq+mQ9wDHGx8XWNBkfYM0Aew3sy2+7cgyVfGev3U6byK97wnrzRJgtHPZ0ePiRSD1OSDVZkyOeRXRLqztbsf0iEOfI+Y+dCNQ7OQezvPAJAUB8Eajn4ZIzRqSBaEW5062nyZoI2PvK80MudCt3ztJQ8nINFr6+Nuj7V2leu8ftrTb6hFcqN6Kc+a0biiExSvv6MWt1kcxg/WUrnzzz+6pZOrKscsjqOSzYzgcfjTdPDDcLgtuGOFbyqi+mQpMs0cSKykEEZHT4dfnQPH7BJi40l0TlpRnHnipROTR1eR23sNzE4A6ZqUHhfI7cMDSyRaTdtFI6MUAJVsE80M09Ve/hV1DKXGQRnNSpWPj+Cb+oA8JDE0GphokIMsgIKjnmueykhYgOAEJx8zUqUGgfml+gP5g9oIEOomWECOTu28a8HqvnRGNmTVLwKSo3x9D6mvalN1PwEy7BCxd1sZCrMCQckHrzRVyRcW7AndkDPyNSpVbSf1f8nYy5ojM2vXW5icwL1Pqf3mmR+lSpWvh+AsI0GsalSmBnlYPUqVILNZrE15UogSDpUrypUkG6L6XyrRqLslncMrEMsT4IPI4r2pUohnItXZpJbkuSxLvkk5zzSurMkq7GK/A4rypT5egqPqNEBJhGTVhD5VKlQEQgZPFSpUoiD//2Q==;" parent="1" vertex="1">
                    <mxGeometry x="105" y="1100" width="195" height="130" as="geometry"/>
                </mxCell>
                <mxCell id="Mujl-81metIkKJXt9XZx-21" value="Front Door (main)" style="rounded=1;whiteSpace=wrap;html=1;fillColor=#b0e3e6;strokeColor=#0e8088;fontStyle=1;verticalAlign=middle;" parent="1" vertex="1">
                    <mxGeometry x="130" y="1240" width="130" height="40" as="geometry"/>
                </mxCell>
                <mxCell id="Mujl-81metIkKJXt9XZx-22" value="" style="shape=image;verticalLabelPosition=bottom;labelBackgroundColor=#ffffff;verticalAlign=top;aspect=fixed;imageAspect=0;image=data:image/jpeg,/9j/4AAQSkZJRgABAQAAAQABAAD/2wCEAAoGBxMUExYTFBQXFhYYGR8cGBkZGhwfHRkdHB8aHSIfHBwZIC0iGR0nHR8ZIzQkJyswMTExHCQ2OzYwOioxMS4BCwsLDw4PHRERHTUoIig1MjMwMjAwMjA5MDAwMDAwMDAyMDIuMDA4MDAwMDAwMjAwMDAwMDAwMDAwMDAyMDAwMP/AABEIAMEBBQMBIgACEQEDEQH/xAAbAAACAgMBAAAAAAAAAAAAAAAABQQGAgMHAf/EAEcQAAIBAgQDBQQGCAQFAwUAAAECEQMhAAQSMQVBUQYTImFxMoGRoRQjQlKxwQdicoKSotHwM7LC8RUkQ9LhFnODF1Njw+L/xAAZAQADAQEBAAAAAAAAAAAAAAAAAgMBBAX/xAAtEQACAgEDAwMDBAMBAQAAAAAAAQIRAxIhMRNBUQQiYTJxkYGxwfCh0eEjFP/aAAwDAQACEQMRAD8A7NgwYMABgwYMABgwYxLAbnABlgxq79PvL8Rjw5hevwBP4DABuwYjNnEHP5R+OPPpy/2V/rjLNok4MRDnxyB+B/IHGP04/dP835qMFoKZNwYh/S26fIf92PDmm8h8P6nC64m6WTcGF7ZlvvfMH8sYHNN1/H/uxmtG6GM8GFf0jzJ+B/HAKh+6fw/AYzqINDGWsdR8ced6vUYXSeh/iJ/HGswNyB8B+eM6j8G9MZHMr94Y8OZX+xhaa6j7Y/iH9MYDPUvvT7zhXlrwb0xr9KHIH4YxOa/VPywqXiNEmJHvn88SXBjUApWNx+G2M6yfdA8dckg539n3nHn00/7An8sLaPE2J0hL9BePlidS70m8AeU/3tjYz18MHFLkzOYc7T8I/HGstU+8fiMZslUdD/fnhHW4lRr6qNUCnUuFcWg8r8vwws56OWbFXwhjmcxUVdSnY77+734dg45x2ezrkNTJuQZ53Ab8xi/cNqaqSN1Ufhh8GXWgyw0slYMGDFyIYMGDAB5iBxbOlAAvtNt8DhhhJ2kfSabebfIavyOFk6Q0VbNiZpyLkg8x/wCVjHsOb6/5j/XEfJ5nU6qoFtyfME/ljDMZmuaummoKAbwNTeczCifKT88c7ypeX2Kad6JJoE7sD8/yx6tA9fgDjyjQrk3eLco39edseVcvWAtV5k3A9QJ6Dr8sa5yq6ZlK+TI5djzb+/U48+idfnAxFp13Sp4zINiDMftJNx+B8se1ciHqlg5tEAE6UHMxMFj15cuuJ9ZtbLfwPXklhQLalH735YyJUbsv9+pxrocJSdyb7nGx+FU9tHT5emNrK1dL8i3HyC6GbSHlomBG3X0xrraFYKSZIkeg5mBYeuIuYoiiQQtgZ5kqb36AR543ZbM96/lA98iY+eE1z+lrcau97GBziTCqXPv9MZ97AkUiYnaDt7z/AOcZ8U4rTy+nXPjnSFWdo52A3GNGT7SJVqJT7qquskBmVQtgTuGPT54p03w5b/CDdq0tjZRzoLQyFOsgf0xsztQrp06bmST93ygi+34+vnGaEITcxtG49OWFXDczqdVJB07xe8lhfbYi3liUlkj7bu+5qp7jEd+5sFRTtzMY2/Q6sXqEbbAT5/3y88e8VeqEJoBGqAiQ99IPMjUI6+7nhNRrZ54bv6AAIldpFpjWk+W/PfFliUebf6mK5K7SNlXK1qR1d4z9RE/y3t54Mxn6dSnKrdj4gNjty852w4rVqdVWCEEglfUgAmJ9oQR5YqvdstYW8My23tD2YEABSNR5mVHWcQy4ZLaL2Y0JJ8j3KcKXTqcSdzewHmTvja3EMogg1qQPTWnPlE48zecXQ1J01Iw0P4rkOhMgRddxM8ja2E2XyFECRltaEeFfESBLEyxmG0d3aYLMR0jojjUUkkhPq3lY7zWTSqocFWVhKup5MJDAj2hG0yMIfplSlqTVKmYvsRBgnYNpn3Yb5bN1UIQUj3YSwhgEgQBqKzNoi8Wwv41lgGDXE+IdQRcWOx5e8jCZcUZK1szYSadPgdcFygFMdSPEeZ5x7vyGIy8Zr6ii5aIJA1OATBIkBgJFrROMFWoyJ3YYjSwOltJVpTSwkgMRDWOCrS0KateqKdwJe42caZJEyz7C8ADzxaEaikjNrbe41yNdmX6xQjyYWZkCLi+Kt2w4fqckCH+yRMmAfCeg3O2/rh9w/KK6I6VS4Is/3p3nxe7raDMYj9o6cUyT4tMn8TF+gtfpgywUo0xYupbFP7N5gNXDcnv72jV/MWxfuzjzQT9WV+BP5RjmfDquiu+0B22nqTsbi/Lltyx0fswYWqn3arfAwRjn9LtJot6jhMc4MGDHccgYMGDAB5hN2rH1aHo/4qw/PDnCvtKPqgelRD/MMLP6WND6kIMrXNNpG7Knx7qp+YGH/CqgFIF26yWMXk7k4rFR40/sg/A1EPyjDzhaM9JQpCspN2EjZlIiR1+WOL0/1u/7Z0ZVsjVxCtmhUKrUp01J8FrlbXMgjnFyPTbG7huaenK16yVS7AIV0yJBmQqiBtfzxqzOUpUEepWY6VWYXeFKvYC7N4VEjkvqcaOB5jKZhCF8Es0pUIVyRBLBVPQjYx7xjrqn/wBFe8eNvKX8m7jYEa1IKnmpG37QB2xnwnMhdTN1ExJu0CPiQMSM5k0WmwS873nYBR8FAHW2FfBPEpR5AdYMG4MQYb7wPPEnFKdip3Ey44iVXDd5VDBWBohtN01XMgrJMLbeQZxq4bTy9B2qU+8ZxTaZ0lCoIBaReNQiZ5GcNM2lDLL3rkwDzBcyTM8zMydRk+eKzw3t3TDMczTp00sV7oayDcHUQLwOYAPkZxTa7ZSMZyi0k2kWPNVlr0wQIYrqgxFomPQkC/UcjiDwKQWC+1BInYEkwIEAKLAAcvO+HffU3WUHtAQY3G488Icq2is17g/K28+Zj34nNq0ycU6aJn0yrU0hQxBggumhhYEqCQAATaYuNQvbG6nQzAhNa6BbcEsIgHbcmSZ8rkyMTM1mH7pjTgPHhLAm/mB/e2+OWZXP5k5hq1BHNR9U1R4lkxI8UgDyMgCLSBD6kimPG5p8KjpWSylZUCVGDC8+hk2kAzq90eYwpy3hrRynztPy5HDfJ163dqKrK1SBrKA6Z5kTeMIc3mR35K+xHiMSeoIg2v5bNiWXJFJMWMG20NzweoxBldILFYEMAzFrz7RB0kG0Rzk4g5vOZSnXSgzVDUlN/YU6QqktpibXiRPtWFm+XzYKkHpEfiPP1xQ872TrPUaKgp0g3hFyWWTA0kQCJPPmb9adSND44Jt63S+C+5fhtKAytYw3hYaWghhsIiRyj4YTcWWKwH3pj1EH8J+GN/AuG0stSFKmYEEsSfaa2oj13gf1wr4vX76qFHsrqBgWkSL9evvxHNmUY2ZDHcqTLLk6NKoA7IrNESVBMXtPIXOKr207V1aL93TZqASZJAbXYadMghV9r5emGOT4ros5g9Ts1iTeIHoY3tOPM7w+hWqd66K7FYGuSCNxInSfJiJjnjYZ1KNoaEYxnclZK7L9qDmQxNBkCwBUmVf0JEg9ReJ3ONfaquAgqfaF1WQCY9RG5A23IwNxCjQVVZkWIhAJJPTSot8hhXmEq5txppsFsQCIta97W/P4LkytL9kYoRcrSpD3gGdGkEQAeUzp/V8ypMH/AM4UduqFeoyd1qqA2KGCgKnUGYG0Hr5cpjGrMTl3Cs6qXNlZgNWxsJs0cxy3BGNj8dUKSbxP2qZAg7TIm3kPzxOHqNqlsxox0y1R3PexnDMxS8VaoywIFJWlTvM3IBBINvPqcNu0+eFOm2rci0nbYAepYi3n5YSU+04IPdKoExqdpF+iqJJm3Tc9AdXFa9Ko1NqruVMg6BpAFj4QxO0CxH9MUllWnkxxlKeporOTciuJ5gG992IiecC3ux0jssYqVR95abfyicU3tVwulRq0KtEzTenAMzdTJv8AvD54t3Z4kVUP3qUfwk/0wmC1OmblalC0WfBgwY9E4gwYMGADzC7tEv1D+UH4EYY4hcaWaFQfqHGPhmrkpudTaP1l+Dlvzwz7KZ/VSk2YWYdCBH5bzvhfmU1KP/cPzVSfwPxxk9TuCe8plGYBgaZDEzNyDp0nr+ePLuUclo7npcKfJN7Y5E5imvdx3imxMxB3EiY5HY7cpwk4F2QVKveV6hrMpDLuIexBkEFiD1tf4T6fEyzKqkEtAltQjlcX5dOhne2rN8SqoKgNSjTNMkPYswvCkgwII523A9a9dPuZFzjHQh3n84ESQRqIhQBtv7gfXCnI1TTN9vfbfw2BIB8toHphXl+Ia/Gs1HP2qzEArJMSAIIBgX5CcT+L1mIpVMtA1A60qiVQLANwQ0z+tebeXLky6ncXVeRlDTs1yOs7WWrSakTGoEb3jaR6HncW54ScM7K5elUWppL1BfUTzU2sABY+u3vwUM1UaUVBIMSNYEkAyNTEKee/TGivXrIYNOo3iDH6wKtrbAgnmSDbbbDR9ZF8mrHKOyZYc/xBUBE+MyFg7GJvE6TtvG+FncuCDoIJMixm0Rb7S2j3YQHiyUiabhqOqwJUoG/+VT4j56p688OMzn+8yhoVDqEqATckXMExeIEG2/leWTKpve0u3z+pqxyjxvYyp5pwNLKRMAyDG29x1HM8xfppPFaIPtGRDQqsxOowLRMzPzmLws4NwpXBVT3aqLBTpt7hG+56gYnPw6ip0koI3Ja/vm5JwR9TKuLMlCKfJ7X44TKL9WLSajCTBP8A0x4hMCCdwdsb+FcMp1aWtahJBlrNqBAIhlaCSd7xyxXOJcJualBpJMd2yyrR93SpYTYmxv0xt4M9dlf6irS1KUZWUjpsdiN4IJF8Esmv3SVr9mN00l7XTJWV4sCpZUqqkwC6AA3k6dD6jf3X54G7QktFNDUEbhKjAG8eyLmd4jbnsMuF5IszHMA6VsiGDIFxYWieW0jphtVz1JRoMhRsYMfCLfhhI5Zx2MlGN+SuVO0i1Hak1RjyaiAtOLCdSksxuCb6YB26t+znEKOpkZV8R8DQ08vC2omQTFxHphb2kyGVrBQ4WoDMEEaqZtsynUBYWnlzxWmzlXI1VSrUavlz7FQjxU2myuZjl7wZERGHU3N2ufD/AIN0xcaqvks+ZzFR6tTQxZC3hUIgCqPML6mWNhHO+JNTgutR4whhfZDsfDdQQGAsfLfGHY0rVeu8hgGVAwvMKGMEbe0uLFw6nqphyr+KSFDOgUTYQm56kzeYsIC4cWSc9nQuTJGGyRUPoL0mPdsCwmfAFcmSZ1XeT4juZnzxryvFWpVFJOlzOktueo1G5OwIPUeWLBxSmrFkcxoI01PtDUJ0MRGoj4kMvOSaz2lyZejFQ6ZUGTuGWVVt4tBG8kSOd1kmsmmT3XceElKPHJM4xnjXrKZAcqNF9tmMeUiT6DphlluD06YBI1MYkxJJJ2UASAeguY57Yp36PM135fvD46NMBVM3l6mu0SSPq+m5HPF9yNJpDgSEJmN4I+ydpAj4sPTZR05dE392ZKVQ9phX4eKYVmpEDbxAaCTYCVPgna4FyOeKl2ry9VaYemoBWrpNME7xJC6hY7W5+u98zdNKtNqahzrUqSw8IBEEzzIBkRzG4xWe2yE0gNX3STe52kjm0fjjolHHB1F3/kljnKT3K3kOMLXokKTbxhehFjHlBJP7IxfeAZi2WfzKfH/fHIu8NLOrFhVswmZJEEz1IPzx0bsvmv8Al1bnTrKfiI/HFscVGarihsm8WdIwYMGPSPPDBgwYADGjPLNNx1U/gcb8a6yypHUEYAKflj4B+1S/mBU41D6ytUYAs1kg/q2AHl7R/wBse0f8NvLQf4XjCbgPES2crEG60ljpNQliSOoAUfvHHk5otzSX6ndDhssCcForDuqsRYF5YA/qqdiTMQJxlUqyRTamjap8DIQ0QbwwBI5TpxLyntrUmBoC2BJVj4iYF/ECtx93zOPOM0BWChW1lXDB/wD7cAzBJuSPDA6zaJwv/wA8HBy1boTqPVTKZxTgBp1GfLuKLi/ckfVNziPsEjmLeUmca+y/FRmYpiQ4JDL9w+fkII+OLBx9PDTcnSxEN5FbExuDfbFK7P8AEVo8Xq61gOoFoI1qqIxBFt9Z9RjmiurGSlylZ062kmu50aidFVKQN3UtqMwqoVVrA3JLoB6kkmIO/iiqE1T3iiNQYLqAYgSpWOoMEX64j5mo+pSAqlGnULvf2otEETYzJHUWmZzNqSjNUDqpnTKgEiYMbkg6SOXOJAOKYpYOm4yW5zT16kyt8Z4agBWogdCIYVAevQ3UeYxROF52tQzVTJr4gbU+YWSCC0m6BZnnjpnE6wq6XBNyUjYwYJkb76bHlHXHMuOZynl8w1cHXWv3agnQqm2po9raQNuY6hfTLU5Q7Vt9zp1PSn3L/l8/To0mqVai0RpCh2tPUjmW2I843wn4v+lmiiGll8v3qxHjASnHksFmHkQMc7z1PM13VqpLM3sanRReLIGIEbbeWM17P1ZphmpJ3v8Ah66g8RkD7Mxe18d+HCscasjNKTtjTOfpDz72WolBfu0aarb1bU3wOE2Z4zmahl8zXb1qvHwmMSKfAG00HatRVcwSKZ+sNwQp1RT8MMQP/F8b852ZajRqVq1Qr3VfuXVEDkPp1yJdQVKQeRvtiqS7GbITNWY7sx95xlTzdQbVHHozD8Diy1ux6UhmDUrFxRo06yGmoHe06pge0T3bA8oa2InD+H5OpSzFVe/Jo0kdVLoJYkhlaKewjUCNwYwzj5DUuxDyfaHMUyCtUmOTgP8A5gT8MP8A/wBaZfMU+5z2UGk/9XLsUcEbHQxIb3t7sLk4JQrNl2pl6SPSqVayswZkWm2klDpEhjtI877Yg5XN5dqipUy6pRYxqVn7ymDYNrLEMRMkEQYsBhKjfBrVnSuy+Zy1CnOVqrWolpYXDCdgym4YWvAkDbDzIcTpVZh2ptPjCsyaotMjr13xxTNUqmVzDoreNDGofaBgiR0IIMf0xaeFcVFWnrgBlPijdf6qd/j5448uKUXrg+RklLZl74tWpELRTSYMsZkKL/a3LHmT1vMnCbjOdKoU1Bw6h7fZAJAkCYNzI8/OBGXMu9MhEJm5LDwAAGTE+Lf3wJsIwrzPG6FA66jCpYgqp9uVmI+wQSNrDHKoOT4tlYxUeRP2LzgTO1UiVfXE2IiGmdyYUkg9CbRjpHDsyygmk1iQo2OogbwRuYEet8cu4TwmvURszTOir3oemNpkOSNRIABm02IEc8WjgPaWl4qTzSrTBosCBrHhIpteASbKbiOYE4v6nFreqG7WzMi9qkueC406ps71NCnUT1IHugb87CCcKOO1mqB2g6YtPtGNibAz5fDGHEOJAU1lgGVbqqN4CCLtO5JAMfE4ScR7QoZUeIOCANcudpLaSe7J5Dy26ywY5N8A0o7sp3ESTm0C3IZWF5F4f4gQD5rjpHZN5o105ABh+604pPZPg9Sq/fMCzLG32FAHTYwDI5DFw7EiWdfvIQf4Z/Fcd8pLUku235Jte1t9zquTfUiN1UH4jG7C/s/U1UKZ8iPgSMMMegnas4Hye4MGDGmBjzAceYAKNUslYdEqfJtWKhwnOChxPSyeDMIqhuYNNTtygmPgPPF1zC/WVl86q/y2/HFbfhXetQqxdSRPRiCCD7jGPNySUcm/HB3Y1cWWzKZ0BonlY/nbrtHXzxLOa0yVUk2gGQBa0zcT5+eOfZvjjZc6KqMAvs1FmV9w36TjQ3b8KrHvw3QGQ3v0w9z/AGMcmTDPVshlCLV2XDimZHfKamk+GwiVJW5iRYgFdpm845TxTMLTzlSrl1Dd0oZuYLCqp3HVIB9W9MSqnaCtmlNHL0WYtId9lUG3hVfCljvvvixdlOz9ChQqrVZSbd88qQsmArLdkG92AAPXD44vDcpbt9v5ZR6Wklx5/wBErs92tWoGOvVTN9LgkredJAuSAQAZjblGGSdoRuwLabKZILCx8WqYII38rYp1fshVU99k6tNlLGB3iaGIt9+/tbHbELNV88WCrRQNsNNRGX3HXEbbnCvDGT9r2+dqNuPMlv8ABa+LcfIy9aqZmLiTzMATzloHvNtscxrVixLsZJMk+ZxbqnD8y2QzbVgutGpPpVlaEDENOkkACZ364psY6/T4lBMnNpvYf5yjSOVylWo9RZFVQEQMToeN2dQsW674kcRFH6BlKr0qlTx10SaoAHjDfWEU5fyAK874hpmKmYytLK08uW7p3KVAx1FnIZlAICtaPAJIsfXZk+I5r6PTy4y+XqUwWq01cBqjyDLqjVNTCAfZWCAd746FEk2MshXy/wBByT5hHNOnmayEobIW01VLIQTUUHdQwJANybY3Zt2pZfMrmgma1ZmlmA2tgmYRwyF0amQVsVtcLIERGE/FM3mahpZWpUoBKnduioiimveKopmVpyn1ZUeHYG95xHyuUcmvlzWhKC1HYBSwPdmG0BogyZ5TfbBT7GJLljqhXfVmcxSfvKVegQutVJVk0lKTJGmwEKIiwjcTq7PZXNsMxUdHE5Z1QukS66WARCIjfYRJ88KaeT7rSWr1aVOqxVWRDLIsBndO8WFGraTMN0vtzGSy30b6RrrOe8NKJUDUKQqgwUJ0lyUiREap5YzQ3Y1pDngGdo1aprNCVzTNLMUiQoqoQBrparBxpWafQGPOuPwjS+lq1I0gYNQOt18qYOsPH2Stj5Xw07QcDoZaXAeojOqU1duXc0qrM5RVn/FVVURsSSdsbf8AgWWNFLmm9cI9CozmFZu8U0auywXp1FFUAR4SbExqxtN0zNaEXGM731Z6sRqNh5AAD5AYa9haRevUpcnovPu0wfmfjhfx+gadXQ1LuWFOnqSCIbQuuQST7er/AGxZuxuS+j5Kvnns1ZTQy4Np1H6x78hFv2D1GElH2tDatit5Nc7UGnWoDL4iW8JHT6ubelsNOFdlafeB69TXBk06aHTa8a3IaL/dPriwcKoEaQI8xYEraYB5cp2xMz/BqbAFZotycRIP6yzpcTG945jfHHP1LTcUqKxjHl7kjLV6Iy9X6siqCDTUnWrXIUDSFIu0Gdhhdxbg2XekpzCrr2JQkAAnZS0loNjfnthdQ4i6VDQrQHAJDLs6g7idjbb/AHLjsnkjXPf1R7f+Ep+yLQ0cywI9FP61oS1R93Hyu4+3d2I6PY2k9QE0qhpD7L1Ynpp2ItbEjh3Bjlm8OWTezWZvI/WEgc9gNsXzLZJatMVA4VWEp4HbUu4YwwgMOW8EbGQF2boQXUCGQTFyGVphlJ2BAYQdipFxBxW88Y6pcfckpwbpIrXDu09RKpZajzTJRqbzETBVkJsPgRhh2Z0pmiFB0mCo56XIifPQ+EHa7IFwK9K1ZbSP+oqxKt1IEEHpa9o29leM94aFY7gsjeZSHn+FlH7uKRXtUlxf4ZrrijrfZc/VsOjn8B/5w3wj7OP9ZXXowj+b8iuHmPTh9KPPn9R7gwYMOKeHGBxkca2OACr5hP8AmGHVz/MMJczl2jLCmdHj1u4JDGNPhEbzc9Bf0LvipjMMf1qfzGK7xetpagJv3jqB+wxkfwzjzfUWnsduJJ8jriyl1K/ZiCWUNPWxBLc8JafAqIV4pqutTqIVYuGWygAixO/xxbs1SLFQqjUWFzsoG5jn6E7kecauK5X6tmVnLKpf6zSVbTeDpHgmCJWI8xYxlgyStxYLKo7NFI4lwOqADTqmuB9ipKmPJgSqnYCwF7kYicKziVC4KlCV7uohMOIKnS033UbjaYjF4o5JGWV1AGPCWIZJ2JEHzAPriifpA4eaNajmkYTqWnVA6AxqPTcD3gfZvDG3N6W9+zLrIq+Cw5bKmqwAAWmBEKCQqjYQOZ5A74m0OH5fRLIrRMsbCZ21g6Re0emIvCsjU+jIqiXqQSB4SQQZAabEgEAzz5crX9KRUEvAAgUgvigCNIQAHyiIxuD06nbcqonmyuLqJWcnwLL0marTQlGVqdWmXYh6bDxAoWK+dufrjl3a3s42VqSpL0GP1VTyOyv0cbee45gdXz+UbKoh1As8ym6hbmJ5wCF92Kf2hepQovVUKwYnXTf2WBPQ7k9fPnh8OacZ6Jb7mqKktaKo9BauXy5p1qaPSDpUR6i0ypNV6i1U1Ea5VlU6ZYGmLbYl1c9RbN0c4tUIqGizpDB1NFaaFUWPEGFMFTMDVDaYOIgylCuoqUyaBP2Xuk9FfcCevlbGmpwDMASKZcdU8U+gF/lj0uouGT02MeLZvL1a1DMJWp09NKlqphKp01KZPhUinpKgaBIOwMAwAd1DimWpZnMZinWqxW78J3dPSyCsH0mWdfErFDY/ZN9sVvMUWT21ZP2lI/zDGvvl+8PiMNqMURy/Ecu1JaNRa9XQWZKupKb6qhl0ZSKoKEgMDOoMWOzQIz8RX6O1AU41VxVUh7JCsmmCCWENvqHsje+IKNPs39MSqPC67+zSc+6B8WgYVyrk2ibnu0BqDSaSmnppAozMfFSpiktQMukq5pgA8jzFhEXN8TZ6ZRwmnwR7XgFMOFVZaAsPUmZJLkkk3w2yXY/7WZzNGgu+kTUqEfsLA98n0w2yGbyuXP8AylAvVBhcxmfE0jnTpiy87wD1nCyyoFHwachwJn7vNcUdkphVSnTNq1cIPCoFmAjdm8UdB4sN6uYfM10qMoSlTAWki+zRXlYCBYXMb6dgBFH45nav07vqjNUKaWlyTKSAQo2AktAAA3xeeH8WCKsqHDL4mUwJ3kWIaxB9+IZ5yioyXc2EbteCxVKCmn3Yqq7kgoFhipBBLeEeEAat4nbniTneHypUIpIBMwQQZWJm8G4I/CBhA3bGmskIik7mWJUjqsG4vzN+uMx2rQUWWlrdyqjewjncSRsN/gZxyZ3LI7qhoQcSt/pAoMtOlUgKUq6SRuAwg+72T1vN5xb+xNanUytJ6bjvAi612KsQDA6kSRJB58wcUPthxFPo6oWL1ajKTtbQxJnrI0Ae/GXZfMaWq0RK1KVRionddUAjoV6jbw4d428Cvs/8Dy3lX9s69lKLUlFJe70hQQWUnSCYUSCNW1haABc4Q8TzvdVKsMtWo32gNKpusKt5i43id5M4UHtMQoRyVEkgaRJKkrzIUSbxYXJjliE2fkhiACb3KzAInyHnHX45Kc5KnwJDDpdsk53K6qVlkvIAAgmIkC0E2jrJHXFH7JMUNSmTOioBPn4lPxgYcdsuOBKailUhrBeoi5Ye8k+RjCbsxQKoztuzKR7pM/PF8cWsbb78DS+pI7d2fq/X/t0lb4hT/pOLNil9nasNln6ppPuJQf5hi6Y78LuJw5V7j3BgwYqTMDjWxxm+NTnABWe0Vq0+SN8DGKh2ozQTN0J9gZlkbzFU/wBT8ji39qR45/8Axf6sU79IeR7xa4AJPge3mm/xxw59n+v7nZh3X6HSQsgSbwNvyIuDPnjXXRqiQ7ll1CR4QGAIkEqPEN7WnYgi2EnC+Mu2UoliTV7lS07k6Rfzufn54q/Ge1hUd2ykqJIAiC1732HPn88Rm5xemIqx6ty45quO9DI5LFVAAEyxMNq8rr/Yxzf9KeYmmCqkLp0sZN2D6+fPxA/7Y30u0SMRDOo5qWLTMgiT+raelsION50cQrpToqy0lJmTYyQJAPP1PPyxDDjksmp8LdnQ4VH5ex0fstn1+i09TSQSmoAtLU2KmVHmJ/ODdxnMxVVlZW5EmedrWkCffzxzLOpmOG1mqJ46NRmNRFJAOqfEpvpbSd77ekb6vbwkKaTJpH2at3jmCNVzPMTO5kzhHgcnqx7p/wBoKp0yz8azdWqo1A2JgxO/pytv5echJ2tpq2VZpIATUSVMc7eswL9fXC3NduleO8VVAHsrBG3RVAnzM+7CzMZ+txGolBF7ugpHpAgSZt0tyw0ME1JSlslu2OpLTS58C/s++mENta6lnZrkFfgAR6HDtMqBLpUamRyBYHeNxc/PD3jXYpXo01QH6tAFdQZEQSep6xvvzwlOYzFOErUnJAMVqaB2NrTTIt5nF+osr1Q/BmnSqJlDj3EKYinmHVP1lR48zrUk+hjGrP8AbjiFIEvUpeX1NOTP7u8YrrcQrVbd3XqEXjQT6WXb4Yy/4Y9esorstBOSPVQMNh7LEET1jb0xeMZR+rgi9L4W5nmu03Ea1PvWqmNRHhp0wIEbeHrjfwriTVlY97DAeJXYAe4nl0xb8rQyVPLMSyGmraHGh5VotbRqFg19rG+KZxzhuWWrNKuaRgSCtQEEgGDCztvt5gXGJxyLI2nGvDr9x1HTunf97DGtWpp4VYOxBnTt/EJUSY2J/LGGczFClTFSoT3l4UT4vMzivElZUZpSpNyEq/6kBPpj2kmWBLu1WuRHhhaYP72tyR+6MP0PLBZK4W407M8FqZypUqPZXUqG/WsRE+n4435XM1eHv3OZps1IToddxN48xJmNx5iMWbsx2loEQaK06fdke1qKlRMiNIqKSACB4jbYCcV3N9rzVlK1OkUNgdLwovdoYswmLet8S/8ASU2pJafHj7GrSvv58irO8TpM7EVNzIs1+m4914688SeHcZoU21GppAEGxJIPIAW2ncgfKU9avTJOnLUjfcd9+HewJxll+JMunu6VJDPtCkrsfQ1dZHux0PDFqtxOrJPsOuFcJq5zM97WGgHZSLhdgI3/APJnFh7U9j2L99RLJUBJDXBnoQLwLwRuI88VHK9ocyWUjMVJBsocgddlIHLpbyxL7Q8ZevW76oVV2RQWgSIUBtgTqJ1QdxIAjEp45601Kq7UMpqqr7kPPnOyqVqbsbxKwWLHysbn548p5PNjUgoEEG4ZlEW+6xEmPeMaeGZV2cNSHdgGdUT6SIg/2Ywyz/0gHvBWZ3YsrMouSYLkDSOTKNp6HFtNbJIXd72zHhXAu/dDWq0pMwpqidpvpDaY6GMPszlKS0aZpOr6WdKghlZGgRKsAYIBj0xSa7HuydwGFxMCdvfY4adlOITUNEzDgxt7VOXB6+yHXf7fPC5IN7mRnWx1ngNb6ig/3W+Xhb8ji+Y5p2dvQ09G295H+rHRstU1IrfeUH4icU9NK4kM6qRuwYMGOkga6mNDnEioMRKpwAI+0ayV81YfKcJeKINRqMupBRDMJEwoG0kCffh9xlZKfvfMYrnE6iCgzVtRp/R/EFMEwygAHlJgT0OOL1KT2fc6sLaVowzOZy1bLU3Dsg0+EwdQgkW0z064pGd4eXFR/pi2JEMmpiB4ifEwYCJM354f8JQ1MhT0LZdYhZIHjNr3NyBecJqvZ8MJKmWGqXBgRPrpuAJNjvbluioqv9jx3bEueylIEM+ZNQbFUUJI6ABjYiDJ89zhnwTj1CgQtPLiAZbU8kweRVRJj7xN+WIub7Ooln7xTHLRrBBg6k2XY+GTyvcwmzmXag5UOKiEAqyg+NDqWYN1gjSQdjIvGBwU1pY1uO51Fc41Wo/epSejqK0iA6vU0tAJPeaVG4LEXvEgHHOuL8RoVGJGWpLJkaTW1R0nvIPrpxrq1mYhEOnvEVW1NYi0kkwImLeXOcMMlTalUQCjTqIVldYUTLG5LqktqW1pgWsTK48Shv8A8NbtUhPSrKokZel+0RUb5PUK/LDXhvaOqE7oFaatcGnFEgiY0vTAEGdiIvc8xOPCSzlxSFAhTZfFBS/hVViLoGYm03sIxX+PZoORC6SJJiQDMSYM3J3IIG1sUdS2aMcdKss+f43ValTZySyoUvqBLKSQag+1pVlW5MkCbWKGhmszUPd0Wqkm8B2LHaxIM+4DniEmYqGizaSVUgM8bE7Atyn8vLFm7O8Q06V0LS1Uj3IUAlzJALAyW1ENJPLYGZwsYOIWnshfm+x+aClmEgjVBJkiCedmMDkThFVU04HI7GCAwtcTuL7jHXe0XCqQXu6larRYhmAqkydpPeCo6tYN4AIkzCjHO87xUAVgtOkadRmMOpJW/kQdQBsTMcicUi33FdVaPMhxSo1PTqLBdLQbkd3qjzKgEmDYX2xsp1BmMwalU+Fqup4F2gy0wLeE8jfltavZasVJg7gj+/LD3sSuvMKCjPqIVQpA8UiBexMwTewvfGOCTbNjO9jHJ8KDOzMriSAqsgAuCSZLoLQTbb3RjXn6NMCGQq0CCJ8UC5AYCAfakDnjpfazhqogJohHF2I8KSqMwYAxdW0mVMG62uMUXiKqCwciowaTUudcqLMwV7COWx2Iwc7mxprYQsz0agpu3hVrEQQRvIIMEG3PnjXQTW+kkgfqiZO8b2kA3v6HEfMk28RMbdB6X2+GNuX8TmDpvYTA8RAsdhE7kxAvildyV9h7wjK1FZu6pq0EQtRYZGIuCvtSIixgE33g7M1kGEkqFcrrYAidQLdBASVudQibmbGz9jsjVUVEqPTQBSKgbSKmoF4U1GISQYImJLm5hhhBxijWasKFRu9dTdqaKTcXChBDam0jz+IwncqmuBLxrO06qowoJSdRGul4VqgAXNOID3B1CN7gyNMHMZsuiA7iQbC9/LlFvKMTON0oIUyXIBckyZgb9D5SbRMEmFtJfxxRJUTladHQ+yVbvKStTp1a1SdOkUwY0hPth4QeIDV4CAPUtt7QUqrd8jIaS01YtUDF5IUNpIZQxBtIaQN+QOEvZau1M66LNTdabszKDN4AUkN7MlQDG/2TON3HOIZjNNRWu8FZSXKSGndoA03KzblOJ6dylsX8Nps1OokU3EairEafDFwdhZo1EiDMQRhRQbua61UBApurhSZNiGKkwJ5iYE4sGTpEtqqRZJLDu1IjmwEQZKrqN5i5kSVsslQLpRVCiPCN/NurHnFsOSkXXs/UjvEHNSR7gp/LHRuC1A1FCNoj4Ej8sc77O0YenP2kAPvBB/LF67KPNADoY+QJ+ZOIem2bRmfdJjjBgwY7DmPGxBzGJ+IecXAAm4kfZ/aA/HFO7UvpylQHbunX+Gqv++Lfnfs+TD8cVLtvRJylf9XvvwDY5fULdP8AvJ0YXsQOwFQDhwYn/rVLb8hYrseZnlPPbDvtBka65YV6dSgFFydLMATERCMS+omWPM8ok1LsYaWVy7DNZmjQ77U6U2BeoFZdOoooOmYkTcjphp3GWroaK8RbunABRKKqWOokAu5DMZtpJJMc8UcRk9ysZzPk/V0z4NbCkwNVaZWRAZaq6IVY9kC245lBxasRUEOHgWMeEEi4CkAATPIX3vi2Z7h3CaQLvUzlUTqYKlMTvzYggXO0cugxE4k3BabN/wAvnXhisGrTUSN4uWKzzONUUPObrdFTyoLMi78gDtuT+OOqdhOLuMslBtKB2P176acSQAil0+sJUe2TeCATpxUn4vwqktN04Y7agSO8zVSwDMuyiNwcP8r2x4c9IlclRRxJCurG8feXdd1iwFthgkhYtPlEjtTS7ljSrv31Nm10mVKbaAGIltAv4TEnbUBtikcboItMHZgW8SkBILEiKZEq1+TQAAN8XnP9rQaC1fouVtTU+KmW061V0WXGlV9mwYm4MWxX+I/pDrgfUmkisJA+j0wyHeJuGH60X6DGRQzltTRS6KswIUFudhPwxb+BZepCtVo1SFUKBDqZUDSJUBlUAe0I8RFydQMeh204k9Kq30l5UpGlKawG1SfCg+788QE7aZ6RrzNdxIMGowkDl4SLHGtWTjJosY4C9RH0Cu1S8sUYmoW1LBXvNIW4EgSJXkDhJmOFV48VCqBuvgaLi/hiJMRIggwbgDGz/wBWu6MXq1AwB0jVOrVCkHw38EnUW5WEmcJuK8WatGoltJJBZmJvvuedto254EmUlJUecUy4Wt4RAYyBBHP7pJIPlJgyBIAOPeG5oKYLMLQCpI3IJPMHYWIjY7jHvZvL68xSFv8AEU35+IWHU3xoznD6lFtLCGUXE3H9/wB7YG1ekRX9Req1bMtRTVVqVDQKsaRWs4YEloctIU+GwBAtyKziBW4llqlPZkKqbkzy9qdUtMDSI0ifMtitZTi9WmvhZTcWZQxBXZvEItJAPmcaMzxB3BBgA7wPeTJvc3N+eMUWN1EuDzPspc6ZiecA+8C3wwVPCRGxVSf3lDH3XxI4RwSvmCNFNtBPtkEU94u5tboJPQHFn412TJpqKZDOqIDsslEVTBYgQQB706GQSyRi1FsWKctzOjxZ6tGkTUqM6LoQGoLkCNhGkAKT4gDBbxHfGmtlqYWaoLmpDag6EEjvFbSV1L7RFiDOm42wjXgWdpEMtF5UyCml4P7hONhXiNUwVryRBJUpYdWIA+JxlrsyiltuiLxLQoYBiW1WsI073MyG/ViN79Y+WUmlUN7PT28xWn0w6yPYmu16rJTHMA639wSU36sMWTIdm6VOmUh2Y6fHZSCjMysAAQCCeZbYYWWaEVSdi6XJ2UXIZ0ixYgeUTuDE7zIF+kjmcM340hWojs7BjqEGBrIg6gw8QgAdehsAXud7D0nJKF6Zi0KGHrp8P44hp+jupqE1CVvJ0BTtb7Tc8HVg97D3LYreb4iSfDa0XMyDyabN8MSez3EaiuFHiB5c/d1PlzxaKH6N11HU1VhqOkDSvhm0nS0mN4Aw7yHZDuhFPLqJ5wzN/E0ke4jA8yr2qzKbfuHXCq1Msl/Zn1sf6YtPZeqPrFG0yPeW/KMVHhvBKy1VcrHUbCB64tPC6fd1NxDSIEctMEx7x7sZh1XbQuWq2LHgxiDgx1HMZY0ZpZGN+MXFsAFZz+/vH4jEPidOnFQOAROqOthy53AHnOGPGEgz54WZ2ojFyWUEgaZi9wffsPniOZFsRxftXwmtRruXuWJcPyeTuOhG0cvhiJwnjVTLtKgSJFxeDEgdNtxB6EY67VyQezAMOmhiPgBBxDrdlcq3tUaY/wDi0n4kDEYZXVSRZrumc3z/AGlLoVFNEOxhacAERYFSwO99XzviPkOFZjMtrCOwYkmoRCkkkmGaFknlO5x1enwbLL3ZAWaY0qZpWEKLS0g+EX3364l9xTmSST1LMT8VU43qOvage/LKFn+x7nL0lQjvaYKsv2WBd3Gl4sRq5iD1tdHmOy2ZWStNiJsAVLRyJ0sR88dZ7ikL2/nP+ZRjMd192f3Af/2YWLyLwa9LOR0uE8RKmkKdXQfssQFG22sgLsAYiQBO2JfD+wldiDVZKY5gHW/u0eD+bHVFdeSH4Af6TjTU4pSG5HprUn4KoOH1ze1pC6V8lc4L2dp5dXCh27yza9oE+zpErv1Jt6yvzf6PkqAaC6NeTAYGY+z4Yi+1r7Wxb14zSOyz7qn/AHRj1uK9Kf8AKp/zThFCSd6jXLaqKH/9Mqs/4wA/9v8ALvMT8j+jiipBqO1Qi8Eqin1UamI9GGLQeMMNlUe6muJNLiNpfMFfJWJjysMPU33f4QvtXYW8O7NikIo0lS0SiEkjoWu7e8431ezpf/Ephv26c/55jEl8/Q51Xb3Mf9IxqbiVMewtT+H/APoYXo3u7G1ryiE/YbLN7VGn7ii/JSMS8l2NoUzKU6SkbHSrEejaSw9xx7/xMnanUPrp/qcernap2oH3t/RcN034f5Fc4+V+CaeDruXBPUl5+LYP+E0hfWP5T+LY0LXzJ2pKPe35EY0Nwmu5k00nqQx/zMcEcHwjHlXknfR8sN3T5D8AceiplRz+En/SMR6XAMxy0j0RfzGJNPs1W+8R6AD8BinQXhCvL9zWeJZbaGP7jH88ScvXpNtSYebIyj4spGM6fZepzd/4jjanZEc7+uDpf2jOt8Gs5lByUeuj+gxi3E1HNf3W/o2J1Psog5YkJ2aQcsasXyHV+BQeKzsfxP5HGP00nz/dH5jFhTgKDljcnCEHLG9NeWZ1X4RXKddzyYDyOJnDqNQsC0++T+OHy5FRyxtp5cDDRgo8CSm5GVEWwY2YMMKGDBgwAKeOZTUhHUEfHFGrJm5IKC1pBIBjnAa2OlugOIr8NU8sLKKkNGTic4bK5o8qQ9QScSMvkKw9rSfILHz1fli/jhq9MZjh6dMK8cRupIon0J/unHv/AA2oeWL4MmvTGQyq9MCxx8GdSfkoa8Jq9Px/rjYvBa39j+uL0KC9Me92OmN0Q8B1JeSkJwKv94j0jGf/AKZqHdm+OLtoGDThlGK7CuUn3KYvZI8yfjjavY5eeLfGPcaYVWn2Qp9Mb07K0xyxY8GABInZqkPsjG5OA0h9kYa4MAC9OEUx9kY2rkEHIYl4MAGgZVegxkKC9MbcGADAUx0x7pGMsGADyMe4MGAAwYMGAAwYMGAAwYMGAAwYMGAAwYMGAAwYMGAAwYMGAAwYMGAAwYMGAAwYMGAAwYMGAAwYMGAAwYMGAAwYMGAAwYMGAAwYMGAAwYMGAAwYMGAAwYMGAAwYMGAAwYMGAD//2Q==;" parent="1" vertex="1">
                    <mxGeometry x="357.82" y="1130" width="261" height="193" as="geometry"/>
                </mxCell>
                <mxCell id="Mujl-81metIkKJXt9XZx-23" value="" style="shape=image;verticalLabelPosition=bottom;labelBackgroundColor=#ffffff;verticalAlign=top;aspect=fixed;imageAspect=0;image=data:image/jpeg,/9j/4AAQSkZJRgABAQAAAQABAAD/2wCEAAkGBwgHBgkIBwgKCgkLDRYPDQwMDRsUFRAWIB0iIiAdHx8kKDQsJCYxJx8fLT0tMTU3Ojo6Iys/RD84QzQ5OjcBCgoKDQwNGg8PGjclHyU3Nzc3Nzc3Nzc3Nzc3Nzc3Nzc3Nzc3Nzc3Nzc3Nzc3Nzc3Nzc3Nzc3Nzc3Nzc3Nzc3N//AABEIAKAApQMBIgACEQEDEQH/xAAbAAACAgMBAAAAAAAAAAAAAAAAAQIGBAUHA//EADsQAAIBAwMCBAQDBAkFAAAAAAECAwAEEQUSITFBBhNRYSJxgaEUMpEVseHwByMzQkNiwdHxFiQlUqL/xAAZAQEAAwEBAAAAAAAAAAAAAAAAAQIDBAX/xAAgEQACAwACAwEBAQAAAAAAAAAAAQIDERIhMUFREwQy/9oADAMBAAIRAxEAPwDrtHFGKeKFwApgUUUAUYoFOgFinTFFAGKMU6KEBSxTpigDFGKdFQAp44op4oAxToooAp0U8UAqKlRQGHTooqSQpilToAp0UChAU6KKAKKYoFAFMCjFFAFOiioAd+lSpCnQBTpU6ABTFKmKAdFFFAYdOiipJGKKVOgHTpUCgHRR/OT2qp+KPFUun3b2OnRo00aBpZGBYqTyAF++T+lVlJRWsmMXJ4iw6lqVlpVt+I1C5jt4iwUM3qegxWk1jxrpVpYtLp9zHe3LDMcEYZmx6kAcAVy/WtYGpSmaa5kmuA4BlOASoP8A644AGeM1rRGDLI6XLnuDjb7Z/hWLtb3DojQvLO2aF4os9VtY5M7HZ/LZfRsZ57gVvueM9xXC4rsxW6NJBErSDMUq8McEghuT7dcdKt3g/WrnUHtrc3kqSoMmEtkN1zjjj2HNTG3rGJUb3E6PRWFZ3auiq8nmPlhkptJK9QR6/vrN71qnpzNYOnSFFSQOiiigJCilToABp0qKAxKBRQKkkdFFFAOnSFPvz0oDT+JNZXTLQrDMsd5ID5O9SQPc+grnEn/dXUj7SBcStJK0h5Bxzn71bvHkEc93Y7ijF0kVlftjBVvlnNUqw8pNIineUfErRpt5ZnZsMR7Y6fOuSyT5tHbVFKKZorzToZmLxSJbupOGYHDceg6duaxo7UCDzJpG/PhHX8jYHPI7/wC1Z9tCP2lalgk8TuNu8nYR7/7GpatLb3l9tnjSIhy3k2pG3Hccd6z3OzbFpC00+5vCgdoreGRGfzrj4VIHJ+pzx61aLLRLnRDp+oNeNHbTlQxZcPHnsf1FV62uoZJUMs8imPhVXGDjACjIPPSm2r3M7LHqFxcT20TjamcDI6DJ6Ae3ap5N+Sridh09AJYBc3YuJFAdHHfPH3B+1bkcmuf+Hrua4eS4uR5UVuDIiocYjIBC9exyR86vkD+ZDG5OdyBiSMV01y1HJdHGetFLPGf30++K06MR0UUUAxRmlRQgeaKVFQDFozUc0+e3X3FWJJZpPIkaF5GCqOpJ6VpfEniC30OyZ2IkunGIYM8k+p9F9653ea7q2oM0l5fPDE6EGNHIRPcKO/ueaynaomtdTkdLu/EmjWTFZ9QhDA4IUlsE+uKzLLULK+ANldwzjH+G4J/TrXBRqlrFO8aPLIWIEhDIxPI46knp9q2dtcR5YLE6gnhwArIeuVKnhqz/AHa9Gv4J+GdK8b25e1hmVyucxPtbBKnqK5hdGzTUY7CDcbO1R1ClujAZ5+f8KtkXiVrrSBa65dwSu2PKmQkOGHAJGOe3OBVXvJrK1uJN8IW7c7t652jIByRjv69M1Scot7EvXFx6ka2bUWvNguJNiRjACJk5A6V5SLbySKsGEeEb3LKc59PT3rzlKeZdRIEcbsLKDtI9cA9/X0r1S4utkBjhRJEBAMCjcB3Jxz2qjW+DTfvgjJfXHlui7FiZsbUGATjrj5CvMXF1J8DOxRmLFRgDPyrKmCywwzCFIYpPjQMcsADjJPpn9cVsvCa2VxqbNcYcRxSOEIzvODj/AH+lV36T47R76JeG01e2W2maaOQxxyxg9s4J+nJ+lXvWvFknlvY+H7i3lvUjO07TM7MOMBRwO/xE9uneqLpeiH8Du/HRYnLFViH9ZJnsx6qo7jOOvWrb4VS10/T4dPt3SyuygF6skgil834tx55YflwRxgcVNM+cmovEZXJYnhGwTxY8avqZ1PeMNujeJAB6bT19Oo+ta668YaxpOq7Z7XUHP9yK5mj2SgnA/KnrkcN1xVkuDYwIJLvVLXdkO6qTOS2D+XnPfjj71o7m8mudc02f8K8FpakIJbiMB23MrbiuPhJwCB17kDitLkq1ql2ZQ2XWF10fxDFqsFyVtZobi2XdJCwBJ69D0PKkVsNPv7fUIt9vIrED4lBBI6j94PPtWjd/wZmud5MY2eWyLxGu3Dbu2OM4HzrF0iSO1nuNRtW8z9owq3wKEZducYU/PBGf31zw/qaaUn0Q6utRcKOK8LWYTQJICenOR36GvXNegnq0xawlxRUc0VYgxM1r9c1A2FnujkijmkbbE0vK56n58dBWcTgEgbiBwPU+lc0u9UvL6Zb2eRpI5bh40tjCGWNQNvTPUnJrO2eLEbVQ5PTUa5eTG/luLnc7o25hMM/FjHTjIAxgetVy61aRpwXQBNx+DPbjr/mrZ6rc7EVmcylZDnvnj0PXHv7VX2RJGZl/s1ORuIJArlS3s6n8MS5kjmiRUhdZAzEsSPjHb5Y5rJ04mPDxMY5gwX4c4Oe5H0qHmB5P7IGPAUe1brQY1spGknjSXzF+Ff7yDvkd+napIMmC4J2xyxJ8Y25QA7Q3UcdAcVv9P8LaneW73lhPbSmNjGYmyCWXrj0Hp65qoTSiG5MlopSFiQoDn+HrXVfAV5JeWM5aPaqiICQ/4hKcn91WrWywi1tROa6jbTpdzeYhScMPNtpM7snr8x71hrFIJmaC38pyCpZFxx3HyrtfiDQrTXbXyLktG4IZJ4wN6n/Ue1aK1/o30tSvnXt/OB+ZSyqG/QZ+9a8Hpl+qwoFvZq1v5QyVxj4cYx2+Vb3RNFOjvBqcm+KNJMAgHL7gR+ZuM4JPArpWn+HNHsQnk6fBuUY3Ou4/qarvjjV3kun021mt2itUEsyrnerZxtPbG1s8c1lfFQrbYhY5TSMz/wAbLpttd2UDxvvK5c/FJ3Y5PXv96jfSx6pErXC70C7WUqMcEdO4Iwea0xuAbW1sYgZVhhU8Jyznrj2H3/WpQ6uFZYJYLqFj0zCW6e9eS9OpRNnc2C6Ygn2XsNsW5UkbEBPH5Rlfnx6VrbqzL4vJLyQJE7TTqGD7j0j557Z5+VbiG+ubyOR9O1HMPkDMc6g9j19CMfWtfd2llY6W1tEs5nmUyOZV5PTA4B4Hw459amXT2Pr6Ui34Z4Xhnt0ivIDMs0hUSPEAI5eOCR7g89utQtL20lnjkTcseN64nXcvfO0Hgj91YcupbTDp92pmliIhL5OIwDkgH1PQn2rGH4u7mu4raNfw5IYt5YygB4G7Gf8AipzS2YXvwvdyo0tldEtM7tMhQZQJx3B7gg49zViJ+9cA1O5/D3SKNyeTKfj3HHHOAevb1712fwzq37a0W3vnESSOCHSKTcFI7EnvjHFer/LJuCT9HJdDHyNuTRXmWorqMDFeQINx6Dk1y7WXtLtrh4b9rdTPJIiv8OG3ZJJ69SK6WTniuXeMtOEV9qKozhpfLkRSABjPxEf/AD+tZ3J5pvS8eGougt3EFhcyOQCx3c7sc/Mn1qtSuXIYqd3qo4NbqwikLsjsqlCA5lbYNvr9KlqkyKA9qYpZDxKBzkH1HtXPmHT5MTRbVpJQJIHYSkRxMRwrHnJB68f6VfdM0WxjiAeNXKkgswy3Hp6d+lUSRGhuAVkaCeN8KS/CZB28jj+eKym1vVlhdPxUiFk+LaiggEc8449aytrlLqLLwkkuz18XLZtrXlaZK7IkIMqknarjOcfTFX3+i4O+iPM+7aZNqKe4Gf5+lcu05lmvFgDhmkJB2nOfVd1dl8FROltcCaMRHzBshDZ2RgYXj5cn3JrepZJIxt/w8LEi5rIRQo4qC8VLNdRxkwR/xXDPF2rPH42u5JpkuIkk8mQwjarIBwD6kHg9enyruGfrXDf6T9PP/UF3PbGU+awBVgFKsRzn1z6+9ZWx5LDWp4yxJqsyW8LRzEIkKhlDkZwSc/f7CiTUUlWRrcskMgyoYl+p5+XBqj2fiTfarDegFliMLlVwUIZuvrwRzx0x2rP03UYTCoaVcjAIJwevpn91eTOlxbOxS6LKrNHZCaC4Xz42DASLuEq8dOCOnGD6Gs+51EXNp5TGeExoFPlSYEjZzhuM9+g6cVockTShJoCEcFSG+RG0df5PesiKVpZWCqTNJukc479cjPpmowgyh5AtXu73Jcv8KoNxkOcH75Na+NJ1RrggxAkeWXbaWz0xjnBIPXA4rANxBb+IIrbVfMjt5JFmVRwQCeRx0BP+tZ2r6nbQ2FxEVk2FtsSlSfM2k4wO23c3OfTIqtdPB59LSlyRVvEU5/F7FP8AVszMF3c5OCRj9BXWP6LZG/6SBbyyGuHIKggnGPzepz9sVxaNptY1J7uUBI3LMhVtoXHr35xXc/BETQeGrRXeQhhlRJHt2+w9vf3r1aK+PRy2z0sJcmioZorpOc8c81pfFWhNrtnDDDOsM0L7lLrlW4xg963FMGjWkp4coki/B3jQah5UU+drRnOAB/eI9GxnvXhfaXbQvuN7CkhUyAJ8ZP8Ax8PHpXVdSsLXU7SS3vIUkVxjdtG5fQg9RXOZfB3iOyuGgsGint5MqsrMuEHuG5X6VhKtnRGxFd1C1vxKl1bwRF58KLcKQJEIGPr0rHOj3N5d/g7t/wAENu5lun6MRz05btwcVa4PDPinTLhLqaO1vobYcRQyDew/ycDpx7+ma29l4W1jVrj9oawsNpKcYWQB3IHTIHH681RRnuE84+StaVp9q0EdhBbNLJn4XXrIc9vbgc11nQNMOlaZHbOys45baOB7D5dK89H0Sy0kFrZC05GDK/XHt2FbNnxW0K1HsysscyRNIvivF5a8mcmtDI9mm9DVH8f6Nd3Kx6tp/nzTwYDwghlC+oHX6Vb80Z/kUa1Ep4zhMunW93axtCDGFJd2Zdq+4+npWG+lOFkKSDy48lHfjcPYd66r4i8JxyzNf6TEiz8maBEB833X0PXjvVHkiZJZFcs80Xwnd/WOAevHGOcfrXNOL03jPUV17LUXu44jJIxZcqx5PTNZNq12IP8AvJr2VUDRqEuSvUcfLofXrW2mVfKgZyu0HaxMm0DGRy3XvjivEKRak5A5HPmDptP8+veq+i3Jmoj0+8W5YhsvFhxuw2SOe/XqKybHTbx4rdzPJhGZnWNyWVSeRjtmtjFCDbzCNUC7goCM2BnAOO46fzmtlpOj3esThbaJW3j4p2VSsYA6lkPX261K76IbfsPD+g/tG8js7ZXSxWXzZpPLwyjjjJxycHj2rraKFRQvRRjnrisTStOt9Lso7a1UBVA3OBy59TWXmuiKxGEnpOlUc06sUPLNGagTTFSSTpqN38aSivUEAUBJFCj371MuOK8i9QL0B7F6gz5ryLUs1AJE0qWaM0A6KVLNSQSFYmo6Np2qqfxluN56yR/Cx+Z79utZVMNUNb5JTwrF14FjeJEtdSdArcFoxuA+fI+1Yi+AJ/LZTqqAb8khAT0x6Vcw5p7zjrWbriW5sr1n4K02JcXVxcXJBz12g/Pua38Nvb2sIhtYY4YgOEjXaKeeKWauopFW2yRNImok0s1YglmlUaKgEO9TWoinuHrUknpnFLfXnupZoD0LUs155ozQE80ZqGaeaAlmjNRzRmoBMGnUM080BI0Us0waAdPHFIGnmgCo0ZpZoQBopE0E0AZp1GigP//Z;" parent="1" vertex="1">
                    <mxGeometry x="643.02" y="1155" width="123.75" height="120" as="geometry"/>
                </mxCell>
                <mxCell id="Mujl-81metIkKJXt9XZx-24" value="Collection of chocolates (Packages)" style="rounded=1;whiteSpace=wrap;html=1;fillColor=#b0e3e6;strokeColor=#0e8088;fontStyle=1;verticalAlign=middle;" parent="1" vertex="1">
                    <mxGeometry x="503.02" y="1323" width="206.98" height="40" as="geometry"/>
                </mxCell>
                <mxCell id="Mujl-81metIkKJXt9XZx-25" value="" style="shape=image;verticalLabelPosition=bottom;labelBackgroundColor=#ffffff;verticalAlign=top;aspect=fixed;imageAspect=0;image=data:image/jpeg,/9j/4AAQSkZJRgABAQAAAQABAAD/2wCEAAkGBxITEhUTExMWFRUXGRgbGBgYGR8WFxgVFxoeGBcYGBgYHiggGBslGxUYITIiJyktLi4vFx8zODMtNygtLisBCgoKDg0OGxAQGy0lICYtLTAtLS0tLS0vLS0tLS0tLS0tLS0tLTIwLy8tLS0tLS0tLS0tLS0tLS0tLS0tLS0tLf/AABEIAOEA4QMBIgACEQEDEQH/xAAcAAEAAgMBAQEAAAAAAAAAAAAABQYDBAcCAQj/xABNEAACAQIDBAYECwQGCAcAAAABAgMAEQQSIQUGMUETIlFhcZEHMoGhFBcjQlJTkqKxwdFicoLCJDNDVOHwFRY0RGOTw9Jzg6OksrO0/8QAGgEBAAMBAQEAAAAAAAAAAAAAAAIDBAUBBv/EADkRAAEDAQUFBwMDAwQDAAAAAAEAAhEDBCExQVESYXGRoQUTIoHB0fAUUrEyQvEV0uFigpKyIyRT/9oADAMBAAIRAxEAPwDuNKUoiUpSiJSlKIlKUoiUpSiJSlKIlKUoiUpSiJSlKIlKUoiUpSiJSlKIlKUoiUpSiJSlKIlKUoiUpSiJSlKIlKUoiUpSiJSlKIlKUoiUpSiJSlKIlKUoiUpSiJSlKIlKUoiUpSiJSlKIlKUoiUqg7++kAYNuggVZMRYFi3qRAi4zAasxFjluNCDfgDzh/SBtMkn4UR3BIwB3DqXt7ardVa0wtlCwVqzdoQBv/hfoWlfnr4w9pf3n7q/pT4xNpf3n7q/pUe/borv6VW1HX2X6FpX56+MPaX95+6v6VubI3y2piJREmKVWIJGdQAbC5Ash1tc+w079qi7s2q0FxIgbz7LvNK5FiMbtiMFpMfhkUC5LHKAL2uSYgOJA9orEu8OOsD/pPDkEgDIM9yWjUWyx66zxfbB4VPaP2n55rN3Lf/o3r/auxUrkW1Nt4/Di8mPTMeCKgLt4DkO82HfUUm/OPP8AbH7K/pVZtDZI0+fOq10ey6tZu0wtI8/7V3KlcUTfXHH+2P2V/Ss674Y364/ZX9K8+pZvVp7FtIzbzPsuyUrkKb1Y364/ZX9KyLvPjfrz9lf0rz6pmh+eageyLQMxzPsutUrlP+smN+vb7K/pXw7zY369vsr+lPqmaFef0mvqOZ9l1elcjbejHfXn7K/pWB97saP7Y/ZX9KfVM3qQ7HtBzbzPsux0riU29+P5YkjwVPzU1s7O9JeJg/2i2ITwCOCeFmUBSO4rfvqTbQ0mL0qdj2hjC+4xofcBdkrSxO0oY+rJNGh7GcKT4Am9cQ2rv1jcTe8hiQ8Eiuot3kdZu/W3cK8btS2ksefHvJ7ag603wAtNDsNxYX1HZTAv65ciF16bfPApocQL/uOfwWpHZW1YcSnSQuHW9joQQeNirAEHUcRXIt4cMAbgWqd9E+KtLNFf1lzAcuo1vMiT7tSbVd3myVK09k0WWQ16ZdIi4kRiAchxxXUKUpWhfPpSlKIleJHCgk8ACT4CvdRW80/R4PEv9GGVvJCaJjcF+b8VimmkeZ/WdmdvFze3gL29leejr1BHyqc2PsVsQbKyrrbUXPlp+Nc+8r7Nxp0WS4wBA9Aq661jNdPT0bJlzNO7dpEYjUeLMW86yrufs7DxtJiFZlQAsxeQjUhVssIu1yw4DnVff0rvELzAiXSdxaCOqxut1IGACfKPzBXK6y4PEvHIkiesrBh4g3sbcjw9tdI2R/ojETGGCIMwRnByALZSoIzM2cN176j5pqD3n3ihwc8kMWAgzxswV5AZrgeq1uplJFja5tfia9kvcaYaZgG+AIM7yf2n9oVLrfcfBzMaYiN+qxyQdJLK0XSMrmVlTI/VeRoZgwYqAPlYSCL6Fcw4mpmLdjEYiRZzAyOvRHryAqWikDFmZc7tnSONTcfMB1sBWL0ibyYjDCB8NKIoZokYBVQasWYnORn9UxDQiudbQ21ipdJppXB5SMzjt06QnkR5itAFWqy8wM8+o2TyXHLWNAux4ziRwy1XQtobrmTElpsdhemlcAR9JdrkhUjUMFY8Qo6vZVey2Zl5qzKfFSR+VZt0Nzcc0mFxTGNIRJBMM8l2aNXWQFUQMQSo0Btx5VuYvZ/9KnHLpZLe1ifzrK7u6bhTY4GBgCPDEAXC8SJx0uXd7MtdSo8tefDF10Z9f8rWiFbkERPKpbAbtzNqImt2sMg8bta9SS7NRPXniHct5CPEKK9bTe7ALbX7QoMxcOfoL+iicPgSeNSEOBUcTWfNhxzmf91VQfeJNeWxUQ4Ydj3tKR7lFWCy1DpzXMqdqUjgT5D3IWVMPF216MEPbWsMUOWGT2sx/OhmP93Tzb/ur36R+oWf+o0/9XT3WWTZ8R4Go7F7H7DW46sFzfBzl7VkYfiDWq2LTtkXxAce6x91V/TPyg8CtDLexpvLhxHtKr+LgK8aisel0a3HLceI1q04uAyeqyv4aN9k2NQOIgIuCKiA5p8Vy7VCtTr0yAQdVFQEa24cvA8PdUls2XK6nvFRGG0sOy4+yco9wFbsLaipVBeVZY3zTE8D+FedtJmQGtLcvFdFjoTewL5D39ICgHmQfZW2HzwDwqr/AAt2xEcWHUyTM4tl9UEG4JPda/YLG5FWvkuDgqWmm2g+lVIAMi/gfxjwkr9FUr4K+1uXw6UpSiJVd3/ly7OxZ7YmX7fU/mqxVUPSpJbZ0o+kYh/6ik+4GouPhKsot26jW6kDmVxKFasW6c+SYDt/l1/WoCIVt4XEdG6t2MD7By/EVgaQHX4Z8Dcei+0tNHvqDmDEi7iLx1AXr0ro64vNmJWRUcA65br0dlvw60Mh0+lV42AzYrZMYB674Z4rn62ENCpP8cat7ahfSvhM+EgmGuUsnjmUSKb9gWKX7dVndPft8FhzCqK5EjOjMWITMF6pQZcwzKW9cesdK8q0KlaiwC9zHNM6lhg64+K7Pgvkw6+7AtO6J0wH24LT3CxQh2pAb2VnaPuKzK0ae90PsFSXpbwwGMzj+0RHPtXoh/8AnPnVQbHZZVmRbFGR1A4AxkFQOwdUV0v0z4cMkEyjqnOL+1Gi8xNIfZV75Fdh1BHncR02lEEO2wMLz5XkddlWbcrEiTZ+DewusWQEgZh0RMJs3EX6EcO6qB6X0/paNzeJGJ7Sc0V//b1aPRTic2z8v1U0i+xgkg98jeVRHpjhFsM/Mq6+yNgfxxFcizVHs7XrU3ExEgSYElhuE3YlXbINAHj0BI/AVt3Jlz7Owh7Isv8Ay3Mf8lY0mkTESiJUU5hd8oLm6huJ8eytT0YyX2bEPoSTL9/pP+pVp2NhgZ5CeeU/dA/Ko2Lwds1xqCfM7B9So1b7M35qoptmSyn5R2f94kj2DgK3cPu93VbThQOVe1QV9LKwqvRbBXsr6+xVJygePhVhcgCvuGisLniePd2CvEUEdhp2V4OxV5VYZEqP2tjFgjaRuXAfSY8FHia8Ji9Sa0uIaBJKrmNxy4eQRsbgi+gvlH7Q76+Lh8PMCVCntI7fZwqvXaRy7m7Mbnx7B3DhWDa2JyMAhs44sOPge2ue5xkuC+mb2eC1tOZdF+EXe2E+amsRu2jcCR761n3ZkYWLK4/auGHgwv771GbL2/iuteNpQpHWjUsADwuBcjgePZU7gt5FZip9bmDpa/DQ86d4+IOHALA6zd1UuucNDHqqsNwJmnlTOApieSMgX+UQqMjA20YMdRwI9lc+basi/NQ+w/rX6A2XtBTPGSQB1wSTYDqFv5a/P21cHfETLD11WSQKRwyhiFN/C1aKTWOZLgqX2u0tq7NNx4D23q3brY5p0YORoDYDQe3tqU9Hkgh2nGPp9JH4XUkfeQD21Ut2tgTyNlM7Qg8chsfMA1Mvus+FmWRMRIXRgy3FzmGo1PfblVveU2i7oomy2uvU8YJcdSB+T0A4Bfoalcfw229tYhiIUlkUG2cCOKO/MBiBe3jV+3aw+OF2xTLwsFDZzfTrFrC3PQX40bU2siqrRY+5Bmo0kZCZ/H+N6sVKUqxY0qhemGS2CjH0p1Hkjt/KKvtc19Nc3yWGTtkdvspb+eoVP0FabEJtDOIXL1ahasS3NbMEJJAAJJNgALknsAHGueV9qJKuqD4TsaQN60K3PM/IWkt4mG4/irnu4eyIMRjBBiQxUpJlCtkvJGM1iRrbIsnCx0GtdY3J2S8CSLNa0gVuj42AuGBPAEoxBA+iNa5LhnOB2kjMdIZwrk80VzFMfbaTzrRSa4lzMCQCDpIInm0u818haxTD3bBkBxwwg3nl4W/i5bvpI2FFhcQqwpkjaNGAuWAJzIRmYknWFm1Pz6s22/6RsHDSXv0axA95jD4Ug+L5D5VJek/d2fExxCCMySRu6EC3BspBLMQFAySakj1++sWyMEMNsxsJjpY0JZyAh6ZkBZJUuFsC3Sqx0NteNZaVfvbPRe4+OW3ZzBY67HEungdFEhrKu6L9MZA/4gcZUV6GMTpi4uXyMg+8rfyVMelHBPLhYujR5HEpQKil2665zZVBJ/qB7q1N0MPhcOWOCinldlyNLKwtlzK1giAKNUHHXvq84JJj6xC35cB5c6g6x1n9ottTB4Q2DMgnEC6CftN8KDazW0e7OPz/ACqv6NNkYnD4ORZ4mjJmZwGtmyNHGt2AN01j4NarhsMEzMwBy2UXta5Ba9vMVIwbMzAZ3zDsv1fIaVv4ZYl0Ur51qZYGNtTrUSdoiIywA4zAGnBVGsTTFPLqtl1uKxVsUrcqlrKlzc8B7zWwzWr7WntIkIbdlEUS288ImeF7oy8LkEMvIixuPbVQ383hjMsKBrrZiw+jewV/D1hUZvcyyRJdSJwy5Sps2a4vYjiLXrRx+y45DnuySqATyPZqjXBGnYQffWPvg6WuwXdZYnMDa1D9QyN4N15HPW7IhTDzrGhbny7yeFVjE4jixNVvE7bxMLGE5WQHqpYgAH6BvcDuN7cBU1g8HiJ2A6LJwLEt1FX9pjbnoAL3qp9N3kupZbfQaDtSH6EHl/MHcpbYe1GgDMtwz2zHuHqj3k+3uqP3n29K2TMCWU6PYsVHHS3b5aVYH3fdIw7FRf1QTYsO1VOuXvNaTQjMVOrAcPpL2jwryYuOC5lQ7bzUMTKiNm4ObGSxp1wHYDO4Nl004+FtO2tTFYGaGZopkIYMy8LK2U2zLfUqRYjxq37GkMc0HEAywkX06pkAJF+69WD0s4K5wsn7TIf4gGH/AMG86sDQ5hIGCnTt1VtdrHO8J3C7gML8NNyrW7G7OJdlcZUQ63J61u4AH31adp7qk3ZpTytodPAgj8K3tht8mtvoDztUbszbGJcATcGOQ6AC/C4tra5TzPZWltFoELn1O1LS90yBwA9ZVs3UwaxYWJFJOhJLG5zsSz/eJqZqK3dlvFY8VYjz6381StWgRcFgc4uJJxKUpSiilcm9Nkl5cKvYsx+0UH8tdZrj3pWiebaEMKC56FbdgzPJck8gABc1VW/QVu7Nj6lpOAk9CqVs/CPK4jjW5PAfiSeQHbXS939gx4VS7ENJbrOeCjmF7B38T5AfN39kx4WPiCxF3c6Xt+CjsrXxm0Ola17RjgObHtP5CvKVHM4rRb+0TV8DLm/njoN3mco3xj3klVkFo1PtccDfsFidP8hi9lYUYgynDxNKxBMjr0huABdQ91Thfqga3NZMHK1rIlu9tB5cfdWZdkiQ3lkLfsjqr+p8dKzV7bY2Oh7xOEAnkY/B91z2U6pFwXvae1IbBUOeQ8QoLEnx5+y9R+F3ZaQ55orLyDnU/wAP61btmQRRCyIq+A1PieJr5iJy+eQeql1TvI9Y+ensq2jaKbgG0QL8sOJjoN5AzUXMdi75u+b1Hx4rDQKtwsa3IUs8cYJXQgBmHDsrQ3i+Fzf7LG2Uo7ZwQDZR1BGeZZ7G44quhs1UvaGOhklLHFoFyxxtGolN1BzzIXSNgD0t7EX468LHNituYUTiQTFlWVHjASQSrDELLCiuqqqda7EPcgDS9Te5xlvrz+QtlKnRZsv2wTEwRIm6BF19/wDMGLbh8NjC6DIyxkKGuLnSHPISc17mUhQBp1Te4NeMBFiYejbEklQgZ2Zgny0soIjuWAOVVsOP9ZYVURthbyyfClWSSN0zRpN67uGLMWiVgoQFfWcgm47BnG2sBkjBkiROlikcBZ2SRYkIQHMmVizN1jlS/HrVEOJw119vnFWEUoglvk2+4G/HQ5TJxi4rruFxKuDbQg2IPEHvrYrm+5G2IEQIcWmVFC5gQAzFmdiA63ABkKjQaLVrbbuC+di04gXMuQXPAaEDWtAmL1zXgNcQ0yAcdd/mp2o7aWNjVTd18xespji1OVWtzIzcRfie4g+2oMy9POIl9RdXtwAHLxvRzoC9YwuMc9w+e2MLzsrYSSN08q345AeQJufMivW9OFw0yfB2KCRVzKBo6DtW3C/ZwNtQRWrvPtN1YxIGGUEAKbX6pYtprZVB/Q2NqPi9pXUyA5gTlWQizSE6XI4qoGlrm1iL6a1AsBIOJvPzTISri6p4XNJEfpvw/wA6/AtTY+7gklLS9ZIm6hGmdrce4C/n4VbcVOI47RhAV1AOig9p76iY8csUYF9FGp7z+ZNMFg2nPSTjLEPVjPrP+/2L3c+fZWLa0wXVfUdUdtPMuTZMEkzmd5W14N28r6jUW0AtbWpHGTlDdURzyLkZVtzyaZj3msO0tpKllUXJ0VF4nuAr3g9mkWlxJ14hAeqvjb1j7vxqLXEGUJWribyfKSOzyxkNoDoFIbgBoPdV09IOGz4J2tcxsjj2HKx+yzVWsdiFeN0jGVSpuFJUHTS9uNXrExdPhWX62Ij7af41roeJrgsNocGvY5UbBYk9AiqyhilhmYrcqpNtASfV5A1X9oYxYkF547icvlz6kK3S5VJAEi/KJqOwaC9S27+IY4dJEzZo2BIByniGI79CRY256io3bMaqrq0asgY5ZXnN1sSTdstnW2FhUk2sQq6gk15aqr2M22bj5KtlJuBxBj5npxMrpew2AkkUcGCuPeD+K1N1T9z8SWjwrni0ZRv3lGvvjq4VrWQpSlKLxKoO3FU46ZrdYLGl+eULnA83NX6uY7w4g/CZ8vFpLeAVFUn3V4VJphYsXMZT0a+qDr3kfkP88q8YwfBwD0ZYaXKdZ/Gx1I8Ne40inWFf2q1WxZY5ibn/ADwrB2i+iKew++cgSOeUcZ3LdYKVV79tuGZI/Gc9NVLw4n/PCtyLF1AHFBQWYgAakk2AHeTwrNhcWrqGU3VhcHgLe3h334WN6+TdZzExcuw6mFZoJmciND1n0B+iPnN7AfMr2149IU4hwIgjOUzPHCLGxCOQJCD2iMOfZW3uvhTk6U3vIBlvoRFxW4PAtfMfED5ted7930xkaIZGjdHDxsupDAEcCDcWYg6c6+p7PsZs9ngfqI5Ei7kuFaXtNTZGAPz55qkbxb2yrLhMHhJVwiENdkjV7Kq2jRVcEWuD2cBrXjYW051x5kxOJbFdBDlQsiRBXnN3sIxqcsS6n6dSfxe4jj8LI7sik+7Qe+sEHo6kUsfhTXc3Y5FOtgvZwsoqk9n1tkAEYbrzMzJYCLroBynMzLvKO1gcdMo4qubz74Szs8eH2iSJnEYhWFAESQ5G+VK5tATre/ZarTtrasMvQYf5GOOJWPyrDLcL0UYA5kK8jC4IBQHspJ6OGbKTjj1TmF0Ua2I1BGvGs0fo6la9sa2n/DA/Ea1a2x1Wua4RdkYv0vbTGEA4Tv0gX0iCL+R9XeqwQ4KE57PhlLgi6FSqlhGjFQPVAMTHjpmPHMRUBPgFLnrghT9AODkJyuuY2U6nUhhqNNKumG3OnhUKMSraWA6FMxA9g7eJ0rM2xHVc00yFF1OWNUBtrobajv4V1llXvEY7ocNHF6pygWv1iSCdSTcX1P0j3a1X9mbyNhppM6tFAAgeVkJjM5AOQt8xQrpY2tctqALFi8WHLzNoighLq0gF+qrsq3YgmxP7IOoqB2NtCZmYwFuiV2DvGRicJIbZ5GMcrCaAEkgEMQT261za9Zx/RlgcMbrjBv0Gy6RoCY2vo9zDCbyPENMwPIY6HhKsm38MZj0sZssrAs4fNbqalO0MpQgjTq6it7A7BV47MvVtYDsFYtlRlwgICqoFlXQD9lQOQFgO4CrNGNPyrZTZs3nExPIdM4k4+ZyucT6fOF3kqriN2gg6nWsbgHXUd9aeIkktYKb99XdiDUDtjasUbCNU6SVtQoIGluLFtFGn+FV1adMDadcAtNB9Vztlgkn4TOQ1JuCgdiqIi8kmshOh42Swso7NQfGvGNx5bXlcDzNvzr7itoyWzsIV0uAAxJBj6QEFnXNexGg4jwrAtiFLrlBytmW5W3FcynUD1SSpcC9jXN+ps73eF3NdMWeuG+IA8Djwwk7hK28M1ywGgKg279VP4CukbvNfCwH/AIUfmFANcmm2nHAwV75gG0AvmVrFSpGjA2Fje2tdJ3ExYlwMLgWuHFjxGR2S33a32bErn2sEsDoulU/ZDiHGYqFjYCR7X5KSXT7rH7FbUmz4buUe+fNmATpEObLe4Y2v8mhFiDp7KjvSLhXhxE08RHSGGOUBkDAtAeutyCLmFH7+rx1NR2EXaWNiE0mJjweGdcwEOsnRsLgtIx6htzDDjqo4VTa6xYzZOwBJEvnyAaBLpGhGHkoXOdLSbwCY1zm/I7jkrzsjADDQR2kzgPnzWyizNmYAcuJq4Vz3Yu24Zi0CTLMrA2cEG8qBekBIFiTnVjbTrmrzgJs8SNzKgnxtr763U3BzAQIGhEEbiDBWV0zetmlKVNRSuQ7XxISWd2PGWW3h0jAV16vzdtfa/TOSD1bm37RJJJ/z+dV1KmwJzWyxWX6irsm4Zndu3nDrkpNseWNyf8a38CjPwBOttBcluSqObd3naoTYuFMpJJKxpbO3M34Ivax93HuPW9g4KGCNXJW5UZbcFU62W+pve5Y6nnXKFnNZ+PEr6C2WujZaYawcBp8+TK1dh7qJcPicrONUjvdEPJj9KT9rgOXbSbdkGQC6iEuWkB5qdWQfvva/c0nM1i27j16RWjJNzZgOV+DeHI+N+VfcPjG0OY6cKnaLVZrORRqNMCCCII8756LitFoqzWa68yMxG4e8+s24XPDqjtPH2A8Pb5V9yhQT7SeJNu086hIMdJ9IHxFbkGJke4IFu428zbT2VpodpWas4NY+TpBB6hYn0HsxC33cDvPYOP8AhWHUnT3a/eOnleoYbYwyoiyyrnvlZOHA9G50/as1yeIFtSKkMZtKNCwMqgxkDMxsCTqYiebWAOlzwNuR1d43GU7pwMQtoYYc9f8APadfw8K8pMUzdnaeA1PDmTqNK+YfGiRcy3twsQQQeY9nDzqv7zSYzMogw7NwbpFkW4axBXIzLbQA31B0HbRz/DtC/gotZLtk3cVZoipuT3XvqSSbDMRpx0yjTj7IXfXWAi9r24G19Rp7eHtrW2FhsaJM+IcLEAMsdwzXC21y3AAvcHMb8SBULvptux0PqnT9+3H+EG/iw7KrdU8BJELXZLO6paWMpmTIMjKDv4bx5KrT7ZKSZRmVgQtz1WRQdVuulz2j86scuChdg6InSsLNIqqGZTY2LAXYGw4k++obdzdwzXlkFw3AHmO01e9i7FSLgLAcOevPj/m96hQpkCStfa1ek9/dsxbcSIg4DHdF2Oe9beytnhF1Fye3Wt4qvYPKhNQO8G9uFwhySOXmPqwRDpJmPEAIOHDi1hWlceFt7dxaxRO+UGyk27SOA9psPbVA2piEhiM0t2ItMzg2cuxyxrE4OmZrgHgqoTasu1ds4zELL00UeHj6NjHCXz4hmR0Yu9tAMiNpyJ1vUHvph5HgcNLG5RoJWeO7L0NnjJOUXspmVjYcDe1c60s76sxpPhGPHL1XXsv/AIbK+o39UnkNm/DAbRPEDRRe0dvYh4oZsKFiRj0LxIkbZcSNVGZ0LMJEKkZidVccqsaY1ocQ2EdgZ1jz5kToY5eqTIvR3KiUIMwkVQGsQV4Ex+AXYxiML7QbLKqrIvweRVBW2RhIy9Uo2uZrixYHQ6Rez4h/pVwFkAgkleQylWkyRKykuVAF2OVQF6vXUDStNahTqMLXARCxUbRUFQGSZIkEzN+BnVW/aGDV4zwJjAdSBb5N2CvGASTZXeNhc6dK1tDV89Grf0JVHzXkHm5f+euezSNFDKzyRv8A0WML0djlzvEqq5AuW0La9h4VbPQziS+EnvyxDeRjjP43rPYWvaGipjHrd7eS6nacGhcZ8QM+R15njpC8+lufoEw2ICBiJMhJ4ZSM5UgcQRGR7edc526cOkjJiJJsaUGZMLEvQYeGK2eMvlAUdRl1Rb99dY9K+C6XZsxAuYykg/gYZj9gtXPBippsHEqYiDDplaLEOyhpWVQFjUC3XvGbcjpx5VdVkVAR7dQCcJF0EzExK5rKbXWcOzDo53j1W1uvNrF08uEw6zKHwuHgXrqSpcSMRqcyXBubEgC4Oh6luxiM8HYVZgQeRJzW9ma1Uz0f7pYGNRJEmZvrXsZD3qOEfMaa9tXTZShJZYxoLKwHmD+VW0WFoOmOXp6kmZJN8LM/GPnz0hS9KUq5VrBjJckbt9FWPkL1+UcEWYoi+sxAHidPKv05vfKUwOLYcRBNbxyG3vr8y7LOUu44ojkeJsn4OazWjJdbswloe4bvVTO0cVmyQRMVhiPEetJJ86Q+0adlgOQqdwe0pGCoCSALKB2cgAOIFQOxtnxpEMRimYIxPRxLbpZcpsTc6Rxg6FuJ1ArYxO8snqwIuHj+jGLsw/bkbrMe/SsJaSC1vnl89MNF2KZZ9u0RmY6G88uatkGIymxuD2cXt+4Ot7qlMBigwBW9tRqpU3BsQVYAjUHiKrm7e/8AJCgikQSR8NCI5QOwObLJy9Yq37TGrTsXF4GeT+vW54YdwYnJJu11exddeC3B1uWvYUP7LY9oDHX/AIHBYK1tc1571kdZ88OqmdmxNJqNF+ly/h+l48PGxFT+FiCjTh7z3msSeQrMHrpWSw0bMPAL9TiVyK1Z1Q34aKi71bpYjOZcM2dXPXTRZRc6uhJCue429pqv7R2kYXKkTQqoBQTKQNR8s/XHHTQ9wrrWevjkEWIuOw6jyqRslP8AbdwVrbZU/df8+ZKn7n74JOThwhzRLqy6qVBsCxNspPHXjc9lW0Sn6J81/wC6vmg0AsOwaCtbFYqOIZpJEjHMuwRfvECr2tLREys73AmQFnxLnKTblVBg2BJPN0kgOQHRe25JJt9G59tWifb8BS4BmQ81AIPeCxAI7+FVza2+jaiNoIu/XFSd/VjKxqfFzUHhrj4iIH5Wiy1a9MOFEGXCJgyBu4646Qb1bMPAFFhYAcTwAUc+6ozGb54YEx4ZXxci6FYAGjU/tzsRGv2ie6qYuFlxSdLJmlB9U4piUNjxGFhCxKLjQnMfEWNRuOjxDExTOQF4ItljyngVRQFI9l/bevHWhowvUrPYHVHbJIHX5zU5idrYvGSGI4lIVtdosIczKvD5XFEaG+lkAJv7axHYLwqVwkkcJPE9Gekc8807Mza+FZNxlRGnQAZyEYDmyrmBA8C33qlcYxY2ArPUrOLVN1FtGqWjLMx+MFSsFAY5M7AmRWOYPqSbZWVjxNwSpPYal4YwGQrlWHrgPl65LjSGc6qTysQAVzG50qP2piGkxUqwo0hGUNkBbrKoDXtw1FvEVH58XG/VSRGIsRkJDL2MpBVl7iCKpc0uBbMfkLuNeHNBumLx5R0BOIiCRC3sXuZhXf1ZI7hSRFIoi65KiyyozJ1lIy5mtpUviMNlVVTJn+SGW3SSYnoLKnTOFUyWUDkF489RDLtDEWscIOXBJk4G40WQLx10ArXxc+JZSvRmNSLEJEyAjsZjdmHcWIqDmWgwH1Lp+2J4+voqKVCk14c1oB3kR5eJ1/8AtGktxXzb+OBBiTJYv0khjFkzagRpb5iBm5m5Y9gNXv0Hy9TFJ2NE32lZf+nXMnw7LqVYDvBA99dD9Cr2mxC/SjjP2WYfz1ro3OATtFn/AKrjjh+QP40AAyXTdr4ITQSwnhJG6H+JSv51+bMICAVJAZLgniCw0IBW4PDje1fqCuFb87qTYR58TlU4d5TlynrKJCWGYW0UE5ePZVtdpIkBc/sesxlQteYmI49Vu+j7bRgDg5mvwUMMnibqTfwtVs2LvDJJjo1ZQFdXQdoIBk46D5luFc83cwxsrhyA3YBcd2t/wq87uYBVxcJJZvXIzH52Q62AA4XqukSAAupbqFA7by2SWm/eBduyHqujUpSti+UUTvOmbDSL9LKv23Vfzri+8m6xikZ0FrhgR80hhY+B537Rwrtm3D1EHbInuOb+Wo/aGASVSCK8LQ4QVNlR1My0wuA7cmzTG3qoEVB2RxqFUDs4X8WJ51oV0Levc9hdkGo4d/caoEsLKSrA6cQaxvpll2S+jsdpZWYAMRiPXeM7l4rPHiCFymzL9FgHX7LAj3VhtS1QWwiRBCmtn7bki/q3ljHIRzOi/YYtH92pvC75Ysf71MR2MkEnvESH31SrV9BNe7ThgTzWZ1ioOxYPwugrvtivrz/yI/8AvrHLvVjG/wB5mHcqYdPeYnPvqiCZu2s0eLYHXXuvb3173lTVRHZ9n+3qVasRteeQWeSdv3p5FHtXD9EK1kJDZ1ESNzZY1Ln/AMxwz/erRbaOGNurOLHkyWI7De57OBHOvAxuGJN/hAFtLNGTm101HC2X73dWc2iocnfOBU2Weg28U+k/mVak3gYQLGwzOoyhy2hA4My2uW9utQYMaiwtWg2Nw1xpORc3BZPVykALa2uYqdb6CsTy4Ug2GJvra7R2vyvZeHbUdtxP6XdPdWU2spzsNIlXbZe8+HECxSSdE0Yy6qzKyroCCoOtraHvqtbX28skhZAcoUKpIsSAS1yOWrHTsAqO6TCfRxB8WS/A8LDtIOt+FfP6Hr1cT3HNGT3j1bcPyr01Cf2O6f3KmnQbTeXtBWKTaT5gysVYG4YGxB7jW7id6cfIuR8QbcCQFVj/ABAXHstWCL4LrdcQfWt1kta5y36vELa/K4PKs0Ywn0cRy+dHp2j1bHy5Dvp3pAuY7p/cr3Ma8y5k+SlN1mXDQHFZFaTpBGtxdVUJmcjva6rfszdtWzZe8EUkYvBJJICAxUAqWY6C+cWuARw5Xqh4TFjo3hfNkYhlYDrK6gqGy36wIaxF+QI4a7eztoyQoYw0LLmDX+VRuIv1lF7kKB3W517WfUa2aYBO/r8kcV5UoSDLSTOInDLDTTVXP/TUTq6x4dzKq6jKCFOQga9JdvlNeB0HDlWUbWh0IwshQhXLFQCYzY3AEnApFO1yeNhaqhhtqOsssmaAmTKQCJbKV9U6J1uRPbXvFbUd1IDQqCmTQyjq5kIB6mtghHLRzWd1S17QAa2Lr7rrhtZ5Ekbwq+5P2Pj/AHefIzGHUqV2/ttUZFSHo+ouZXVes1yGOjHqkgi3cakNwoFi2rIqXCNhywHYH6CVR7A5HsqAiSLEStJiGRFyhQEZs7MGzZmd1BPVutyCbEcxepLcvGl9qrI2hk6VdOAAjJUC/IBAB4Vrsz3HZc+A7MDJRr0ybM9uyRDbyczII4wARuBgbuxVDb2bL+E4OeC1y6HL/wCIOsh+0FqZpXTXzAJBkL877nYrqlD80gjwOh/Kuk7Eb+l4bvMn/wBTn8q51t3D/BNqTxjRc5YdmSTrgeAz29ldB2If6ThT3v74n/WsbbjG9fVV3B9Db1a7/qfRdDpSlbF8oo/aOzEntnL2BuAGyi+ovpzsTWp/qxB2y/8AMNTdKIoNt1sOeJkP8ZrRn3AwDm7xZj3m9WqlF6CQZCqPxcbN+oHnT4uNm/UDzq3UqOyNF73j9TzKqPxcbN+oHnT4uNm/UDzq3UpsjRe94/U8yqj8XGzfqB50+LjZv1A86t1KbI0TvH6nmVUfi42b9QPOnxcbN+oHnVupTZGi87x+p5lVH4uNm/UDzp8XGzfqB51bqU2Rove8fqeZVR+LjZv1A86fFxs36gedW6le7I0TvH6nmVUfi52d9QPOvvxdbO+o99W2lNkaJ3r/ALjzKqfxebP+p99ffi92f9T76tdK82Rone1PuPMqqfF9s/6n319+L/Z/1PvNWqlNkaL3van3HmVVf9QcB9V7zWTCblYOJ1kjRkddVYMQQSCDb2Ej21ZqV7sjReGrUNxceZXiNbC1ye88a90pXqgqnvDuJhsXOMRK0obKFKoVVSFJIJupN+tbjyFS2B2FBFlKpcpwZiWI0tcX4GxIuO01LUqOy2ZhWmvVLNjaMaTdySlKVJVJSlKIlKUoiUpSiJSlKIlKUoiUpSiJSlKIlKUoiUpSiJSlKIlKUoiUpSiJSlKIlKUoiUpSiJSlKIlKUoiUpSiJSlKIlKUoiUpSiJSlKIlKUoiUpSiJSlKIlKUoiUpSiJSlKIlKUoiUpSiJSlKIlKUoiUpSiJSlKIlKUoiUpSiJSlKIlKUoiUpSiJSlKIlKUoiUpSiJSlKIlKUoiUpSiL//2Q==;" parent="1" vertex="1">
                    <mxGeometry x="590" y="1025" width="130" height="130" as="geometry"/>
                </mxCell>
                <mxCell id="Mujl-81metIkKJXt9XZx-26" value="" style="shape=image;verticalLabelPosition=bottom;labelBackgroundColor=#ffffff;verticalAlign=top;aspect=fixed;imageAspect=0;image=data:image/jpeg,/9j/4AAQSkZJRgABAQAAAQABAAD/2wCEAAkGBxQTEBYTEBMWFhYWGRYWGBgYGBwaFxMXHhsXFx4aIB4ZICkhIyAmHh0eIj8jJiosNC8vGCA1OjUtOSkuLywBCgoKDg0OHBAQHDImISYuLi4uLi4sLi4vLi4wLi4uLi4uLi4uLi4uLi4wLDAuMC4uLi4uLi4uLi4uLy4uLjAuLv/AABEIANIA3AMBIgACEQEDEQH/xAAbAAACAgMBAAAAAAAAAAAAAAAAAwIEAQUGB//EADoQAAIBAwIFAgQEBgEDBQEAAAECEQASIQMxBCJBUWEFMgYTcYFCkaGxFFJiwdHwI4Lh8TM0Q3KSFv/EABoBAAIDAQEAAAAAAAAAAAAAAAACAQMFBAb/xAAsEQACAgEEAQQABgIDAAAAAAAAAQIRAwQSITFBBSIyURMUYYGR8ELhI1LR/9oADAMBAAIRAxEAPwDw2iiigAooooAKKKKACiiigAoorIoAKKkEpw4c1FpDxxyl0V6KsDhTUv4Q1G9DrT5H4KtFXW4Q0r+GNCmiXp8i8FeipnTNAQ01lW1kKKkVqJFBDRiiiiggKKKKACiiigAooooAKKKKACiiigAooooAzWQKnp6ZNbLhuD70kpqJ04NLPM6RrV0TVnS4Q11Xo/w1qa0ELanVzgdsTv8Aaum4X4a0tITA1TO5gdSPYZ+mSZJrgzeoY4ceTWw+kq/czhuA9E1NT2IT52H5nFbvQ+FNXF9qz5kj8u/1rseGLAryG0NAAUG09ogAY3O2a2OlqiMQeiwZDbknHQbfY1mZvUcnhGpDTYsXSOOHwYBvqEmJgL/k07R+D0OCXB6SAJ2x/sb11WqTaACuSIaD32A/v42phgKfvJtAv33wRnuO9cn53M+5FvC6Rx7/AAYDMM0dDCmfyNVuJ+DGAlXEf1KR+012mrqgEKWwFuK24B27Wye3esPrLEM9xbIFvQd52HWTTx1mdeSKT7R5lr/C+tmEujJt5vHTNUH9PtwRB8168mooIYWwTaDhc/0znacHfFQ43hNHX/8AURTOA2zDpEjO/muiPqcl80U/l8V3tPGtXg6q6nCRXpfqnweZPyDI/lYw32JEfn3rkOM4JlYqykEYINaeHVxydM5s3p+OSuJzTaUUsrW21eHqtqcPXbHImY2bRygUaKa6VArViZxOLRCiiipFCiiigAooooAKzRU1WaCUrI0zT0yTVnQ4Sa2/A+mM7BUEk4H+9h3qnJmjFGhp/T55OWL9M9OZyAiliegEnt0ru/Q/hkacPrqHbeyRagyZbufA7da2nw/6QmikKRfBvc9sYEfhq/rFRlTLRAtEsg2Jg8ue5rz2p10ptxh19nocWKOJbUYbXMjknYR7oGTvsMZ/2akjAm0EGIYP0IyLsDp996xc7KC95EMbVALP1gx4x9ulI4YLdm8gdTggYNs/0tjNcFKrLhj8HOZAMEGfxAYgz37fSs6PDFRgJAkQVwNjuJ8GPFY03N1wYc2LlkRkjcmPqY6bU3WC6ZyyhSAACphpgmSP2mo56ByfRXfWK7spvDERuIncwYxsOnmkgEhSVLZi1uUdfr9cdqtfOAILNbeYJiAQI7eIz5o09DMm0qzbEFogE7k/v+lTYydIraXEM03MskFYhSGAMwev2NM4nXLKtgQACDylSYJxjsc4/vU+MQOygBZiAFAtuG4geMQY3pumsKy6TWLILCxoHQlQdx4G0U1rwK2uHRV0NItIusJkWyxUnJ3iAvXxTOI3yxUvAQnY/QjGR5qwdYgPeB0GJM43OJUZ/X84ibSS0gMBCg2Fd84jE7iKWw3O7KqcMWcqHYweaAfrGdjH996Zq8Bp6isrpIGBdFw2M4z1n86s6ekp1WYAjGBaRkSZDbeM+KE1Lc6YBPuyuMZKNGRHYfr1La6ZEps4r4r9CGlY+mOVhBgYkf5H7Vyurw9ew/LFkaiiGEFfcrT2232k+K5X4g+Hwksklf1Trnx5+1aWl1vG2XYbYZOJHnWrw+ap6mlW/wCJ0IrX6mlWxjy2ZWr0KT4NQwqNW9XSzSHSupSswsmJxYqismsUxUZFFYqSiglGQtX+D0ZpOhpVt+D4ckiMziqMuSkamg0rnK2i/wCn+j6mpFiEgmJ2H613fovpenpEo1xaBfBjwBPTPQdhVj0HQTT0EDCCADBwWY5/Sf1qD6n/ACGw7GAWB5+k/YkmJ7V5zUaqeRteD0kYqPtiXm1RNo9qsSR/NInr0658086yAkM8i1tvwlhsfPmcSaqAgsWU8tzAyTzDJxON4GPFUtXjW+YWZ1a5lNoywAAIEEDlH7/WuSMbF2bujZLq8xJZlKwgKkLClfJxPQ75FGjw73QzAzcxjJnG0wZ8/elXsd1uRySxu5l6lm6QR1xH7S0tNLrwICqUDSQIMAe0xvOemaH1yRVdD9QMlz6g5TCwwXlbBBB6wJ261XdhDQyrPKJOLST+EiPtM5NM4d9S1gylmRsMZwNiVgSBGbs0rimcaZclSWAEjNokAm0xt/N5qWvoWN3yJ0uJQqQxLgHCiYHUQTmZzcNvtTxqKb2YqEJUAwStuCWxymf5txRqsXIJlFCrFwEuDInlx7cbdaXqINNgNUG0jADGI7EYAgCcjP6UcWPwyZucE6TALkE7x0mJItMz9xT9PQtYkl5iIBAViMDb/I2quuobQoYEsoKljBbciQIG8Y/xUvThZpxquAQYJP8AMZH1E/t4pWmlwEujCcKysXvcKACVBILNPNtjO2Kk+uyQCbSTMCfaxiMdAOhp6cNOA0lRsyWhl3xMZip66gQApLSrA28p8HJzHeobfkXcmymupaxUAKjC4LNytvPSQesU3T1TejOWtyodTnH8wOY8noavJwavEBg0woBwj+8HIiOv6Vh+GnRWW90zcvKxkm64bQcQabb5K3lj1+xR4khtQBCIOUObljGJ89PApvDvcSuoiwRvmCMYtOaXxOmq8qr5mT4IM+R2oZC0DYquCDz98zvjIPikstpUjjvif0r5b8vtO3jx/f7iuX1tGK9Y1eHGspVxi0Z6XSSGEGc/5ri/W/SijRGRjH5VqaXVcbZFyrItr7OO1dGqevp1vNbhyNxWt4hK18eSzI1mkpWahhWKbqrSq7EzzklTAU3RGaUKdo0MbH8jZ8MtdR8M6ROskCWJhZGJ7/Qb1zXBivRfgvgP+M6jGN1B6iY/LH71ka3IoQdnrdItuLcbj1HXCLarTDBQxzcCDMz3NazimDIADJBVSY9sSTCyAP8AAO9bfikVgbQHBPMxIGAJAGMi6B9q5/W/9SSGCqpkg3HER03nOekVj4lZ14qo2iagvVYfUZiTCbRMwF7nt1mqnHH5RAZYY87EA3iQBHTbaB081LgtYRfNpVwTqRIRYBjuZz/jamENxDuSbVuJVCJjoG3n29KelHlgnUv0LHCcxUuCQpNlvKrDEzudxMHsKzxak6qF7wpDSokK+MEwAPMnc9Nqi3DMNNUuUwGcBMNddaYjP36VNzY4NrarTygkkK0Wwx7RjINV+eBOO0GlrsLFGoycwJKm+yZFpbIz5mrPD8SrBSvMA7MxJhhuJWRG4m361SRGtZbVC6eQNwjbnmXBj7kdxUvS0CH3SXuYG2VZtv8AR0qJVRDimrMDhyVIIBLmVcrc4zHKZgEiNu571Y1yoJGuWdhILN7AF5RbAgYM5qWrrAFNQ7zCEjG0Hb29aaumGVkYwWFoYALzSG6kn84+9RubQr+2LRApsCghCss2Ta+VAJ6+P/FLXSZmcLzFQCwg3ACCGXvAxHjvRoasq97M5BiLMA9CQeuwEf3p3Bazh0YsAFJIK8snMgAnvjzPSo4vkHuSdFTi0ZgTpajNdAVbyx1O5GZiRHes8JxK+0u5Y2nKxY2xk7Y77VsPTrmYALE3tz+8AAGOUYJI2337UnTN/wAxhaotIuzLNILrzDaDEzvFM+VyRv8A8TpfSuLVm+UwM/ibGRtEjFWn0To6gvYMmVDWCNOcw3dSeuIjtNcZwWmUS/RJUg+0ktd1gb7REeauP6xqWksSVUw3czm0/Qd/FXQzKMaa5/vZw5NG3L2vjydB6j6Li4EAbgrt3GTI26ePFaHT1QrC5QH2EYJGROcfY1sPS/VCEdSVKkyoj2kwQTAxNajV9QnUUMoBY2mR+LbIMb4z5qrNsk08aos08MvMZ80O4lIYQ36AEDePP/aqvq/ADUAMcy4Yj8Q6H+1X0C2nmghGFjC4qMHMZj6HY1nhdMkkMDz3WSZ5dwDnpP5CqkmnwXrJt5+jzP17Qgx2rmuKFdv8QaOneQzspneJA/Izv4NcX6gQMDNbujlcUW6yvwrNJr70mm629KrYj0eMy/IKdob0mnaO9DDH8jdcAs4r1z0nSGlwqIBLEXxgFtjGfyryn0zTkgDqY/tXrdskopIhcMY9whevf/PevO+py5UT12Ff8USOthi6KpKFjAhTbEWQfPN9T0rU6tySIkPLDGGaBOIn7jufNbELLkHLNyxEK5xJk5gYwKRraQDXFmVrgQzGQSWEqPAH+wK4IP7OiFIj6doTdessoYxOCAoGQR+3fzTm1tM6dsKguDQR+AdT9wRvtHeovpMoVgQ05bM3GM3Duf7irOqrNcxCt7gRGWwMdx0/Oob5B8uyPDqW1BYqhih+qqcjuMnGPH2bqKWcWchKh7bjJCzdMwBI80rU1DfphplkyggBTEZ8LvA7VjilX5YRQuod1MmSDF1wbfabZ/LFQkip3YziOHRTyaoe5bSqjAkDG8GSBNJZ9UB0DiES4wns5Y5zmSfFRXWVGWUBvWA4AtCjEASSo2zv+lWNDVKhgWRw5mVBuuUgnYdKdv8AgKaX2Z/hrVueZKoLY9xMA2kf271nUcoeRhYGKmcF33BkzgZB+nWqTkyHLEqWBDENyNuBg4I2jz4pv8OWIUmDcbtSAAIkbA+4+f8AwlImv+zLHGAFl1GdgiNdaqEktvN25HTbtS/mFwW1DKgvyAQpAMErGzCcknM1DT1A2m1zsC8rsJJGRaQ1uRiZ7VLhgy6loJgqxK7kwQQ8HNwOOuYqb4p9kba/YZpOgtdWIWFBf3AtJJkd/tisHVR9QozGd7WMQwwTA2uG0dqXoOWDMhHzABcYIUZAHKYAcifpJ707V1mGdVmgOQGUqWcEnoRAAB71FeCK5NPpuwZ103QrCqrXBWdTJwSDzbie4q8hV9MjTYSG57gJ1CoBxEW/UdqzxPp1rW6ah7nm82m5QcEAfv484lxmlZqhgtpa0Fdi0ALcMRnwasm0+ixSUqofpaXzNBnVQGF02sZKgg2nHT/e9J19cNq2FgwKLzSIUEgEN9jOe1WtNWIiYY3CMqrSs7AxMQJPaqh0QoCqSpXKlhHXYz2neetVWhI9ssvCNbercoW4G4MV32yCcVtdb019NA8TOSM8pkkR9RjFaHU4gKW5YdROFGbpEEb53+wrpuD9WHyW07YlUZJlvDCepA81ZCMJXu4OfO8kVHbz9nE/FKIJYfiF2dxNea8Ylej/ABmSUBHS5Y7da854tq0/T/jZ0Z6/A5NNxAzSKscRVet2HR4/N8jFO0Bmk1Z4cZqJdBhVzR0/w6gOtpg7F0n8xXqD6YcjbIjAJMSOo652rzv4O/8AcIIklhGAYIz16f8AnpXoumdxLB1BtickwZHTB615r1F3kR7CHGNCdXUBc3iTawVogkTDY2g4OOgqX8WsLIYWMcRjVJk2rHkWye5qDsXutJVxBhtlbFxH/TmPNJ1VleUMLVNzAe68XBSCfd3x32rjQ1JodqatytqPei2KVAgBcxnzH6CpcYy/KLgkqcPad5j8IzJxnyKSUlzcDBZd8ooEMFgb/UdhUuB1nydJJWSbsARIDbZkf26xRV8hVck+L01JC6ZCLJdmLQWAEZjPNjI2g0nR1AyiReWb3agwt2S0D/8AP1ilPCaRKE6jNdlt13GSYJAnaOtSXUWIH/xiCchR069ql8IeMeC/qcJyouiFNhYkhisZJgZ2Jxk/hpPDcedHUL6aBmCEtYerXCBI/mO5HQ47p13EKQ4leYo08uNxO7Rn86zoapwzCWkkz7oAJztgYOAaE2uRNlxd8osawKyJLoSrMrDmRgt2FiJO1wNVOHV31GhWCxZqqrhhpsJIORIkYkHH1FXPS+HLkwpucFgL7gAD+EjeDBqOnqAacFyXUAkb3K5KkEkzg9+1Sn3wJdcLsrcPppazaTm3TYMAqyCbY2OT9ZzBp3Caihx81TcRcGX3NtN8bQSIH17UvVvJNsA3WrEcqwGkwRM7QP8AEXn4PDuAWZUjmBAtcAhlu3E4/eo5Y02l2+yWpxem6Pfyt+KAbyJAyT12M9IFI1TpsGCsSqQsGLjAXKkkC4TOZ2qrxOg5LZQWledmkKRBtBmcnqawNcDWJNoSy9lEEM+AWAI6R7QT0oStWQoJfEuekcR8oISAWDM1pI5tODkEiAYz9jtNT4hiwK6ZChBmRJVWBMZz4npmZpDBfkjUZZBW5JXmSWt9pPgY807W4ldN2uZD7C7A5ZiYG2GAXH28USti0t25dlfh1RSo5XKFpwTapBNgncDBye9TOrBZXKM5CwN2VjdbM9x+1R4fX9jKxlSzAAwRuoUjqJ6nvWdTWLAFh7mWXttYFTKgz3GARSvnsenYjR4gAu4ydS0KOzJBkyMEbfWnaNwGSQAQzDtAMN952jcVNtFtPTVrQNiYIGTvgdgBtvIoyVF5DE2jlMSCTv12M/8ATUSZPD6NP8XsP4cMCDLg42Mqcj7V5vxdeifFxt4aCBPzIgfhi6PzA/U151xZrZ9OXsK9U6xGp1zSKdr0qtuPR5DK/cArY8HpArd2METn6/StdWx9N17DMTPelyXt4LtHt/FW7o6P4dIXX0yZwynGD0NelcRP4TDSCpUcygbnHSJH3FcD6V6hpct2mzMCM8uPyG3jxvXfvstwFrZGdycZjp1zXmfUL3p0euSSiqEKq8oC9YjfrJyMwFEfc1Y1dcQuAC6CCSFBIvEbYIBkmOh7UrW0ySVQdQw37AGcY/m85rHC6qTc8nJIAF3foehXsNj4rjiRJWrF6mspcAnAAZnX23LJ3GMCMeKxpMyqyKptcAXu1tzQx5RjfaZH6VHWa8EaYLByFtIjBi3GN1xPilavFnSukGAjQvRV3WZ/ICMkEVYl4Q1WqLWi12nci83OpL5KRBkRupo4gm3TZA8lnAJgMzbSZEQBG42I7VDSicrcLAricWnPghh0M8pqb8FZztaFJQrLkKwXN0jF0mM7wTUcC8J8iLLnOFmxhLAgNBBsidxnm8ipaFvLqMgvfIxFr5jJPYbeBS9FJhD/AMnuIkmEU7c0f7A7VPQ0G1VsJZ4GCjASRAk3wOkzP2qf0Hlx2DF4sGopLAFIG8Es2RjO+/WsrrhrlcByRYuoAse4GBOQJztvtNT09X5NoSTplIOmfwN46MsTP2qb+laeo5UuBqMpZiZCATyjeAYHTbNSkhHJLlrghxOgdQ2Ec0kN8thaCAIwxxIxiNjT9LUewo8theYe1Wn23nOO0dD9KibwqgWXgMFcAFiMeJ6/l9ar8TqlRCdBDKuLRJBIugggGZAxNJd8IEm+Bx0gum7WoWUE6g7wYmCNzcIPWOk0WZkqnzHRpXoGwYxjb9+tVtPhWRjc7amIAfqARElsyTt5FS4vVBUqoKNKswHuGTkrv0/UVL/QlRd9mOK4eC7M0CUGTBY5Nu2w7kftVzhdMWl9XTZiBbEYDe/Pid+nNVEu5QuxDXiWVxgqGBjJxEnfx9ataiEo+Hgy4kxY22xOI3obomSbVMxo6iKR8xQz6hNyiVtWDEwMxgQe9N0+In+Zii2AlQBI3OT981E/Mu03hR7SzEpJQ74nbAM42FV9LVEOERyN4yFksQctEz/YxUPlC0m/9lm0K3O1zkEXxAwbgAveDuOx7VLhSSxGVJ5thGQwnrnbH+aXq6f/ACQVjlSB1CgSYIx1zHQD7K0ElwbpNzZ7pJx9QMZpX9jJJxNd8brPDKQM3gt3GCMyd/8AvXmPGNXd/G+qQdPTkbFzGxJJHX/cmuA401u+nQrGrOHXPbiKGoaXUnqNbCPLTfJmrXDGqlP0GpZLgswS2yN9wbxt1x+xr0n0DjPm6Etm02kDovuBgZ/LtXlfDatdr8FcbGodM7OI/wCrJG/fI+9Yuvw3C/o9bpsinj4O2fh5DFyYlVuH0DffGM9xVPjWAdgmFIhWiJQgSo+hz9jV0OQIY8snecmIu67jHXpVr1fg9JdNH0WZlPIVORMTIn+3isaCtNrwRv2zSl5/g0PEJBKBr1K3rIwywCoBGQQcZpv8KjJcxYvAlSckkXRkbg5jpArGjwbh7jDTC5zBMxI7EYx5rc8NwjpptaJUssktMBYu33n9Ke7fBZkyKCXJpdfSVNNlCyoZpBxfIBAAO1p3ONjVjheGLBRrAMFAYkE2skEQqg7g9vHerI9E1dR11bSwueNmBYkmWnMDv4/NPEzpmVNrMzCIi3bCx33kdpodqrF3qXti+SuCSkleVgyTbBdZtuLH2EGRGQYPcUvSuZC2n0xprm17Sbpnx+3XrutbgNfT01UWyxYqzxJ6wAMFieYTHWtfq8UzMBEhlcMim03CAMDKnA/Wmaa7REMm665/cqJxDHmOmrLk4UnMrO4unJ/KrHFMfmaZLKWOTkEgwcQY3xStZnUnTVZADEh9zkE57TP+4qOgAzgxCy7MwILYB/m3AGaSi79QKskXFQEN5JTNvQlsdt+pHirWsbEuVWN9rTE4ba5s9vbvkea1fBaKuGJcDVWXBItUxABInIg4MbTVteK07flj3LyMiAiT1eZ2gmAd6aUSJdr/AMG8PxZOmRqrbIbUVok6ZXYwcWxOKnw7LqahaGCkEkgwxIhoaBmT0nGR4qs+iUICBypgAe4FVznYAzi4D86xrDme0sqsSpkgdgBnEASP9zFrwRsXNFTV1VPPpBlDEqQEIAFwC+LiSdj+1W+GVVIR1lnnTwTYYljhj9Mnsfu+WIZiTabDN4gCRyW922MfnSdbSDIgaSLmcFGkkyY08fQfrTWNutUZiNQ3lWaCLbZC4mDGN4z1moaDlEKWuVImJJ+WQxJbOPdOOwFMXVkrur6dtykwIOGuE5gfqahrMii662fckxkyYH1k58mlt9E1Y/QdVKwcyAD7onGT3J/epcMouPNJVsg5jJMYA3Ofy7UHRiERFtAQ4JtXmXfzvn+nzVb1bjF0tBtRcRcEz7mYmCek5u+1KludLyyOzh/ijjfmcRqMNpgfQY/WJ+9cnxjZrYcZq1qNZ816jTY9qSMb1PMvihBqNSNRrsMBhUlrAoFAI2HCNXQ+ka9rq0xBBrmNBq2/CasVxaiFo9F6XmrhnsIYPpDUnlMKYPt36jO/ntUU13nYEKsAN9gCMd/zjxXKfDPrFgs1W5GNpA6dbsdjjHmvQ9HgDq6ZZSptElWzKjmBEef3NebyYJQnSNHNJY/l0VuFcDUN2mZkHbB27YzvIrsNDh0bTcNADSLsAlYyI6EZFc5wOmCQ8TmBLQeggz5x13FK4b1MM5LoubixIkMQRMzkY/YVdp8kcXyXZm6jHLN8fBueL4O219EkIFMQeVtt+k+a5XX0VJId7OYWyLjfMdOmdvrW6X14AveByiAo9rDaG6HEdK57iONOsxIVSFBXYElZB5P6+31qM8sc2nAu0uPLC9y/c2b+o6h01Oo8cr3uIxBAkfywomR52rX67qGUBSAkAFtSWM5zPn69aq6+hYANaQgUAIQA0n3cu0dd5E1SfTDX4BWxQI+wxImJ/aqpNy+TOzFhiuYl7iuKQuoaXKm5bWAgGQNzsBiOsVDi9UnUQKzODyhFIEXYYkhbgMkY7dIpWnrBQvIhCKCxTJVTKyLhkDruNqBqshhEiAjKF5tRjJMSTFsde1CjTLNpnilB0yjEF12gE2IpGJMEx53NSXUuRl51Xu0FDsZuXPLnO1J4jTLNOSrYdB7IMmGYne49NsiMzRraaAMl5BA08AkjGLYMAqdvMmp4/vgeuC7rgHTZAQwKkMZJcggECSIWRJ2OwpPpmnpyqu7GZVVUllLfhABF2B1YjbsaVbzMHUBmX2iYXBBFy4EQM+QKdw0W3iIxY8mVI/Haw6ZyMwKhOlTEcfbwxGkCBGoAqzLwotWzG0ySxjEZE1k8SxYgFwqraFOPmsZLMpUbyRt3p9sG9sibmZm5XE4bGBHaNqFUGTMCxwoM86kgmBgBegM/tk3JkmV0iykrAImLsM+BcSQZ7AyIwKboKrQqm4i1i21xgHJ79YHRRS9FSYdwQSAotFotm45knMDAjpTNV404Ym1nDGOW6MAz589qrbXRDslfIiOUxAMi7cyf6evmPz4n4x9QDag0lONLlMe0t4+m32rqvVeMOnpsTaXslSMEDvHYE9T3NeWcZxGTmu/0/Bulu+uhMk1jhuZR43VrXMadxGpJpNejhGkeT1OX8SbZGiiinOYKyKxRQA3Tar/DatawGn6L0k42jq02ZwkdFwmtBBr0T4W+ICY02aDsjbQYO/T7R1NeU6GvWx4fiorL1On3nqMOeGaG2R7Bp8TaLoAIMGMrM4aOkb/nVHitTnYhsNBOBDzJGB3zkd61/wAMcc2roXakcjWhjuQADn6Tv/3rb8Ut0ExjvOd9iOxzHk1gzThJwkWxioyEaguEhhAGxNpna0gn9Z6VS4vgrmT5bxqSVBJgkpI6Tv0nvTdPmYglQo3BzzQYic42x4oS0tbiRe0Xyz7A8wjP1/zTQ9rLaa4sVzED3Bit1uOcjBunMk9f9OYR7Fcw55LA8FDvMD9/IpvDsi2sim5VLQzHm3ACz27g9PpVfS1iOdQLgCYtGXbYg74M7npTk8vouCBaoQsfaGY9htaYx9IH7VjSul4VFVjJKnrFshgejD9fNVwt4kkWKkMSCGU5Ow5dhOD0H3cwjYBsC6WQKFMZ+pGdqTlcCtIQGdoLHmHuJWEWc3Kp3JAiD17Vc19VPbpqvzIyVBJYERcd/pBMCl6yO0jTIBtECOZJnf8AFb3JFR1dT2qOWMNYguIgc8DIk48R5qeyHy0T4TTZdO1S0JMnC3N/LtEefFS4nCwVQkiMM107QBHTbpMZqGlrMeVFYN/UMAbq0kTnx3NKGqGYafuabiVaF/qEjJP+42qFd8k1bsvaeneTAYm2QTbaACAOXYNJ7Zg1XTiCrlmkMIVQc3gA/wBOxPaBielY1tS0f8mFDmRzGZi3pnOZ7k1Ay5JnnwJWSAue+JncicVC+2Qo/fQwoLgVDMGMYJAXqSZPel+ocQmip1NVce0KM3HeYwO+T2rHqHHJo6RfUaSx9k8z7nfonmP3rzr1n1d9ZrnO2FAwFHYf5rp02klldvoTJlUFbNh8S+ufM/4wVIG7KCs74iTgTXHcRrVniNeqhNeiwYI440jzmu1ryOkYNYoorpMsKKKKACiiigAqSmo0UEj9PUq1oa9a+akrUkoJl+LUSgzquD9acBVLEooiyYUiZ6Rmcz9K7j0X1rRZLVY3QYRsGewO2a8k09eKtaXF+a4NRoY5V9G3p/UlVTPW+H19LVj5RJbmDjZhtBIMRB6gdIqeigDA3HHNsZxGTbA8SB42rzPQ9RYEEMQw2M5H3Ga6j0/4ucQNZb/INrfeMH8hWbm0U4fDk1ceaM17WdI4DPahvna/mVVMywzEHaJ6ClpoyYYAuYeAMKACCwiAO+SaXp+taLCdLUEw3K/LBxsNvEA/3pa8eXGeWDtnbBOQIked8Vy7cn0Wq30WdTVcIxsAXYBcyRsSPPcbA9agh07muWFKwC2QywMGCBgYB6TVHi+OmNUB/d1ETgDwf9NR4fj9SS4B6AXfg23ncnbOYjemWNpWNt4N0mWVpUKAyta8CMRsZmOm2agqFiSQRzxEEGLRmRvjod5FVOI44BQSLgbjAgksSQATuPqO1O/j2tjsoJI3nA6GIA/aqtsu0LtZY1dRdRDLEid1ePwx7TBk7Zjal6ZDGMthlI2umN46AY36Vr+N4u3/AJC6riBdMgbEQSBPXAmtPr/FqaYhedu+wkY6zOP3q2GnyTXtQspQxr3Ojqxp380qAAVgCQOmxMRGcRtWj9T+JNPRlNAh2gC6AEHfA3M57Z61xnqfxLqamC5t2gHG8/f71pdTjCa0cHpj7yfwZuf1PFDiPJt/UPUzqMXdpY5J/wB6eK0+vrzSC5NRrWhijFcGJqNdPKYJoorFWnCFFFFABRRRQAUUUUAFFFFABRRRQBmpKahWaCU6LOjrRVj+OitfWKRwTOiGqyQVRZafjGJp+h6pqL7WYfQx5/36Vr6KHji/BC1OVO1I3w+JtWILT/8AYAn8yKc3xVqnJtkC2bRMRHTxXNzWKT8tjfguXqOoX+R0f/8AU6syCB0woGDVfW9f1HEM7donEZj8q0lFC0+NdIH6hnfci1qcYx3JpBcmoVmrVFLo5p5Zz+TMTWKKKkqCiiigAooooAKKKKACiiigAooooAKKKKACiiigAooooAKKKKACiiigAooooAKKKKACiiigAooooAKKKKACiiigAooooAKKKKAP/9k=;" parent="1" vertex="1">
                    <mxGeometry x="110" y="1363" width="100" height="95.45" as="geometry"/>
                </mxCell>
                <mxCell id="Mujl-81metIkKJXt9XZx-27" value="temparature = 18*" style="rounded=1;whiteSpace=wrap;html=1;fillColor=#b0e3e6;strokeColor=#0e8088;fontStyle=1;verticalAlign=middle;" parent="1" vertex="1">
                    <mxGeometry x="53.01999999999998" y="1470" width="206.98" height="40" as="geometry"/>
                </mxCell>
            </root>
        </mxGraphModel>
    </diagram>
    <diagram id="JN72HO62WJtomoZIQC5C" name="datatypes">
        <mxGraphModel dx="1038" dy="615" grid="1" gridSize="10" guides="1" tooltips="1" connect="1" arrows="1" fold="1" page="1" pageScale="1" pageWidth="850" pageHeight="1100" math="0" shadow="0">
            <root>
                <mxCell id="71FgNAqwy47oRVF8dDIZ-0"/>
                <mxCell id="71FgNAqwy47oRVF8dDIZ-1" parent="71FgNAqwy47oRVF8dDIZ-0"/>
                <mxCell id="71FgNAqwy47oRVF8dDIZ-2" value="" style="shape=image;verticalLabelPosition=bottom;labelBackgroundColor=#ffffff;verticalAlign=top;aspect=fixed;imageAspect=0;image=data:image/jpeg,/9j/4AAQSkZJRgABAQAAAQABAAD/2wCEAAoHCBYVFBgVFhUZFhgYGBgZGBgaGBocHBwcGBoZHBgYHBkcIS4lHB4rIRgYKz0nKzAxNTU1GiQ7QDszPy43NTEBDAwMEA8PGBIRGjQeISE0MTQ2NDE0MTQxMTQ0NDQ0NDE0MTQ0MTE0NDE0MTE0MTE0NDQxMT80PzExNDQxPz8xNP/AABEIAKgBLAMBIgACEQEDEQH/xAAcAAEAAgIDAQAAAAAAAAAAAAAABgcEBQECAwj/xABEEAACAQIDBAgCBwUFCQEAAAABAgADEQQSIQUGMUETIjJRYXGBkQehQlJykrHB0RQjYoLwFTODwtIXQ0RVc7LD4fFU/8QAFwEBAQEBAAAAAAAAAAAAAAAAAAECA//EABsRAQEBAAMBAQAAAAAAAAAAAAABERIhMQJB/9oADAMBAAIRAxEAPwC5oiICIiAiIgIiICIiAiIgIiICIiAiIgIiICIiAiIgIiICIiAiIgIiICIiAiIgIiICIiAiIgIiICIiAiIgIiICIiAiIgIiICIiAiIgIiICIiAiIgIiICIiAiIgIiICIiAiIgIiICIiAiIgIiafbG8NDDf3tQBuSjVj/KLm0DbxK5xvxLUMFSkxubC+UevE/hPTAb6Cq2Rsyk9zHlxsQdTbW1hw0ubA3KLDiU1vft7GYbEGmuIfIUFRCbG6kkWvbiCCPY85Hm3txh/4l/eMH0NE+eRvXjP/ANL/AHjPZN8ccOGJc+t44pr6AiUVS3+x6WvVB+0gM2uG+JeKXtpTfzBX8Iw1cESt8N8Tb2z0AO/K9/x4TeYHfvCOQHfoSdAXsF+/wX+bLfleMVLInRWBFxqDO8gREQEREBERAREQEREBERAREQEREBERAREQEREBETTbd2n0VJ2VS7KpOUAkk3AVRbXUkX7hfugR7fje44cdBQI6VtC/HoweJtza17X8L+NY16xYlmYsSblibk+JJ4zJxODxNSoztRrMxOp6J9S2rHs8Oz7THrbOrXVWpVUVmVSxpOcoJF2tbWw5TU6Rh4c5iz+g/P8AL5zOTqMjg2ZSGB5XUgiSfZm19l4cBQouv03Rme/M3YaeQAExN69v7PxFLNRdemRhYBHTMuoYElQDbQg+ffGmO3xAoB8PhcQvBGNMn+CoLox9UX78hn7KOTfKTnYynGbLejoz5SE49qm37oX5dhNfGQvDMXyooIfUFcoLXXQrlJ6trG97WiFmsSrSK87zzDza7S2dkC53Klr2uqlQRyZkPV87EeImlY2JBOoNiLiNS/NnrLptY3Ovhw+Y1mdXwLrTFQpkF7WuL8L6jiNBGx2pDrsylrnKCRpbnbvmTi8aHFswtmJ4jyHymeXeOt+JPnla42K1LOvSrmR+oxuQUb6LAg/1rN9tDdN0u1F84+o1g3o3BvW0htBgGK36rXF+76re8sTdTbC1KAV3UOnUN2FyB2T+XpNuUR/Yu8GKwLWpEsinrYWpcL3nITrSby6uuolr7sb14fHITSYiov8AeUX0dD4jmP4hceuki+09nUcSvWIzDsupGYevMeBkD2rsqrhqqVFc03U/usQhte30T6cVPK/ESZqvoWJV+6HxLDHoMcVpVR2X0CP68FJ8dD330Fm03BAINwQCD3g8DMq7xEQEREBERAREQEREBERAREQEREBERAREQMLF4m1wOXGa0vrb9Jo9v734bDV1pVns1Vr8NFUkgMx5Lpx8PCbM4k8pFZNj3TqHt+HP8e+ea4ozlK6mxI1txgYWJ2HhXJZ8NRdjxLUqZJ8blbzWY7dTCVFKLRp0+9lpgN6MLWkmFRTDItiR3XjRpNgbEpYZClLsli2rEm50PHymxGHS5LIpJJObKCeJtc8SbWmT+zW4TxYZefGAGHpngFHhlH4EXnb9kH1V9rTow8Z1VyOBt+HsdPa0D2TDJzW3kAZ6jBoeGvtMQbUQNld0B4docTwBBNwf6veZqvfWAXBoP6H6Tn9kTx+X6TnOfOch4HQ4BDx/L9J0/sql4+y/6Z73nN4GOmxcNe5oo321DfIibOjlVQqAKo0CqAAB3ADQTDzjvHvOQ/j+cGM5a4JtfUeB8efDkfaenSTTgsGubZRc31BB15WtbU8+c96OKDKGRgyngy6g+RGhjRsg4POd5ruk/q07LiCOcajPiY9PEA8feZEoREQEREBERAREQEREBERATicxAoXeLDCptHEtU1CdFSQaaXpozceIux08ZO918R0mHRiblQUa/G6Epc+eW/rI3t/Dp/aVamSozPn0IL3XD0rWTtFdPo34cOY9vhzjs64mmcwKVFcKwsyq6AWI78yNeW+CbWnVVFp1ykc4RjbvmVdsk4e4B1nYGcNwPkYV7U6xBlfb8fEVsPWNDDKjOhAd3BIUkdhQCLtwueXC1+E2x+JFKk9VuFNHc+SKW/KUZu/hjVdqzNYls71GF7Zib5V0zMzBu4AKfIpEqe7o7/HFOMNiEWlWb+7cAhXOvVKnVWtw1sdeBsDuN68K9SgcjPmRg7IrFc6DtppzI4eIlebXwQemKtNyWTrK1srqVPgddRcMOdhYaXsLZG1v2nC06/0nXrAcmU5WHlmB9CJbMRH9j1dnu6KK4pqQ2cYihSdBYXAV3TiSTqTwE9cEEcVmw6YVlpuFU0atbCvUJAPUSm9ibsF4AXnXaWxqbszKFUubsCgZSfraFXU/ZYA8wZrsButWpV0r0XpOUbMA5deHAZQhBH801KzYlWOrYnDGmrHGoamigdBiaeaxOUlwj5rKTbNfxnSjvsyuUerh2dSVKVUr4VwRxBLColx5ianbtHa9estXMVyrZRQq00UGxGazVbk2Y8pq8NuTtF3FRwt8+c9K6HMb3JJpuWk6WSpzX3vVTTFRHpJUYqlRGp1absPoI9JiR6gcPG4yNp74YbDKHq9nTUAliWvZQvM2BJva2nfI9iNi1E6N6pp/ulK0qdIMEQt2n62rNawvpw7zNFvKK6mnVohC2ZkOcJYdIEsbvYL/AHY1JHaEmT8Wakb/ABhwQ7NCufSmP88xqnxmofRwtQ+boPwvIbWobTbrZKTHkVGEc292InApbW5Bh9kUF/C0YJW3xjB7OEA+1ibH2FM/jPT/AGmP0KVEwgIapUQqKzWVkCNxCa3FTuHAyKUk2tc5nccONSkPzmxp0dpNh6l6hDLVokHp6anKyVhU6ytYC4p8SPC8uDav8TMTpbAM1/q1Kh/yQvxJxn/Lan3qv+iRTGYXGWGfGqnHt435AK7XmBUwrDt7Tp2/hqYiofRQn5yC29i73mvTqjEYZ8M6U3qKtQnLUVQMxDFVOhKgj+JdddJRuptkYimQe2mUML3tmGmvMace4iU7uHsqhWxbAVnxKdEwqZ0KWLOmUC7MTqGPLsiW/u9sulhmbow13sGLMTot8qgcABc8BzjRJIiICIiAiIgIiICIiAiIgJwTOlRSeE0mPoNArzf8Glj2rLlJdfMkGnTQXN+zdW05nyFot8P9oLTxrpnyLUplQTqcyEFL34m2aSnf/qKH6pJsMjZrkrmKOuX6ud9Doc3hKhrFg1wGBvobEcOYMo+j1dxxUOO9OPqh4ehM5p11OgOvcdD7HWQD4aV670XapiSyA5EQ2ZlI4lidV0tYA63k2fEG1nVXHiL+veD7yYrOLTgvofIzDR0PZdk8H66e/Ee4no+cDVMwI0ZDmHtx9ryDC31e2AxX/Sce4t+cqvDUmXCoqi/SM/nnW6oBy1yW/wAQnkbWfvKwqYLFIpu3QucvBtFJF1Oo4c5WWGKEUFWqgZqaK9Jy6q6sQRlqBbI4JJDX4keINhWwSqi07twyMF+zVqPkcd/VW/qJmfD7FZUxNA6dHUDr5OCrfNB96dt7q2SmtVcOxai4W90ZGAZwuIZqagXOQ9UgBWbwAOs3CxN8dU7qtBmI5E3puD/3e8t8RL8RPXDNOmLSxmKcRkUsTYCw4EkkmwUAasxJAAGpJtIJLhgTMwIZUm0PiA6sVpoLKeLMbm3gpsPczxT4i176hLeF/wA5MVbOJoZhaaPF4FWVqTrmRlKsOdjzHiOM0uzN7zUAJq0xf6JJLfdDSRYeu9QXCkjvKkX8rwKr2luzTw7BK+INNjcof2dmR1v1WWop10tcWupuJrTsVT2cVQI7yKq/I05ddfCnIUqLTKHUrUyFD45X09bSObTweADohw2GqPUbL+6cLkuVALik4Kg5u7kZqTbkS9K7XYgH/GYUfzuP/HNts3Z6ihikbFUSrrRJdOkfKUqjLcZATfMQLd8m53OwZpioMMMpKhQtXEhjmIC2VjfUkcfOKW7WGSniFGHfJZA6lmOYKQ62JqIQBcMSSvytArVtn4UccU7W4hcMVPoWcCe+z8BRqN+4wuKxTAi6llCa/WNNSVH8w85ZFLZOGo5smFpDIafWemCctRmVWDVHcjVT2stgQTYTjGb208OFWrTqvmZwgUqAAgQltQth1xwBGhsSLGBnbnbHXCU2d0Si9QqzojlkRUFkTOzHMdSSbkXbwvMjF/EPA0XCmsGYEXyqzAebAW9iZoau8uHx9OrhKaPSrMl0DEdcKczqrDgxUNa40vfW1pWmHopVenTp0SA1SmhqM7OylmAAuoRB5Fb+Myr6wiIlQiIgIiICIiAiIgIiICedSmGFjPSIEF3x3Tav1061ha3OVJtTYz0mKspFu8T6Vmr2rsWliFyuvrYXHkSJdFC7t4xqDOASAwHuP/skNTb5C3vN9tf4cFbtQe/8LfkR+khG09kV6Bs6MvjbQ+RGhliPZ943Dg3It3aTb4PfN01IzDnY5W9xo3qDIVUWdBKq0aG92FxCMjnI5VgA4y6kWsDw17wR5Sr6BCpRAQCqC4arUGZaS0ibkUz1WYKua7A9wF7GYdQG82GysOa6VMOCAzFXF+LKpHSqDy0VG8cp8ZnBud4NptUpKtJqqVT+8zdIxYsEyhLjgciOLDQsNO1MLdKqf7TQk3L9KpJ4n92zX8yVExMMzFw5FgmXEMdbACrUOQnSzEOQB9YWmNsDaa0sbSrVDoGcu320dc1u67iBbOJWQDbm1mdTUQgBi9PDguqiygCviLsQLnMEXW4DORYiSvaOMStSdEcAujKrX0uwI4jgPGQbaOyWqrQBGR6VNqTKQ2Vh0lSorq6Kyi/SEENl1W4vfSDUAYjkXP8AjD8Q896QxLMBnqKt9SK3L739XmZR3bpf7w1R9g4Yj0L1VPyEk+x9l4ClqemY8esKRF+85KmvqTKOdk4JGpmpVcsljmV2fKAvEsHNiNPKR7eDfd3PR4cmnSGmZbq7AC2hHYXuA177cBLt4DgqtLI9aqqZlORDRUtbgCXe2UcbDXTnI4mE2UOFFnHK9ermPmopqAfWQQirXzG5FydSSRc+ZIv85sN3NoJRrio+gDBtBfgb6eI4i+mkmNLB7MPDC2+09Rh8q4m2w2zsJyw+E/mSpf51GmpbLsSzZjD/ANoeECBQMRcHMCEpKAwcOCFLsALjha2p4csfGfEegyMi0axzZMzNVQMejCAXORg1wgvca3PfJG+AwqIajU8KqqL3WjSb2D0zrIhi/iCabFcPTFhwZqdJPYUkBt6zKshd7K9UP0ez6tTpGzt16rhjlyG4pquYFdCp0sALaCYe1tk7TxeUtg+hVWdh1uj7WW9zVcmwyLYCwGthNbiN/sa/B8t+5qjD7ruy/KbvccLja2XE4xqJv2ESnTL+HSrb8L90owcBubikqJVSvhg6MrLasWIKkEA5VItJ3h90qD4ui1OpVqtTxCVQoYtSoojBjTuRlA6oAAObUaSxsPgKAQKtNCoAGoDmw72a5Y+JJJmZQoKgyqqqO5QAPYSD2iIgIiICIiAiIgIiICIiAiIgIiICY2IwqOCGUEHiCL/KZMQIBt34d06hLUSKZ+r9H07pA9q7m4mhe9Msv1l1Hyl9ziXR8xVsKw4qR6TyQMjB0JVlN1I0IIn0ritlUanbpI3iVF/eafE7kYN/91l+yf1jRQm3NvYiuLVDppfKoGa3AsVHWOp48LmRmpUuZ9HVfhnhTwZx7GarF/Cam3ZqD1WNFCI5BuCR5G0yBi6nJ3+836y2q/weqX6tSnbzYflPEfCGsPpp7n9IFXftVT67/fb9Y6Zzxdz/ADN+stMfCiuOaH1/9T1X4V1++n7n9IFUAtPVC3jLapfCupzemPvH8pm0vhd31B6Lf85dFS0KjjvmelepbS8tzD/DWkO05PkoH5mbOhuJhl45j6j9I0UhjDWdMmtj5zXUdgVD9E+0+j6W6mGX6F/MmZtHY1BeFJPug/jJo+dsNufUc9VGPDgCZKdj7gYgENkKka3On4y7VpKOAAncCNGn2RgXVFFQ9Ydxm3AtO0SBERAREQEREBERAREQEREBERAREQEREBERAREQEREBERAREQEREBERAREQEREBERAREQEREBERAREQEREBERAREQEREBERAREQEREBERAREQEREBERAREQEREBERAREQEREBERAREQERED/9k=;" vertex="1" parent="71FgNAqwy47oRVF8dDIZ-1">
                    <mxGeometry x="70" y="50" width="300" height="168" as="geometry"/>
                </mxCell>
                <mxCell id="71FgNAqwy47oRVF8dDIZ-8" value="" style="edgeStyle=orthogonalEdgeStyle;rounded=0;orthogonalLoop=1;jettySize=auto;html=1;" edge="1" parent="71FgNAqwy47oRVF8dDIZ-1" source="71FgNAqwy47oRVF8dDIZ-3" target="71FgNAqwy47oRVF8dDIZ-7">
                    <mxGeometry relative="1" as="geometry"/>
                </mxCell>
                <mxCell id="71FgNAqwy47oRVF8dDIZ-3" value="[Car] Memory&amp;nbsp;" style="rounded=1;whiteSpace=wrap;html=1;fillColor=#b0e3e6;strokeColor=#0e8088;fontStyle=1;verticalAlign=middle;" vertex="1" parent="71FgNAqwy47oRVF8dDIZ-1">
                    <mxGeometry x="150" y="240" width="130" height="20" as="geometry"/>
                </mxCell>
                <mxCell id="71FgNAqwy47oRVF8dDIZ-4" value="" style="shape=image;verticalLabelPosition=bottom;labelBackgroundColor=#ffffff;verticalAlign=top;aspect=fixed;imageAspect=0;image=data:image/jpeg,/9j/4AAQSkZJRgABAQAAAQABAAD/2wCEAAoHCBUVFRgVEhUYGBgYGBgYGBgYGBgYGhgSGBgZGhgYGBgcIS4lHB4tHxgYJjgmKy8xNTU1GiQ7QDszPy40NTEBDAwMEA8QGhISHjQrISQ0MTQ0NDQ0MTQ0NDQxNDE0NDQ0NDQ0NDQ0NDQ0NDQ0NDQxNDQ0NDQ0NDQxNDQxNDQ/NP/AABEIALcBEwMBIgACEQEDEQH/xAAbAAABBQEBAAAAAAAAAAAAAAACAAEDBAUGB//EAEgQAAIBAgMEBgYFCQgBBQEAAAECAAMRBBIhBTFBUQYiYXGBkRMyobHB0RRCU5LwBxUWUmJyk7LhIyRDVYLC0vGDREVUlKQ0/8QAGQEBAQEBAQEAAAAAAAAAAAAAAAECAwQF/8QAJBEBAAIBAwUAAgMAAAAAAAAAAAERAhIhMQMTQVFhIiMycYH/2gAMAwEAAhEDEQA/APTA8lVpVQSdZpE2aCWjqIisKAmNJPRQ1piBGokgEcKIYgCFhZYjEJAJMG8NhEBKBAitHJiAgOEjhISx7yACgjBI5jEwHIjiCIiYBCImDmgs0gcmCTBLQbzQIwkWABJVEkiGoJE40lu0B1ixQIgFZaNIySnQA3y2iGhRPGW1W0RkZeTlR5YiIHpI5eA0UDPFAiENTJFpRFJUJWkitACR1EKkvGLSOo4AueGvhM44tjqOO6IgaueEriYxrOeJiuTvJl0pbUfFIL3J05Kx9oFoAxa8Ln2e+0zKtAOpVr2O+xIPmNYaUwAANwFvCKgXjjh+q3mn/KGMWv4Eo5Y4EVBuuDFLrfw37rcfbIk2ohNiCO0ypiXyrexPYNTMWpWzOqi4zEd45y1BMuxSqGsVP4sYZM47D7ScHq2sDoLcOGu+aP0xmRgjvTexsRZxfsV7+XumaHQXj3nlNXpNiySprnQ2JUKARfeLAcJY2Jt6ucWFzu4FJ3ZHcsrZWQcd2jHUcR4RRb0xjAJkODxaVUzoewjircjJjIpXkbtDMjYSgLw1g2ivAmDR88gvHECYNETBEISBR4ozGQA7SBjJssB0vNCDPFeSehhKgECDWKWLCKBOO2GCJXd46MZKFkJFlgg6Snj8XUS3o6LVL3vlZFy2552HskEG3K2VAq6Fj7B+BKFEnKOPbIsbiHqOBUTIVA6lw1r66sNCe6T01moQYJhgGMCIz4lF9Z1HewEtgwpj5JTfbGHX1q1Md7p85VqdJ8Gu/E0vvg+6Sxr5IgvbOeqdNcAv/qFPcGPuEq1PyhYBf8Rz3I/xEWOqddJz9fN6ZQOZtw1sZlv+UnDN1aNKvUPJEF/fM7aXSlqQWvUw7KCWAUuuf1GNyACBu58ZYlJbODupsalED62Z0va9xbrXU3uN3Ga9PHUFIHpkc3tZA76+CzjqSqin0mGzo5zl1uKgY6m7Lcm3aAJpbPxDizYSqaq2uaVQhatuaPufTv7pm1hgdLEbD1GNPcHuQRoUN5L0axCvjEZfrYepfsOelp7IumWOSqiV03OpuLWsyuabAjvDDwmZ0Aa+JB5I48yvympIejU6r0nz09/1l4MvI/jT39PgMalZMyf6lO9TyPznOV9T7PDhIKVVqbB6ZseN/VYcQ3tkV2RWRtA2fi1rLmXQj1lO9T8R2yw9OLFYmJUllaIkgQRaK6pDtJcsbLJagih5Y+WBHFDyxZZAFoxWSZY2WURFYNpPlglYENopLliiwBAhDSCBHtAMPI3eOVkbrA8z2pU9Pja4qVqiIjPfJUZCFRFWyC9i2cbrG+sobc6JtSKH6diSr3tdySLBd+v7XsldEepUruiM4FSq7EC+VWqOwJ5aTqOl1TqYY/rK7eYp/Oac5mbcUOjF/WxVY95v7zF+h1LjWqHwT5TYpvJBUioW5ZCdEMON71D4oPcsnTothhvVz3ufhaXxjk/W98nFUEXB0MVC3KjT6P4Vf8EHvZ295lmjs6gvq0KY/wBC+8iSGpBLGIpmbXMOANAAOwaeycn+UBurTH758clhOlwtQ3vYzjOnWIzVFTgqjzYreJ4MeXbbK20npTQc2YNlQ8+qGseW8zQ6GOMjpYdWpVy6blFaooA7gBPMNpYgpi6hBtlqIb77AKutuPdO56KYwAq40V6lX7r1Xt7xMRLUMXpJTyYdk/Vr4oeHpw4/nlP8nrf3kfuP8JodMzZa45Yiv7Uwz/75lfk9b+8r+4/wm1erVRu7hfv4iQsvt0sdxHH2EyfL7dYLU76WvfQjs3EjzkVRoYt6Th0JBFtP2b2KkcdQNO0cbTs9m7RSsoZDrxXl8x+N84vFJfXffdwNj8QyiZ+ztovRqEqSRmNx3nXT4fgKHp8V5T2Zj0roGQi9tR8R2S7lmQ140LLFllAXj5oWSPlgBeK8OwisJAF4ryS0a0AIxEkiMCK0UktFAqLeSqsdRCvAEU4FdbKx5AnyEsKZDj3tSc/sN7jA8t6J4HEUhUNWhUs6BSqlNSwN73awtc6yba+Dxtb0aphgqU0yKXrJmIsouQNAerznWYKqLCX1Im2dMXbzuj0bxp9anTGuv9qN33TrLw6K17HqoDY2vUOhtpuSd2LQwBBTzZOhWKtYvRHi5/2iW6XQ3FaXxNIAfVFJjp3l53+UR9IVx1PofU+tiE/00mHveamH6MgAZnU91MD3sZuFoi8JTNXYVNdSx8FQfCcH0t6N4Z3ZznLG25lA0AA0C9gnebSxuUGxnAbYxZZt8iuS2vsTEPWLpTZ0qZCGSzAEooIe3qG4O+3ZOs2XsHEpTRBTc2DHgCLsSL+YlbAY16bB6bWYXsdDa4sd80aePqVaiCpWe2dfraA3HDdMFMTporZaxYWJqsSORbDYO481MyfydH+9p+6/uE2+n1/7e5v/AGnK3+DRHwnPfk/f++U/9Y9gmvCvZ0USVqYI3X4abxfiPZIacnI04jT1hw46+UyrOxwBud4bQEadVuuD3gqPwJy1Q9dtb3JO62pNzpw1nV41L8N/VBU/V9cMO3Qec5Kueuxve5vutqdSLcLEkeE1A0dl456LhkPeJ6FsvaiV1BUgNbVeOm+w8R3X7ifNUm90ZxaUXZqjBVK2udBmvoL+ckjvIrSOjiEYEowaxsbG9jvse3WSQh7RrQooA5YOSSRQI8kWSSRQI7RssligQ5TFJooFINCkKyQGBIJS23Uy4eof2feQPjLQMz+kP/8ANU/dH8ywOcwNfQTUSvOfwtSwmgleWxrCvMvGYrP6Qs1kTqqL5Q1QqDdjxHWUAbr37LSDECVw4DElAwJuNbMrc1NjyEli1hKzU0pa3DhVYBsy58hJZDu3qQbTR9PMdHLOGfqqu4A3JNrZmOlzbTxlz06cz5f1ixc9NIquIsIGYZSwINt/PylKrUvFjP2tiDYzjMZUuTOm2s+hnI4ltTAkpvLKNKKGX0qBkCqouDqdLnTXhfiBv+rukRH+UCoP7QA3zEMD2ClQ/wCQnN9A2/vlH95v5byfpRUcu4a4y0UAH3VB77J7Jk9FcUtPFUXY2UP1jyW2svhXvVN5ZD23HKeZ3aam/gDOTHSzCg29J7DaQ47phRCf2b3O62U23yNW6HG8hox6oyndl1zDw08ZyWJcGoxBvc5t1tWAJFuwkjwmQ/SB2fMjWAsRv00sB8JOmKLHM28kk98QltjDtD2qAcO4y5vU0F/1xy75n0K8WO2gpo1BxGTTXXrq28dgMmX8ZBbK6V1sMWIBIzXcPcC7AKBbhbKNBuvPUNi7dp4hVsyh2UErf61rsBztPHFq50GawOtkIBBI0BBN9bD3eIYDHPScvTqFTqupAOpFwQBuIE5Y5zCPfLx7znOju36dSiS9RAyEh7nLYXsu8m+ltbm58pu066t6rBu4g+7vE7RMTFiaKCDIfplPMUzpmG9cy3HHUXlFqDK306l9onL113+cT4+kBcugFs18wtluFvfdvYDxgWYpWfG0xbrrrl0DC9mNgbX3cfAzD2p0pSm5Smc7EsoyDNkYBbaaA/WO/wCrMzlEcjpbxThcTtx2dihqBSTl6n1eH1uUUx3sPa088wnSSsi5ErOAL2AdgAL3sBfTdw7Zs7N6d4hBZnVxr64udbfWFr2+MrPgcO2+ko7QCPdAGyMP9W69xv8AzTHfx9SxpmHW7L6dqTbEJlGlnS9tTY3B17dJt4/atGvhqno6iN1TpcZuq36u/wCqZ5biNjvclKgbsa407xI9nbMrenphl+uOIO7W83j1McvKuxoGWVaWcPs7nLK7PE7UrPDQg80RgRCGCXlJQzs0INNIYVeQj/RV5DyihnBoFRpsLhxu08oD4BTLQ47araTla++eg7V2XodZyGJwFjJSWoUKN9NfMzpcB9AQKtWm7tbrvnbKGvwUHUWmMiZZp0tp0EUYepTRy63drgVOtxQ77qLW7RA5np2tEO5w4IVkXiSNNOqG1A36dpnFYU2df3vhOq6TUGYD9UBUZ7aZsz288s536LZ1Cm+vK3DXw3x4V0G1cRTKpkyFhoxRChBAAysDo37w32MyDWPO39IdZGuSBcXO7X3Snrx8j2SDVw9Xnbw3His1qNfqic5Qa3D28RumhTqmwlG0mKlbFY8hLr+sAbjkwU+yUBWj062uuo5DuMzlwJ3zlr5wLbr8O4SxiGtZmsC3VLA776g27vd3XpJUUgE8Ceqb7/iJJSxDJqxHWuNdQeHDUb95nChr4RrtdToR1lFr5r3DEjffSaK1rMCpPHUHXTtE5HA4k5wFJsTYX007ROr+m2XNmAA0sLatNY5aZqWcoW6dZzudwN5JJFzvGpO+FbMxctcnUsWvduO6ZI2qM1hduF7kX7hzhB9dXAA1sTr5TpOX+JS3jsYtNRuJ4Gx579ZDs7aIdVDaGxt3XFibzLxgFRr5jksL6agW9gghlFkQ+qOB3acZznJYhv1Kt95AA1zXNvPiYWAQsC7WyfVN9SVIsb9tuHITBxdYImRtWcXuCOGo3i3H2Sy+JtRCUw4FhcWINt5JGk83UiZ4W6W620TmPXq7+CaeGkUpUqegu1Twyj2cIpyqDdZ9Mw4e2OtfvHcR7rw7DlBKDkZuJiWhfSBxPmJf2FVUVc5IsqO3IDS1yfGZ2Xv8paw2IoUqdVsTRNVCmoVmVst7ECzLe9xvPCdOlp1QlqG1Pyh1S5XBouUGwZwzFv3UBFh3yp+lu1G3FB/41H8xkOM6QbLQA0NnMSbg5q9VN1txWo0rJ0mwY/8AbU8cViD7zPqascY3jdispXT0l2qf8QDuWj8YJ6Q7V+2I8MN8pAOlWD/y2n/9iv8AOGvSzCf5ZS/jVz/ul7mPo0z7H+fdq/bt5Yb5R/z3tT7dv/zfKN+leG4bMoeNSt/yjfpXh/8ALcN9+sf98d3H0aZ9iG3tq/bv5Yb5Qj0v2lSsajgj9ummU/6kAHtkf6WUP8uwvnW/5yTC9LMMD19m4ax35WqDTtzMb+yO5jPg0z7bGy+mn0g5K4yOdFIJKOeQJ1VuwwsXiNZSXpds4MV/NqEj9hRu1GpZvPSdGnSbDlVdcBRIdVYZiD6wB16nbOeUVvHCxNud9Jm0HE285xm06tVcQ9VtVWuQGBuOoxFl42IHLWd1tXFJialNxTWktMk5KdkV75TZ8qgsOr7TznDVKRdHIYdXemtwrtbONLWzFRvvMNOo2vhaleg6UlZiv9oqqCbLmGYgd842j9JoOHVXR0PVbJuNiDbS24mdts3pUiopGGAORQSlWup3C/qtzAkuN6a1AqmihQqwZ8zvUz0wDmW1QkA8QRygc/htvYqobVqdGoFGYtXogaXA0ZQDe5A0HGDU2thmYrWwjKRv9FVJHYQjgi26b/SvaL1lo+kKeuQGyhRZgDduFrgGcHikIqlSLEEqRyIJNvC4HhIOnwezcHWF6eINM/q1kA8mRrHwEmfoxVtem9OoOARwCfB8swsHcA204/gy0mKqjc54Wv1vfJa0mxOx8Snr0XA55Tb7w09so5d9x2TUobcxCeq+veR7iJq7TxL1sM1QWOVkRi4QsahsxyHJcLqN7X1knLYpzFMFSQxHvuDy8pOFX63WB3Ddx5wcLgy5bM6rlFze+/hpwGp15jdJ6alV3C/WCtvBsbaaaf1nGcoumUNSgtNs9MX3kX1HaJZxOKugbNqeFuO/n+LSBNoAPkfXXce0a27I2LwxYXzDTdqOJ3WOs1E7xacwfZrEkubaaC/Fu7xk71TcKASSd+YZbbzwlBlyZUNr69YaesdO+XKIZb6BdLLe1yJqfZH02Jq5NLnNzBB7u+TYcadW6kjUnlyHbuMzMUrO4Cgknd85qYSmEUIzZiN5I3b9N+sxltCxG5V8JmIGYm4AI5+W7S0vPgySCb2AHVF7G3A34aD8GRelVdfYNJDicebBVPra27BOEzlPC0NsZWGm63DTT2Ro1LC4lgGFJ7HXePnFLoj4acm3nH4MHOI+e/Lzkbr3TzYy1Fpc4g18MaqPTT1nQgX5gg/CVjircL+EtYPawpN6RkLBRqNR46AzfTyrqR/aTLz/ABuDK9XXQnUg2vyPKVlw5/WX71vfPTdodKsBWF62GDNbfdw/3ggPtmG20dlnfhao/wDK3zn2deGXMMVlHDkhS7V+8sf0Z5r95fnOsGN2V/8AGr/xT84Qx2yfsK/8U/OX9X1Pycl6M81+8vzi9Gea/eX5zrvpuyfsa/8AF/rF9L2T9liP4v8AWX9P1fy+OQ9Gea/eEMUxxbyBadaMVsn7Kv8Axf6y3hcZsm9/RPccHqvb32i+lHFpWTjaOGZ3uFbXcoF2Pco1J7BO1pYVqdKmj+sqIGHJgouPDdNeh0owKLlopTQHflKrfvIFzMnF7Ww7sSKqC/DMJz6mcTtDURSvU0RyOCsfJZxeG9VzxAQeBbX25ZsbV2o4dxTcGmVtoAQbpZrNaY+GGjDmqn7rHT3eUxCr+HwxKKb2FpMMKOLmdJsvZ2GWihxWctlByoVUAHXUk79eUKrtDZtO49Cp/eq3PkoMmyuc2hXDYbD8bMyd4Tq+4TIrL/eD+9r7f6TS2liKLFKWFuFzuwBNwjOFAAJ1tcX1lzZWJwdNqv0o1A5bKMiBxkyrfVtBrfhutE7RsK+Gp7wOVx57pcTBnq3BtbXSN0g2jgXo2wrVlqKQVzKFWxIzKSoG8c+IE5miXN/XbQgWzHXhukiL5W6dWmBJJsD32M1toF61GjSLoqrTUanLqost9bk693VGmswOjOAYYim9ai7U1UlgykhmsQOq3aRPUMNtHDj1KIXuRB7pnLGaqDl57S2W9gqMhOpbKSetuvYiWPzBWcgkuexabsL+Vhwnon54Qc+4W+Eb87oeB8Zy7M3dmmHBp0OrkWCHX6zAKbXuB1ju4S3h+hNUAB1RhvuzkHzUGdkNoryi/OC8zNxhXlNMMT9C6OhIYEWt1wbHsJWR1eg1Fvrv3XB+E3TtFOAgttHvm6WmEOgyLqtQg9ov8ZH+gvEVb3N9br7rzoRigZKmKHbJOMStQ5Sr0Mddb5hY3ydbTuNj5CQ4LBUqbXC3I01HhO0+ljmZVxeESubjqPwIsM/Ye2cM+jlMfjKxNcMJscw9UWHDSNIa1KqrFcl7G3qmKeft5+m+5k5X86jheI41z6qsfAmenJgaQ3Ig7lEP0aDco8gJ6Y6GLlTy1atc7qT/AHG+UmShij6tJh32HvM9LKjlAZAeAmo6OPop5s+ya7A51ppcesXUEHnOVxuErKxVgWsfWTrKe0FZ7XUwSHeinvUSu+y6f2afdE64xGPBMPEhSckAgi5tcggDvnU08Ls5VAeu7EAXK0hqeOpE9AOxqX2afdEE7Con/CT7olmSIcAzbLHCs3gqyu+L2cPVw1Rv3qrD3T0Y9H6H2SfdEE9HMP8AZJ92RXlmNxOGe3o8O1O36tRjfvzX9kzmK8A3iw+U9jPRrDfZJ5Rv0bw32SeUtpTx1XIN7X7CTb2EGE1c8AF7QX+LGev/AKOYb7FPKEuwMMN1FPKLKeNtWY6M15qbLYsCirmJ1032GpHmJ6quy6A3Ingt5MmEQbkA8hFlPLTsHF1fXS3G7MfmZbw3QqofWdR2KCxnpa0QNwXxF/fCKE6FmtyBsPZFlODo9Ayti1UjvRV/maa6dF8NvZVY8Sc7EnnppOjGHXl8YQQRZTEo7HpL6lJB25JcTCW3BR3D/qaFhBLCRUCYccdYf0ZOQ84ReMYBCknL2x8q/gyKOAYB2H4MEovH3xo0CUU1/BhCmvb5yER4E4Re3zhqq9vnKwb8WhAwLWQdvmI+Ve3zlQwQeyBrfS+aqe0jU9+sUyvD2RQL+UxwhkhcRi8AcnbFkEYvBZ4BECMSJCaq8792vugl/wBk+we8wJi4gmpITf8AZHm3yg5ebHwsP6+2BMakA1Bz8tZHkX/vX3w8wgLN2H2CMQeweZj3jQFl7T7vdGyjl8YWYwCxgOSY1zBJMYmBJmjZ5GXg5zAlLwC8G/OCWgHeMTBvETAe8V4wvyiJgEIiYBYxZoBax4ObX8aRg0A7RWgZos0AzFADxs8CQwD4xs8YvAfMe2KDnigawxBb1E05kj539kG7Hio8CflFFAErzZj5D3C/tjZF5X79T5mKKA5aNeKKAssbLFFAVhyi0iigCTBZxFFABqsA1IooAl4rxRTQbNHiigNaK0UUBxFeKKZCLRifxyiigNGvFFNBtNw/7MRaKKAzcvOMYopkNeCT8I8UAQ8BqmvfFFAWeKKKB//Z;" vertex="1" parent="71FgNAqwy47oRVF8dDIZ-1">
                    <mxGeometry x="400" y="50" width="275" height="183" as="geometry"/>
                </mxCell>
                <mxCell id="71FgNAqwy47oRVF8dDIZ-7" value="[Truck] Memory&amp;nbsp; * 3" style="rounded=1;whiteSpace=wrap;html=1;fillColor=#b0e3e6;strokeColor=#0e8088;fontStyle=1;verticalAlign=middle;" vertex="1" parent="71FgNAqwy47oRVF8dDIZ-1">
                    <mxGeometry x="450" y="270" width="130" height="20" as="geometry"/>
                </mxCell>
                <mxCell id="71FgNAqwy47oRVF8dDIZ-9" value="" style="shape=image;verticalLabelPosition=bottom;labelBackgroundColor=#ffffff;verticalAlign=top;aspect=fixed;imageAspect=0;image=data:image/jpeg,/9j/4AAQSkZJRgABAQAAAQABAAD/2wCEAAoHCBQVFBgSEhQYGBgZGBwaGxsZGBgaGhsYHRkbHBscIBkcIC0kGx4pHhsaJzcmKS4wNDQ0GyM5PzkyPi0yNDABCwsLEA8QHRISHj8pIykyMjQyNTI7NTYyMjUyMjUyOzIyMjIyMjIyNTIyMjIyMjIyNTIyMjI+NTIyMjIyMjIyMv/AABEIALsBDQMBIgACEQEDEQH/xAAbAAABBQEBAAAAAAAAAAAAAAAFAAECAwQGB//EAEEQAAEDAgMFBgIHBQgDAQAAAAEAAhEDIQQSMQVBUWFxBhMigZGhMrFCUmKSwdHwU3Ki4fEUFSMzQ4KywgcW4pP/xAAZAQADAQEBAAAAAAAAAAAAAAAAAQMCBAX/xAAvEQACAgEBBgUDBAMBAAAAAAAAAQIRAyEEEjFBUXETIjJhkQUUoVKBscEjQtHh/9oADAMBAAIRAxEAPwD1pPCcBPCAGATwnhKEAKEoTwkgBoTwnSQAklJJAEUlJJAEUlJJAEUlJRQAySdMgBkkkkAJMnVGJxVOmJqVGNHFzg35oE3XEtSKB4rtXhGWDy88GNJ/iMN90Fxfbwf6VHze7/q0H/klaIT2vDHi0doUl5dj+1+Me05HhnDIwcpu6TMc11HYPab6tFzar3Ocx58T/iLHSWk8DId7Jp2ZxbZDJKonUJinlMmdIxTFSTIAiVGFNNCBkIUYVhCigRrCdOEkhjJ0k6AEkkpJAJJME6AEkkkgBJJpTIAdOqa1djBme5rRxcQ0epQnE9qcIz/VzH7AL/4gMvugxLJCPF13DSS43E9um/6VFx5vcG+zc0+oQfE9rsW+zXNYPsNE+r834JbyOXJ9Qwx532PSUPxW2sPTs+swHgDLvuiT7Ly/E46rU/zKj3cnOc4fdmB6LOGbknM5J/VP0x+Tv8T22w7bMa9/OA1v8Rn2QfE9t6zrU6bGczLz6+EexXJ1KzGzJgjpPWJuqDtGmNxPCP5o8z4GFl2rIk1ovYOYrb2LqSH1ngcGnJ/wA90NeZJJNzrJv6rJjcWWhuWLiZgj2B6rC7EVHfSOmgsOdh81qEHJWNbHkyNuUnXK+IYIMXsOayvxVMTeen4GIVGzXy4sdJzDjvH8lmbR8eU2vH5LUYLeaZrDsMFJqTtov/vEWllt946+a7PsbigzEZRIbUYYB4jxA+x9VwdenAab3HuDB/XNdn2M21TpUiyoCCXWcBJIAADTFxpbqtSglTR0PDjxyUlprxPSO9Ug9DqdSQCNDfyWqmUqO80Ap0zU6QCTKSZAEUyklCBmlIJJLIDpJKL6gaJcQBxJAHqUAWJINiO0eFZrVa79wF/u0EDzKEYntuwWp0nHm5zWj+HMfkk5JEJ7Tij6pI69MvO8T2wxLpy5WD7LZI83Eg/dQjEbSr1PjqPdyLnZfuDw+yy8iOWf1HGvSmz0/FbUoU7VKrGngXDN93U+iD4rtlhm/CHvPIZR/GQfZeesjdEctPZJ8ASYA52Sc2ck/qWR6RjX5OrxXbiqZ7uk1vNxc/2GWPdB8T2ixVTWs5oO5sN92gH1JQGpjWAW14D84iFWzaIkAtm+uluglPdkxSjtc1bf9GnFYqPG9xJNpPicfM3VbcQC3NB4b+m/8JVm0aFgfw4/0Ky4Vshw1k+oj93dG8/JCSqzmxwTbU+OvyaaDw7iDw1t1VeNxXdwMpnyhRwxhwtEyPy9wPRLbDCQHGLHcBvt+SKSkuhvZsePxUpLjw/9MNTHPJtA8gfeJWrAYhz3FtRxMi1t+/TkqcNTBAsPpNJ5n4T7+xVeGdle03sbq8oJppHszwR3XSV8rK20PFk0vCT6UAHiOGhBgha9oMy1JG+D571Via7CIBgzpbfwjXQLUHaTKRflVk3gGk212yLDdM39T7qOEEgDgT6OF/ktezqeZr2hrw1wESN+htEm+iyPwVQSM7G3iZMG08isxkk2iEcsItqyNAFr80SGkTw1hT2k0MfMgCx1/NTp0KfxPc97vpAtIF+Yjde8rZVrg2DdCDfly/mhvzJoxLaoqVoE1a3eeFrTMzbQyOJgC0WRfYmCc6o1roYHu0BJykaiDadN51CyOeTUDASc1hlHEutA1Bn5LYyg8CXAgyTe5tGp43HqEpy01IZc8pxaStWj0jB08jGsknKAJMSY6IjSXG9ksa5z303uc6QHDMXHThPIj0XZ0k7tHo4ZqcU0aGqSi1TCyVEmhOkgCKZSTIGDNpdpqFFxYcznN1DW8gdXEA2I0lBsT21ef8uk0cC9xd/CI+azdtsNlrCoB8bR5uHhPoAz1XNYlwYJgAn4Qb+4HRc8py3t1Hk5s2ffcY8uiDGJ7SYp/wDqFo4MAaPUeL3QurUc85nlzz9pxJ+8bhYX4v6o/AjpBv5jemp4p0tBAiQDxueJMJuE2rZKWzbRJW3fdmlxAiTc6Sq6ldrTB9LgjjII+UqnaLSHRmJETraenl7rN3J9gfIrUMaaTZTD9Oi43N2EqVdpJDTNr6g8LWQ+pjXEmBA4Em3pBCWDtUbIkGQfMFNXp5al73nr+rpxhFTa9jox4IRnutXS0sodWeTOYzx3+q2MOei4GS5pOvkRcnhIUMTShvRx9Dp8vcKzZg8TmmfE2dYmDz8wt5Eqtci2XHUbitU+hhZTkE8L9bqNenlcQP0Nyvae7eQd0gqurXY9wLZfEAhoJMTvyzFt6pfMraoLU/HSH7vuP6e6wHw7rRy05SCtODxIptIe0jxZgCQfCRoYNt35Kh4DjpEHT5X/AF81GKptcjwpRSm93hehbhaIJsIvm9Ty8lrxjMzC3fpGn9bwmoPa0TIk33fJOK7XGAb25dPwWJNt9jMZ7st4CUqdYTlpu84j8/ZW08O74nPDQ67msMmJtcniNIRkggTeOmqets0Mu4ATEtkWkSDGq34jZ1/d5JJtLgtfYw4o03AZpfBGpIMb+R038VlY3K4FlNjddIvcgbomDuRN+EptJJD3ADRuu7juUcDhKkNinLpJzPgCIOUQdDN/IbpSU4RV2KEMs3X8civBYkRcxpuDeWg8lN2GzkvsAbAyDJ6ahambCcTnqVA2TJDb9LnRbcNsamIgPeQZBkjhvEDcpvPC/Lr2LY/p2Vtykq7v8gY4OmJbUc4kiwbAkgREuN4i3ILU3DFzW91hXZhkJc92pgh8TYg+EjrPFdHQwJFw1jN5Np5m35oXie0uDp61H1CJtTYQJ/edA9ChZMsuCrudsNjxxWr+F/ZnbseoS4vexoJzCGyWkZZI0scoGuq20NitIN3vLhc6ieIMW9deSFUu3NMVGD+zZWZgHOc/NUDdCQItGsSZhFsb/wCQcLT/AMtj3nyaD8z7I8Ob9T+DclhhpV9wpszAYguouqCmzuwQcpJc4ZYg2geq6im1cx2R7UsxmdhZkqMvkO9htmHQ2PCRxXVNK6ELHGl/0sCkohSQbHTJ0kAMmTpkhgbtVs59amzu2Z3NdoCGnKRe7jAu1q8821hKlM5ajCxzbmbk5ovmBIIkG45+XrVZ5a1zgJIBIGkkCYnmvM+0G0H13F7mAeENa0OmBJIOa0nxOOg3CN5jKoyUuZx5t2E1Lm9PagJQYCJP1gD0UKjNW9R+ChTxLWSXkAHiQEv7W1xzNa54tNoGn1iQD5FdJ0OSXFm3GeJjalpO4bpF+WtlWwgtExMFut4P9fZaKFJxpmm6BMxBzfamLb+B/GRD6IiTUdMEw0QLEWJiW24OOnMKWNpKjljtEIqixxAGYkCCI5mdy17SbIFRgLgdSIOpkaAQPFCz4drGGRTOZtszi0uNyDqJg26c1uxWLzNAa2A6+bfIJnlNhxRKTck0iU9r83lQNe+qYa5gaDve5oi4GosTpqVqwtPKQX1JLZAyxlAk2Mkx8lQ5jnwRJl7QS4kiSQLk2i7fZPimmmcpLbeeuvAui3JabbVE57ROS9ieKax7vga50XJNs3G/nw6pUnEGKYDZ8RiIaJ1BP6MKTGMORtNj3mJc0nKZIa4X4Xg9bblrwmzqurW5DlcPE4kjN4Tfj8RsN43gRNzhFU38ihiySemvYx1KAsfFcWmwPhkQ7TXcqszQ8MmDMHflMwbt1A4j0R2tsvP/AJtUuEzlFgSSSeGvy9tOH2WRUY+m0wMweXCCWkWvAJv8+qnHaIt0rf8ABeWwyStqtV3AeGyyWwXkiWlvMb2/hxtwVuFwddzHNeweL6RADmgaQDEco4o7Rw7cMzJUrU2AEluZ0OLSS4CCQSRJ0lYMT2iwbNHVKn7rco9XZT6ShvK35Ul7s6cWy40k5N9kNS2c9pPeVIEzAAjV3IcYFrX3LbRwAMw1zp8h5G3zW0bTwTGh4qMuARlBLoIkTAkHquG7QbYxJquZ3z2sJloacgym4ByRIjiSVlYZSfml8aForDb3YptdTsqrGUr1KlOl++5oJ9Ym1tUSZs7e9xjf9Ee2nqvIK9DLJ142Oh3k81q/vOq4sFSo9zIDQC4kAtFgOEt+RVPt4RV1Y8maUVa/4dFtHta+nUcylh2NIMZnlzibxoIg8pKEYrtNjCQ41XCHSA0NY2xBjw3cORN1Xt2lmDaw3+F370SD5gHzaeKGMqZpDyJIsSOCtCq0Hd6nVO7bVqpNPKxgP1RJLTqJdPMbkB2pSDKmcDwvvu8xPEH896Gm3iGov1G8enyRuiRXp5QDm1bP1uH+7TqGncs+mXsRi3GVPmCKlORmEawRpHBU0mDvGF85MwzRrE3id8K54IkJm0XHRpPt7qtWbkrR0/Zlz2VmOw7C97ReBAIhgMjgS2puFnjgF69QqSBu5HcvDdkValJ76lOo9tRjfhaGkFgFyS4wBHI3gRddl2J7XvrVXUsS4FzvgIAaJ4QOPzhZRzQyuMvPz+D0prlMFZ6b1c0oOssSTBOgBkkkkhjOK5LbuwsPTpmo0Oa4OH03ODpcAW5XEgWnTSOErrXLzzt3s+o7EscwF+emQGZniHgkZmgbwC1SmtNSO0pOOqv+rOWrtax5ysYCYdMROkghus6X5qrvHiAx5A4SG3vJG4C4B6AbgjrKL82XI4vaADLYIgXkRyJUq+yKz2uZ4WNOs3JIg6C43eal48I6SZ52PDmmuD5/gC4cPe7uxIdEw4kRv3/req2+LO3NlLJsZ8RE7uMtAvxC6UbBYXh9SoXvAIgQAbnTU6uPO3Nb6Gx6YEMo5ryC8TfSfFcWvYcOCz92n6It9lodMfpsv9qXdnL4SnADhRc9wdLmk6wdIBnTfB380YNCq8NyBtOAROWC1uoBEnMQIG5GQGl4pd5Ta8zFMOBdYSYEjQDhuV9fCNpsdUdLoBMExJ1iBa55JXnlrSXfU647Ligqtvhwpfk5mjsXKIqVDJdJa0NAkQd4J1a30W+jsanJilmnXPJHHR26TwXOVu2lUktoUWM13F7vUwPYoVW7Q4sva91Z8tIcBOVsgyJY0AEW3hbWzSl6pP8AbQ2o44+mK/fU9Jo7OfAHhaOAE/lvQLF9o8JSJaDUquBiwytkczHyKw/+24moS0OawW+Bty0iZkyZ6IDtihlqioGjxw7dwE+hzLUMGNSqgWdybXCgtiO2rx/k0abOsvPqMo9ijh7b0yAKdI5i0E5nQBI4gXAPTRcFWpZhLQBB4RY7+d1ANLcrtYMf7T5bnEfeV5R08pLLvU2nqbNt04rF5mH+P1PivxmQsdekILmEkAwTMoziqXeUZsXUzu3gwD1+iZ3eJCKbSAdLjeffl5rUHcTUZbyTIMfBa/h4T0PwnyMjzCKY+l3lMP8ApMsf3Sfwcf4+SGBgFnfC7wmOen5jdIRTZDoGR+6WuBJuLtd5ETfpwWJ+WSZN+WV9QRSdEg6EQR8lcMDILc1zpawcDa88bTEaiVoxWz8ryMwHMzJm4NhvEFQqYymL3c4nQaTJ0AGa5zevRV4oq/c0bJq52Op1LAjKZixn5hzZ9ULrYR7XFuU2JH6PBbKdN3eCoGwHCdT8QtrF5tPXmtW0sBUqZXtqBgcyQDF2shp0+kIIvewUo+V0yEMijafIEtoEauDfc+iswb8tTK13gPi06gjyP4KynscWLg5++5MbzpbcD6FF/wCzB8mnSyMEkXJLWwBkcdL2IJibaXTm01SMSyOa0XYG7SdUzE06YINy4kAZjqdIuQ4+u6FhfRquEvfAkAho49fy3o84y3x1AIY2mBMugGcuUC4ENIdebDdCZuIY0E02uBkwXZLAkSMsQ8AEgE3vOqXiUtWDc5PR/HEx4bBsLgaYe8ta0mQWtkky0zcS2YPG29Z69DJXL8Pnbl8QBYR4gYLbEwNbla2vqVJHidMfADpINz/unzncifZ3Z2LZUFSmydQQ+Xtg8vonnKzGaldGM0ZRWq4nofZna3f0muNngAPBsQeMc/zXQMK5HY2y67K5rvc1ocIcxtm6bgOcHXcurpqkW2tS+zyk4eZa/wAovCdRCkmXEkkkkMTkJ2vhaj8lSiWB7HGM85S1zYcLAnh6JbZ7R4bDSKryCACQASb6XsPdeb9utvnFNY6kXsY0lpaSYcXXktBg6QJnfxU9JaE5SjJ7t6nS4l9GlUfVxWNph7wA5jLkAaQ0Eu47t5T7L2xgq73MY9xLRmmp4GuE3gEgW5garyw0gBLeAKeg0zA329dPQwfJL7eDe9WptNwjUT1Hbm2KdOi8YWozvAJblAcBF3HTKbArzvEbSxNUZqlZ5BtlzlrfNrQGm3JXbKeCWzo4Fp58vMW81gcw03lpPwuIPCxg2W8ZLFklNPe42VUKpY5r2+EtIIixkc/1qiuH2hUe+alRzy11i4k2N2n5FCqguY4qxrocx17gtMCdLg+n/FanG0Yzq1fNE9oUu7quy8ZHRwn8VQ4AtB3ix5/r8UV2kzPTZU+kPC6PUf8Ab1CFsYToCeicXaLxlvJMvw7wGjkS06aOuNSJuD7IriGtqUwRcsI9PCCJ0OjfdCWUDBDi1siBJAObd7wteyKujXSQ4EETc2IdG/Qu9uAWZRqVkJvdmn10MOHfE31v11H4q5jMzgLkOlpiJAc0gnW5/kqMTiHMcWsonXhrMEQT1HFV1TVzAPc1o3gS4jrED2VNDcssVxYX2XWh721IOoItcQWkW45o1BuLLHjqlKm8sNTMfELFt/AG3vaSCptwoYSS4F4IHhuC3KIcHExf10W7E4XvAB3cTlaHOMua8TmlxiZMwPmpxpPTgQjmq0kCnYp18lMwXHxOEC5bBl27XduWyth6rZdLcwDS64DhIOUwDvBt0GiZ1A0nR3wDS2frieBA0njCliHEjwFxOUbxY6GCNQLRfQ8kpy6mJZZyTVfBox+Bp1HSXZjDcoAhriQLZSZkcIPJVYLDjKzI1kEjKWxBgukToDeNfxQ3+wuLhL504k7vzRrusRUgEO4wbXsZy6k63udFNzVUnfYrHBknrJV+9IfEMdJL3/GGktlvhORzASwHdawIncd6Z9SmC0gl8th2obcAHfIn2lbMN2bqH4jl6eXG+4bkWw3ZimLuv7/O3sjzS4Ku5ZYEncn8a/k5t+MqOPgABMA5BLjYQTd0wB7HiUzdl16hggu3y4zfoJPEeY6LvcPspjbBg/XLRb6eE5J+HJ+pm9yHS+5w2G7KvN3ujpA4dTuCN4TstSbEjN18uM8B6Lp2YVaGUFpYorkb3ugLw2y6bdGDzE/PRE6dBXspq5rFTgZK2U1c1qcBSCAEFJME6AEkkkkM8x/8uYP4Ko3gA+Uj/sFx+Ed3lF7bmGgz9puvt817Rt3ZtKuwCsYaw5ploGm8uEAaei8u2rTw1PFZcM7M0CHbxf4tBB6qV0zjmnDLfJs5ui6D5QnYFoqYQtcQ4tbBIklV1HUWiH1J5AZfc6+S6EdZYx7mvJBAAIdvJEjNA3G9vJadqUi5we0EhzRu4CB7AHzWZjw57C1piCPi3C8+pdb5rVXp1DTY1kiHlk6AExlkyN0a2tyU+EjjjNQyNcmZBhiPiIb+8Qo1cuRwa8lwOYeEwI3TwjMPNM3Zd4qVHON5DSGj2+JbMHg2MIb3cH4i0nVsHcBmEwb8rb1pyQ5Z1LypWWYer/huaIJc0QDxzATAHT3Q/u67/pNYJI3k+ggI4/DFngdYOcJPhyy28B24gm5PHqq676Tal3OeJMwJdNrkzBm4tECdVNOlSJp5EqugVh9nQSXuJIBIzRlJ3CB6ytD8LTa5r2kgCCJi9gekfNW46o0maYDet95nKD8I3R9nmnpUajj4GGDygbryeRWHl6MbwZp6cur0IVMSJLWsJM54AEAkcTcdFW+mNRAeby8TB9wPS6LYfs/WdcgMm5tN7dBrPqieH7Kt/wBRxd5ngRuiLH2CW9J8F8lI7Hzm/g5xmLdlDPDGWCYkl0OuRe+okQY5opS2Z39I1Huf3sa5jAI5HW0ro8PsWm3Rv4fLqfVCKO3xJDaQADy34+G/4U95x9THlwQ01darUx0Nh1HXcAJ5c539XfNEsN2caIzGT68OnDgoN7WU72Zb7bh82KTO2NO/gZqI/wAR1+f+XaElGPNfydMZbqSQWw2yKbdG/roLIhSwgFgAOiBU+1rSJbTa68eGoT5nwWTntpTFnU2tPOpEfwb+UqilFaIN5NnSswwV7aAXKt7dUtcjf/1/+FZT7b03fDTBtMCoJ6Rk/ktb6FaOsbTVrWLjqfbumTlFMzyfOhg/R4qz/wB7pAwWQZP027p5ckvEQWjsQ1TAXGDt5R+ofvsspM7d0jpTeejmGPQp76HaOzCkCuMPbyiNabx/uZz+1yT/APvtD9m/ydT6fWS3kFnaApSuNb2+oaCm89DTPD7fNbtidr6OJq9yxlRrspcC8MynLEiWuN/LcUb8boLOmSlQDk4K2BJJNKSQzJtGh3lN9P6zCPOLe68NpYKKuRoGZz8rQTGp8Os77L3t4Xj3aDs5VqY6oyiDrm6AmR7EKVa6nFtaqSl+wAxWCzOD3OjO5zSGvlwcLHNaec8+SejgGNcAGXgmYkjfeb/zUsdgnYbEBlUyWw5wdvB1FjvB90WdialTK5skgAjK0zpIknfyH4JymktTEIvLa17EauHc0hjmtDXAAkZSPCGk3cZzcSIuIUcRTY2oAagc0EyWlp6zFvpRru1utVPZdepAykgGxeS6BmJ5x/NEcN2ReR/iPtawgbhwmdPdYU2+COj7XTVoGswYxDTUoMaGtkw+SHAADLk0ggEHjmKpfWq1CA0O8NhlBsQYnNqD57l3Oy9isotysGuvD9XRCjs5o0aB5LUoylwdCwYmleTny5ex55R2HXqHMRExcmTu8uPqUVw3ZKb1Hk/o8OR4ruWYRXswqFiXPU6k64Kjl8L2epMuGSeP6v7opS2eBo0DyRpmHVgorailwBtviCW4NT/sqK92oOYmIFmivJKOZpex4IOYmCDME69JXs1VsCV5btPbTcVUNQU8jWNyCSC50mZJ3aaLlzqyeSqRyLYBOZpvcbuMHS409Fr70jxFrxpe2n3d6IHA0CDBvNiXO48AYUnbOpZ4zy2Jgl1vQwd/O3SehZ10BySMOx3OL3mdW3twt5KjaDP8Qkgxv9Sj+GwLGT3Zmbb9InmNfx1VVfAU3unMbhu8jXeQevzUVkXiN8jKkt5sBscDo1xiYs02m02UQ7M9oEjxAaCbwDoi42YwEEOIbFxmvMT0GseR876Wy6YdmBNr3nX05e6rPMqo1vJoyf3eKc1Mzi7KRcyI14TqhIoFz3Ok6m4Eyd/z910g0jOYzRlvYXJM8DIHpxCoqbIpuJdmeJ8VhyHh01Usc92VvmhRdcQFUpb3PJA1JabWkev4rRsc/wCJEkjKQOguto2bS0FRxOmU2g7/AKKuwmzWscHtM8pNtdYZdUnlTi0DkmtATjWF9TzItcgC/wCKrqUiRBcTvjKdTzR7F7PD3AudlN5yknpfL9n3WB+zBmY0VdTBlw4xw119QnjyJRSYb6SBTTlcMrpAM2tf+kLpuzNc09pUr2cYjd42FvzWEbEbbxu1vZu46WFkf2DtfD4ap/js+MNy1MuYtLSbEaj4hcLM5RclQpNWmz1Jj1eCsdJy0sKuWLQUpTAp0AO4LnNr7Eq1K7a1GoWeDK6DE36GbR6LpyExapuNk8mOORVLuce3sjSzl9Ql7jq46nqTJKIUdkU2fDTHnf56I6aabu00ghhhDgqBrcKrWYVbhTUgxMoZGYdXNoq8NUw1MCgU1MMVuVKEAVhqfKppFAFZCrcFeQqnBJgYMZZjj9k/JeHYMEMfNsxBHML3DadqbzwY4/wleLjZz2MpVHVGOFSzWtcC4dQDPLqubLq6J5I3QHoZZJcTblIOuvstbatPfl3fQnrvTswjCMxqSGi922EgC8wBJAUnMblvV8MwDLItFpnUAj1XT4sTdluxqp7yABBboJGhaJ6rPtGO8Em2UX9dy1YRlOm7M5wJItcCQeE3IMbv6tiqAqVMofEkAtsTmE+kSVFNLJfKideazCw09JFouWGdZ4pn1GgtLMsgzZpbb1utOHwh0bUHGzQbaTqk/ZY1NTUEmGGdYkQeKs8sOBptUES45T4DPiOcTYzTAbMWzTI/cOtwg1fM6pLonWbxYW46x7o44m5DyIEFu4yWXJm2UNfr9dD34KXS2plDgTcE2BdO/SAfRQhOKab6CRlew73MtwsdL3ASwz3NqMAcPiFxzgG+/wA7a8Vods6peam8jQm+Xrw+SrZs9wcPFYGfhva+kq8skJJob1Rp2s86CbQZ56fisTA6LuYf3jJ0nr/Nb8azOPCPFAEx56g8lldh6m9/O4jiJ9Jv1WMMoxjTFHgZXFzROcHkHTryV+J8dJjjcyW6ibgxc9AovwLyfEb6aHdz8lqw+BqPZ3NNpe+c8NB0BE6ddeaMkouqFkjvKkevbFxHeUadT6zGHzLRPuijCuZ7FvJwlNrhBZmYQd2V5AHpC6VhVIu4plUXtKkq2qaYGpKEklkBoTwknQA0JQnSQAoTpJIASSkkgCKZOkgBiq3BWFRcEADdqsmjUHGm/wD4FeN4fZhZByGQZuBOs/r+i9xc1VPYoZMcpPR0Ui4/7KzxsUqkQXPsCAc0kXGnSAnIfmzS6ZnU8ACDxmB6BeuOoql2GHBY8CX6jW9D9J5M5j4LSXQWkHS8zJ6wYSc1x4/EXeZM666r1U4UcAoHCDgPRHgz/UK8fQ8paxwEXIDQ3QaDnGqi2gYiD8OWY4uzfNeqnBt+qPQJjgWfVb6BHgy6gnjXI8sfTcbHNG7kN4HCUwoECADZrgLaB1j8z6r1E7PZ9Rv3Qo/3bT/Zs+638keDLqH+Poec4PCF7amYultOQbzINzz5dVnNIyTlEkuvkZPiBEF2WTrv1XpzdnsEwxomxhouOCgdl0/2bPuN/JPwprgwrH0PM+4tGVsS0kZGZSROrcsHU+2qZ1GQAWNIAIHgbaSSIta5v+C9N/uql+yZ9xv5Jf3TS/Zs+438keHk6h/j6fk8yNMyXZW5jMuyNzEukO8UTEEhUvw1w6mTTIm9MZDcWu0frkvVBsij+yZ9xv5KbdjUP2LPuN/JPwsj5g/D6HP/APjpx7h7XOzEVCZOviAPncFdrTWbDYNlORTY1s65QBPotTArwi4xSZiVX5eBY1SUQpLZg1pJBJZGOkkkgB0kkkAJJJJACSSSQAkkkkAMUikkUwIEKJarCmQBSWpixWpkAUliYsVyZAFBppjTV6YoAo7tN3avKYoAoNNLu1eUxQBR3SXdK5MmBXkSDFYnQBANUgE6SAEEk6ZAj//Z;" vertex="1" parent="71FgNAqwy47oRVF8dDIZ-1">
                    <mxGeometry x="45" y="286" width="380" height="264.16" as="geometry"/>
                </mxCell>
            </root>
        </mxGraphModel>
    </diagram>
    <diagram id="2W4R6sS3hxbwzx8TbGwJ" name="inheritance">
        <mxGraphModel dx="789" dy="582" grid="1" gridSize="10" guides="1" tooltips="1" connect="1" arrows="1" fold="1" page="1" pageScale="1" pageWidth="850" pageHeight="1100" math="0" shadow="0">
            <root>
                <mxCell id="nydCpLiyZTVlOfTDSQFW-0"/>
                <mxCell id="nydCpLiyZTVlOfTDSQFW-1" parent="nydCpLiyZTVlOfTDSQFW-0"/>
                <mxCell id="nydCpLiyZTVlOfTDSQFW-8" value="" style="edgeStyle=none;html=1;" edge="1" parent="nydCpLiyZTVlOfTDSQFW-1" source="nydCpLiyZTVlOfTDSQFW-2" target="nydCpLiyZTVlOfTDSQFW-7">
                    <mxGeometry relative="1" as="geometry"/>
                </mxCell>
                <mxCell id="nydCpLiyZTVlOfTDSQFW-2" value="Smart Phone" style="rounded=0;whiteSpace=wrap;html=1;fillColor=#e1d5e7;strokeColor=#9673a6;" vertex="1" parent="nydCpLiyZTVlOfTDSQFW-1">
                    <mxGeometry x="140" y="130" width="120" height="60" as="geometry"/>
                </mxCell>
                <mxCell id="nydCpLiyZTVlOfTDSQFW-5" style="edgeStyle=none;html=1;" edge="1" parent="nydCpLiyZTVlOfTDSQFW-1" source="nydCpLiyZTVlOfTDSQFW-3" target="nydCpLiyZTVlOfTDSQFW-2">
                    <mxGeometry relative="1" as="geometry"/>
                </mxCell>
                <mxCell id="nydCpLiyZTVlOfTDSQFW-3" value="3G" style="rounded=0;whiteSpace=wrap;html=1;fillColor=#e1d5e7;strokeColor=#9673a6;" vertex="1" parent="nydCpLiyZTVlOfTDSQFW-1">
                    <mxGeometry x="50" y="240" width="120" height="60" as="geometry"/>
                </mxCell>
                <mxCell id="nydCpLiyZTVlOfTDSQFW-6" style="edgeStyle=none;html=1;entryX=0.75;entryY=1;entryDx=0;entryDy=0;" edge="1" parent="nydCpLiyZTVlOfTDSQFW-1" source="nydCpLiyZTVlOfTDSQFW-4" target="nydCpLiyZTVlOfTDSQFW-2">
                    <mxGeometry relative="1" as="geometry"/>
                </mxCell>
                <mxCell id="nydCpLiyZTVlOfTDSQFW-4" value="4G" style="rounded=0;whiteSpace=wrap;html=1;fillColor=#e1d5e7;strokeColor=#9673a6;" vertex="1" parent="nydCpLiyZTVlOfTDSQFW-1">
                    <mxGeometry x="240" y="240" width="120" height="60" as="geometry"/>
                </mxCell>
                <mxCell id="nydCpLiyZTVlOfTDSQFW-7" value="Phone" style="rounded=0;whiteSpace=wrap;html=1;fillColor=#f8cecc;strokeColor=#b85450;" vertex="1" parent="nydCpLiyZTVlOfTDSQFW-1">
                    <mxGeometry x="140" y="10" width="120" height="60" as="geometry"/>
                </mxCell>
                <mxCell id="nydCpLiyZTVlOfTDSQFW-9" value="Hybrid (Multilevel + Hierarchial)" style="rounded=0;whiteSpace=wrap;html=1;" vertex="1" parent="nydCpLiyZTVlOfTDSQFW-1">
                    <mxGeometry x="380" y="110" width="120" height="60" as="geometry"/>
                </mxCell>
            </root>
        </mxGraphModel>
    </diagram>
</mxfile>